<svg width="12" height="12" viewBox="0 0 12 12" fill="none" xmlns="http://www.w3.org/2000/svg">
<path d="M6 10C6.23333 10 6.42778 9.92222 6.58333 9.76667C6.75 9.6 6.83333 9.4 6.83333 9.16667C6.83333 8.93333 6.75 8.73889 6.58333 8.58333C6.42778 8.41667 6.23333 8.33333 6 8.33333C5.76667 8.33333 5.56667 8.41667 5.4 8.58333C5.24444 8.73889 5.16667 8.93333 5.16667 9.16667C5.16667 9.4 5.24444 9.6 5.4 9.76667C5.56667 9.92222 5.76667 10 6 10ZM5.4 7.43333H6.63333C6.63333 7.03333 6.67778 6.73889 6.76667 6.55C6.85556 6.36111 7.04445 6.12222 7.33333 5.83333C7.72222 5.44444 7.99444 5.12222 8.15 4.86667C8.31667 4.6 8.4 4.3 8.4 3.96667C8.4 3.37778 8.2 2.90556 7.8 2.55C7.4 2.18333 6.86111 2 6.18333 2C5.57222 2 5.05 2.15 4.61667 2.45C4.19444 2.75 3.9 3.16667 3.73333 3.7L4.83333 4.13333C4.91111 3.83333 5.06667 3.59444 5.3 3.41667C5.53333 3.22778 5.80556 3.13333 6.11667 3.13333C6.41667 3.13333 6.66667 3.21667 6.86667 3.38333C7.06667 3.53889 7.16667 3.75 7.16667 4.01667C7.16667 4.20555 7.10556 4.40555 6.98333 4.61667C6.86111 4.82778 6.65556 5.06111 6.36667 5.31667C6 5.63889 5.74444 5.95 5.6 6.25C5.46667 6.53889 5.4 6.93333 5.4 7.43333ZM0 12L0 -9.53674e-07L12 -9.53674e-07L12 12L0 12ZM1.33333 10.6667L10.6667 10.6667L10.6667 1.33333L1.33333 1.33333L1.33333 10.6667ZM1.33333 10.6667L1.33333 1.33333L1.33333 10.6667Z" fill="white"/>
</svg>
