<?xml version="1.0" encoding="UTF-8"?>
<svg id="RZ" xmlns="http://www.w3.org/2000/svg" version="1.1" viewBox="0 0 500 121.71">
  <!-- Generator: Adobe Illustrator 29.0.0, SVG Export Plug-In . SVG Version: 2.1.0 Build 186)  -->
  <path d="M112.76,42.49c-3.31,0-5.13,2.16-5.13,6v23.41c0,3.84,1.82,6,5.13,6s5.23-2.16,5.23-6v-23.41c0-3.84-1.87-6-5.23-6Z"/>
  <path d="M5.13,42.49c-3.31,0-5.13,2.16-5.13,6v23.41c0,3.84,1.82,6,5.13,6s5.23-2.16,5.23-6v-23.41c0-3.84-1.87-6-5.23-6Z"/>
  <path d="M58.95,42.49c-3.31,0-5.13,2.16-5.13,6v23.41c0,3.84,1.82,6,5.13,6s5.23-2.16,5.23-6v-23.41c0-3.84-1.87-6-5.23-6Z"/>
  <path d="M45.45,86.74c-3.31,0-5.13,2.16-5.13,6v21.64c0,3.84,1.82,6,5.13,6s5.23-2.16,5.23-6v-21.64c0-3.84-1.87-6-5.23-6Z"/>
  <path d="M72.35,86.74c-3.31,0-5.13,2.16-5.13,6v21.64c0,3.84,1.82,6,5.13,6s5.23-2.16,5.23-6v-21.64c0-3.84-1.87-6-5.23-6Z"/>
  <path d="M45.45,0c-3.31,0-5.13,2.16-5.13,6v21.64c0,3.84,1.82,6,5.13,6s5.23-2.16,5.23-6V6c0-3.84-1.87-6-5.23-6Z"/>
  <path d="M72.35,0c-3.31,0-5.13,2.16-5.13,6v21.64c0,3.84,1.82,6,5.13,6s5.23-2.16,5.23-6V6c0-3.84-1.87-6-5.23-6Z"/>
  <path d="M32.04,42.49c-3.31,0-5.13,2.16-5.13,6v23.41c0,3.84,1.82,6,5.13,6s5.23-2.16,5.23-6v-23.41c0-3.84-1.87-6-5.23-6Z"/>
  <path d="M85.85,42.49c-3.31,0-5.13,2.16-5.13,6v23.41c0,3.84,1.82,6,5.13,6s5.23-2.16,5.23-6v-23.41c0-3.84-1.87-6-5.23-6Z"/>
  <path d="M199.32,55.3l-9.94-1.85c-7.15-1.32-10.86-3.84-10.86-9,0-5.42,4.9-9.13,12.59-9.13,7.02,0,12.19,2.51,14.17,8.2,1.06,3.04,2.78,4.89,5.83,4.89,5.3,0,6.62-5.29,3.84-10.72-3.18-6.22-10.2-11.38-23.05-11.38-14.44,0-24.77,7.94-24.77,18.78,0,9.79,7.55,15.87,19.47,18.12l9.67,1.85c7.68,1.46,11.13,4.76,11.13,9.79,0,6.48-5.96,10.45-14.7,10.45s-13.91-3.7-15.9-10.32c-.93-3.31-2.65-5.29-5.56-5.29-3.97,0-6.76,3.44-4.77,9.26,2.91,8.33,11.53,15.21,26.1,15.21,16.29,0,26.1-9.13,26.1-20.5,0-10.58-7.82-16.27-19.34-18.39Z"/>
  <path d="M305.12,26.86c-2.78,0-4.64,1.59-5.3,4.76l-10.07,42.99-1.19,4.89c-.4-1.46-.93-3.04-1.32-4.76l-10.2-33.86c-1.46-4.76-3.97-6.61-7.82-6.61s-6.62,1.85-7.95,6.61l-10.07,33.86c-.53,1.85-1.06,3.44-1.46,5.03-.27-1.46-.79-3.04-1.19-5.03l-9.67-42.86c-.79-3.31-2.78-5.03-5.56-5.03-4.37,0-6.49,3.7-5.43,7.8l13.78,52.91c1.19,4.23,3.84,6.22,7.55,6.22s6.23-1.98,7.55-6.22l10.6-35.98c.53-1.59.93-3.17,1.46-4.76.53,1.72.93,3.17,1.46,4.76l10.47,35.98c1.32,4.23,3.97,6.22,7.68,6.22s6.36-1.98,7.55-6.22l13.91-53.57c1.06-3.84-.8-7.14-4.77-7.14Z"/>
  <path d="M345.32,18c4.64,0,8.35-3.7,8.35-8.33s-3.71-8.33-8.35-8.33-8.35,3.7-8.35,8.33,3.71,8.33,8.35,8.33Z"/>
  <path d="M368.93,82.82h-16.86v-47.75c0-4.63-1.99-6.61-6.62-6.61h-14.78c-3.58,0-5.56,1.85-5.56,4.76s1.99,4.63,5.56,4.63h10.01v44.98h-19.2c-3.58,0-5.56,1.85-5.56,4.76s1.99,4.63,5.56,4.63h47.45c3.58,0,5.56-1.72,5.56-4.63s-1.99-4.76-5.56-4.76Z"/>
  <path d="M427.65,26.86c-2.78,0-4.77,1.59-5.83,4.63l-12.98,37.7-2.78,7.8c-.93-2.65-2.12-5.42-3.05-7.8l-14.57-37.7c-1.19-3.04-3.31-4.63-5.96-4.63-4.5,0-7.02,3.97-5.17,8.47l22.79,54.63-5.03,13.63c-1.99,5.29-4.9,7.8-9.41,7.8-.8,0-1.59,0-2.38-.13-4.37-.66-6.89,1.32-6.89,4.76,0,5.56,6.23,5.69,10.07,5.69,8.88,0,15.23-4.89,18.81-14.55l27.03-71.83c1.72-4.5-.53-8.47-4.64-8.47Z"/>
  <path d="M494.3,26.86c-3.44,0-5.7,2.38-5.7,6.61v32.01c0,12.7-4.9,19.58-15.76,19.58s-15.63-6.88-15.63-19.58v-32.01c0-4.23-2.25-6.61-5.7-6.61s-5.7,2.38-5.7,6.61v32.81c0,17.99,9.01,27.91,27.02,27.91s27.16-9.92,27.16-27.65v-33.07c0-4.23-2.25-6.61-5.7-6.61Z"/>
</svg>