<svg width="12" height="12" viewBox="0 0 12 12" fill="none" xmlns="http://www.w3.org/2000/svg">
<path d="M6 11.8333C5.19306 11.8333 4.43472 11.6826 3.725 11.3812C3.01528 11.0701 2.39792 10.6521 1.87292 10.1271C1.34792 9.60208 0.929861 8.98472 0.61875 8.275C0.317361 7.56528 0.166667 6.80694 0.166667 6C0.166667 5.19306 0.317361 4.43472 0.61875 3.725C0.929861 3.01528 1.34792 2.39792 1.87292 1.87292C2.39792 1.34792 3.01528 0.934721 3.725 0.633333C4.43472 0.322222 5.19306 0.166666 6 0.166666C6.80694 0.166666 7.56528 0.322222 8.275 0.633333C8.98472 0.934721 9.60208 1.34792 10.1271 1.87292C10.6521 2.39792 11.0653 3.01528 11.3667 3.725C11.6778 4.43472 11.8333 5.19306 11.8333 6C11.8333 6.80694 11.6778 7.56528 11.3667 8.275C11.0653 8.98472 10.6521 9.60208 10.1271 10.1271C9.60208 10.6521 8.98472 11.0701 8.275 11.3812C7.56528 11.6826 6.80694 11.8333 6 11.8333ZM6 10.6667C6.525 10.6667 7.03056 10.584 7.51667 10.4187C8.00278 10.2437 8.45 9.99583 8.85833 9.675L2.325 3.14167C2.00417 3.55 1.75625 3.99722 1.58125 4.48333C1.41597 4.96944 1.33333 5.475 1.33333 6C1.33333 7.30278 1.78542 8.40625 2.68958 9.31042C3.59375 10.2146 4.69722 10.6667 6 10.6667ZM9.675 8.85833C9.99583 8.45 10.2389 8.00278 10.4042 7.51667C10.5792 7.03056 10.6667 6.525 10.6667 6C10.6667 4.69722 10.2146 3.59375 9.31042 2.68958C8.40625 1.78542 7.30278 1.33333 6 1.33333C5.475 1.33333 4.96944 1.42083 4.48333 1.59583C3.99722 1.76111 3.55 2.00417 3.14167 2.325L9.675 8.85833Z" fill="#C00012"/>
</svg>
