<svg width="57" height="57" viewBox="0 0 57 57" fill="none" xmlns="http://www.w3.org/2000/svg">
<path d="M20.1 38.0667L28.5 29.6667L36.9 38.0667L38.0667 36.9L29.6667 28.5L38.0667 20.1L36.9 18.9333L28.5 27.3333L20.1 18.9333L18.9333 20.1L27.3333 28.5L18.9333 36.9L20.1 38.0667ZM28.5 48.8C25.7 48.8 23.0556 48.275 20.5667 47.225C18.1167 46.1361 15.9778 44.6778 14.15 42.85C12.3222 41.0222 10.8639 38.8833 9.775 36.4333C8.725 33.9444 8.2 31.3 8.2 28.5C8.2 25.7 8.725 23.075 9.775 20.625C10.8639 18.1361 12.3222 15.9778 14.15 14.15C15.9778 12.3222 18.1167 10.8833 20.5667 9.83333C23.0556 8.74444 25.7 8.2 28.5 8.2C31.3 8.2 33.925 8.74444 36.375 9.83333C38.8639 10.8833 41.0222 12.3222 42.85 14.15C44.6778 15.9778 46.1167 18.1361 47.1667 20.625C48.2556 23.075 48.8 25.7 48.8 28.5C48.8 31.3 48.2556 33.9444 47.1667 36.4333C46.1167 38.8833 44.6778 41.0222 42.85 42.85C41.0222 44.6778 38.8639 46.1361 36.375 47.225C33.925 48.275 31.3 48.8 28.5 48.8ZM28.5 47.1667C33.7111 47.1667 38.125 45.3583 41.7417 41.7417C45.3583 38.125 47.1667 33.7111 47.1667 28.5C47.1667 23.2889 45.3583 18.875 41.7417 15.2583C38.125 11.6417 33.7111 9.83333 28.5 9.83333C23.2889 9.83333 18.875 11.6417 15.2583 15.2583C11.6417 18.875 9.83333 23.2889 9.83333 28.5C9.83333 33.7111 11.6417 38.125 15.2583 41.7417C18.875 45.3583 23.2889 47.1667 28.5 47.1667Z" fill="#0A2841"/>
</svg>
