<?xml version="1.0" encoding="UTF-8"?>
<svg id="RZ" xmlns="http://www.w3.org/2000/svg" version="1.1" viewBox="0 0 117.8 120.9">
  <!-- Generator: Adobe Illustrator 29.0.1, SVG Export Plug-In . SVG Version: 2.1.0 Build 192)  -->
  <path d="M113.3,43c-3.7,0-4.4,2.9-4.4,5.3v23.7c0,2.4.8,5.3,4.4,5.3s4.5-2.9,4.5-5.3v-23.7c0-2.4-.8-5.3-4.5-5.3Z"/>
  <path d="M4.4,43c-3.7,0-4.4,2.9-4.4,5.3v23.7c0,2.4.8,5.3,4.4,5.3s4.5-2.9,4.5-5.3v-23.7c0-2.4-.8-5.3-4.5-5.3Z"/>
  <path d="M58.9,43c-3.7,0-4.4,2.9-4.4,5.3v23.7c0,2.4.8,5.3,4.4,5.3s4.5-2.9,4.5-5.3v-23.7c0-2.4-.8-5.3-4.5-5.3Z"/>
  <path d="M45.2,87.7c-3.7,0-4.4,2.9-4.4,5.3v21.9c0,2.4.8,5.3,4.4,5.3s4.5-2.9,4.5-5.3v-21.9c0-2.4-.8-5.3-4.5-5.3Z"/>
  <path d="M72.4,87.7c-3.7,0-4.4,2.9-4.4,5.3v21.9c0,2.4.8,5.3,4.4,5.3s4.5-2.9,4.5-5.3v-21.9c0-2.4-.8-5.3-4.5-5.3Z"/>
  <path d="M45.2,0C41.5,0,40.8,2.9,40.8,5.3v21.9c0,2.4.8,5.3,4.4,5.3s4.5-2.9,4.5-5.3V5.3C49.7,2.9,48.9,0,45.2,0Z"/>
  <path d="M72.4,0C68.8,0,68,2.9,68,5.3v21.9c0,2.4.8,5.3,4.4,5.3s4.5-2.9,4.5-5.3V5.3C76.9,2.9,76.2,0,72.4,0Z"/>
  <path d="M31.6,43c-3.7,0-4.4,2.9-4.4,5.3v23.7c0,2.4.8,5.3,4.4,5.3s4.5-2.9,4.5-5.3v-23.7c0-2.4-.8-5.3-4.5-5.3Z"/>
  <path d="M86.1,43c-3.7,0-4.4,2.9-4.4,5.3v23.7c0,2.4.8,5.3,4.4,5.3s4.5-2.9,4.5-5.3v-23.7c0-2.4-.8-5.3-4.5-5.3Z"/>
</svg>