<svg width="291" height="348" viewBox="0 0 291 348" fill="none" xmlns="http://www.w3.org/2000/svg">
<g opacity="0.1">
<path fill-rule="evenodd" clip-rule="evenodd" d="M10.5997 35.2157C4.74184 41.0735 4.74184 50.571 10.5997 56.4289C16.4576 62.2867 25.955 62.2867 31.8129 56.4289L56.2081 32.0337C62.066 26.1758 62.066 16.6783 56.2081 10.8205C50.3502 4.96262 40.8528 4.96262 34.9949 10.8205L10.5997 35.2157ZM18.4118 42.1961L24.9455 48.7297L27.1109 46.5643C29.2857 44.3895 29.127 41.9721 27.1389 39.984C24.8148 37.6598 22.4907 38.1172 20.3719 40.236L18.4118 42.1961ZM26.2896 45.9483L25.0762 47.1617L19.9706 42.0561L21.1466 40.88C22.9294 39.0972 24.6188 39.2372 26.2522 40.8707C28.0816 42.7001 27.8576 44.3802 26.2896 45.9483ZM28.9838 40.1552C30.5426 41.7139 32.232 41.7232 33.576 40.3792C34.8548 39.1004 34.7334 37.747 34.0334 36.8603L33.24 37.6537C33.8187 38.4564 33.5107 39.1938 32.96 39.7445C32.1853 40.5192 30.9999 40.5285 29.9545 39.5205L33.3707 36.1043L33.212 35.9456C31.7653 34.4989 30.0852 34.2935 28.7411 35.6376C27.5091 36.8697 27.6024 38.7738 28.9838 40.1552ZM31.9426 36.3936L29.4132 38.9231C28.7131 38.1111 28.6198 37.0283 29.3758 36.2723C30.1599 35.4883 31.1399 35.5909 31.9426 36.3936ZM32.0739 32.6035L36.5728 37.1024L37.3755 36.2997L34.734 33.6583C33.9873 32.9115 33.7913 31.8568 34.4913 31.1568C35.154 30.4941 35.9101 30.7274 36.7688 31.5861L39.4289 34.2463L40.2316 33.4436L37.5528 30.7648C36.8341 30.0461 36.6195 29.0287 37.3288 28.3193C38.0195 27.6286 38.7476 27.8526 39.5969 28.702L42.2851 31.3901L43.0878 30.5874L40.241 27.7406C39.0089 26.5086 37.7675 26.6112 36.8621 27.5166C36.2181 28.1606 36.0688 29.038 36.2834 29.8687C35.4247 29.5327 34.6314 29.7474 34.0433 30.3354C33.4553 30.9234 33.3153 31.6982 33.4833 32.4075L33.2313 32.1555L32.8766 31.8008L32.0739 32.6035ZM41.8636 27.2941C43.301 28.7315 45.1771 28.7781 46.4745 27.4807C47.7626 26.1927 47.7252 24.3072 46.2878 22.8698C44.8877 21.4698 42.9743 21.4044 41.6863 22.6925C40.3889 23.9899 40.4635 25.894 41.8636 27.2941ZM45.8491 26.8554C44.9904 27.7141 43.749 27.5181 42.6943 26.4633C41.6396 25.4086 41.4809 24.1672 42.321 23.3272C43.161 22.4871 44.4024 22.6458 45.4571 23.7005C46.5118 24.7553 46.7078 25.9967 45.8491 26.8554Z" fill="black"/>
</g>
<g opacity="0.1">
<path fill-rule="evenodd" clip-rule="evenodd" d="M10.5997 91.3055C4.74184 97.1634 4.74184 106.661 10.5997 112.519C16.4576 118.377 25.9551 118.377 31.8129 112.519L56.7031 87.6286C62.5609 81.7707 62.5609 72.2732 56.7031 66.4153C50.8452 60.5575 41.3477 60.5575 35.4899 66.4154L10.5997 91.3055ZM18.4118 98.2859L24.9455 104.82L27.1109 102.654C29.2857 100.479 29.127 98.0619 27.1389 96.0738C24.8148 93.7497 22.4907 94.207 20.3719 96.3258L18.4118 98.2859ZM26.2896 102.038L25.0762 103.251L19.9706 98.1459L21.1466 96.9698C22.9294 95.1871 24.6188 95.3271 26.2522 96.9605C28.0816 98.7899 27.8576 100.47 26.2896 102.038ZM28.9838 96.245C30.5426 97.8038 32.232 97.8131 33.576 96.469C34.8548 95.1903 34.7334 93.8369 34.0334 92.9502L33.24 93.7436C33.8187 94.5463 33.5107 95.2836 32.96 95.8343C32.1853 96.609 30.9999 96.6184 29.9545 95.6103L33.3707 92.1941L33.212 92.0355C31.7653 90.5887 30.0852 90.3834 28.7411 91.7274C27.5091 92.9595 27.6024 94.8636 28.9838 96.245ZM31.9426 92.4835L29.4132 95.013C28.7131 94.2009 28.6198 93.1182 29.3758 92.3621C30.1599 91.5781 31.1399 91.6808 31.9426 92.4835ZM32.0739 88.6934L36.5728 93.1923L37.3755 92.3896L34.734 89.7481C33.9873 89.0014 33.7913 87.9467 34.4913 87.2466C35.154 86.5839 35.9101 86.8173 36.7688 87.676L39.4289 90.3361L40.2316 89.5334L37.5528 86.8546C36.8341 86.1359 36.6195 85.1185 37.3288 84.4092C38.0195 83.7185 38.7476 83.9425 39.5969 84.7918L42.2851 87.48L43.0878 86.6773L40.241 83.8305C39.0089 82.5984 37.7675 82.7011 36.8621 83.6065C36.2181 84.2505 36.0688 85.1279 36.2834 85.9586C35.4247 85.6226 34.6314 85.8372 34.0433 86.4253C33.4553 87.0133 33.3153 87.788 33.4833 88.4974L33.2313 88.2454L32.8766 87.8907L32.0739 88.6934ZM41.8636 83.3839C43.301 84.8213 45.1771 84.868 46.4745 83.5706C47.7626 82.2825 47.7252 80.3971 46.2878 78.9597C44.8878 77.5596 42.9743 77.4943 41.6863 78.7823C40.3889 80.0797 40.4635 81.9838 41.8636 83.3839ZM45.8491 82.9452C44.9904 83.8039 43.749 83.6079 42.6943 82.5532C41.6396 81.4985 41.4809 80.2571 42.321 79.417C43.161 78.577 44.4024 78.7357 45.4571 79.7904C46.5118 80.8451 46.7078 82.0865 45.8491 82.9452Z" fill="black"/>
</g>
<g opacity="0.1">
<path fill-rule="evenodd" clip-rule="evenodd" d="M10.5997 147.399C4.74184 153.257 4.74184 162.755 10.5997 168.612C16.4576 174.47 25.9551 174.47 31.8129 168.612L56.7031 143.722C62.5609 137.864 62.5609 128.367 56.7031 122.509C50.8452 116.651 41.3477 116.651 35.4899 122.509L10.5997 147.399ZM18.4118 154.38L24.9455 160.913L27.1109 158.748C29.2857 156.573 29.127 154.156 27.1389 152.168C24.8148 149.843 22.4907 150.301 20.3719 152.42L18.4118 154.38ZM26.2896 158.132L25.0762 159.345L19.9706 154.24L21.1466 153.064C22.9294 151.281 24.6188 151.421 26.2522 153.054C28.0816 154.884 27.8576 156.564 26.2896 158.132ZM28.9838 152.339C30.5426 153.898 32.232 153.907 33.576 152.563C34.8548 151.284 34.7334 149.931 34.0334 149.044L33.24 149.837C33.8187 150.64 33.5107 151.377 32.96 151.928C32.1853 152.703 30.9999 152.712 29.9545 151.704L33.3707 148.288L33.212 148.129C31.7653 146.682 30.0852 146.477 28.7411 147.821C27.5091 149.053 27.6024 150.957 28.9838 152.339ZM31.9426 148.577L29.4132 151.107C28.7131 150.295 28.6198 149.212 29.3758 148.456C30.1599 147.672 31.1399 147.775 31.9426 148.577ZM32.0739 144.787L36.5728 149.286L37.3755 148.483L34.734 145.842C33.9873 145.095 33.7913 144.04 34.4913 143.34C35.154 142.678 35.9101 142.911 36.7688 143.77L39.4289 146.43L40.2316 145.627L37.5528 142.948C36.8341 142.23 36.6195 141.212 37.3288 140.503C38.0195 139.812 38.7476 140.036 39.5969 140.886L42.2851 143.574L43.0878 142.771L40.241 139.924C39.0089 138.692 37.7675 138.795 36.8621 139.7C36.2181 140.344 36.0688 141.222 36.2834 142.052C35.4247 141.716 34.6314 141.931 34.0433 142.519C33.4553 143.107 33.3153 143.882 33.4833 144.591L33.2313 144.339L32.8766 143.984L32.0739 144.787ZM41.8636 139.478C43.301 140.915 45.1771 140.962 46.4745 139.664C47.7626 138.376 47.7252 136.491 46.2878 135.053C44.8878 133.653 42.9743 133.588 41.6863 134.876C40.3889 136.173 40.4635 138.078 41.8636 139.478ZM45.8491 139.039C44.9904 139.898 43.749 139.702 42.6943 138.647C41.6396 137.592 41.4809 136.351 42.321 135.511C43.161 134.671 44.4024 134.829 45.4571 135.884C46.5118 136.939 46.7078 138.18 45.8491 139.039Z" fill="black"/>
</g>
<g opacity="0.1">
<path fill-rule="evenodd" clip-rule="evenodd" d="M10.5997 203.489C4.74184 209.347 4.74184 218.844 10.5997 224.702C16.4576 230.56 25.9551 230.56 31.8129 224.702L56.7031 199.812C62.5609 193.954 62.5609 184.457 56.7031 178.599C50.8452 172.741 41.3477 172.741 35.4899 178.599L10.5997 203.489ZM18.4118 210.47L24.9455 217.003L27.1109 214.838C29.2857 212.663 29.127 210.245 27.1389 208.257C24.8148 205.933 22.4907 206.391 20.3719 208.509L18.4118 210.47ZM26.2896 214.222L25.0762 215.435L19.9706 210.329L21.1466 209.153C22.9294 207.371 24.6188 207.511 26.2522 209.144C28.0816 210.974 27.8576 212.654 26.2896 214.222ZM28.9838 208.429C30.5426 209.987 32.232 209.997 33.576 208.653C34.8548 207.374 34.7334 206.02 34.0334 205.134L33.24 205.927C33.8187 206.73 33.5107 207.467 32.96 208.018C32.1853 208.793 30.9999 208.802 29.9545 207.794L33.3707 204.378L33.212 204.219C31.7653 202.772 30.0852 202.567 28.7411 203.911C27.5091 205.143 27.6024 207.047 28.9838 208.429ZM31.9426 204.667L29.4132 207.197C28.7131 206.385 28.6198 205.302 29.3758 204.546C30.1599 203.762 31.1399 203.864 31.9426 204.667ZM32.0739 200.877L36.5728 205.376L37.3755 204.573L34.734 201.932C33.9873 201.185 33.7913 200.13 34.4913 199.43C35.154 198.768 35.9101 199.001 36.7688 199.86L39.4289 202.52L40.2316 201.717L37.5528 199.038C36.8341 198.32 36.6195 197.302 37.3288 196.593C38.0195 195.902 38.7476 196.126 39.5969 196.975L42.2851 199.664L43.0878 198.861L40.241 196.014C39.0089 194.782 37.7675 194.885 36.8621 195.79C36.2181 196.434 36.0688 197.311 36.2834 198.142C35.4247 197.806 34.6314 198.021 34.0433 198.609C33.4553 199.197 33.3153 199.972 33.4833 200.681L33.2313 200.429L32.8766 200.074L32.0739 200.877ZM41.8636 195.567C43.301 197.005 45.1771 197.052 46.4745 195.754C47.7626 194.466 47.7252 192.581 46.2878 191.143C44.8878 189.743 42.9743 189.678 41.6863 190.966C40.3889 192.263 40.4635 194.167 41.8636 195.567ZM45.8491 195.129C44.9904 195.988 43.749 195.792 42.6943 194.737C41.6396 193.682 41.4809 192.441 42.321 191.601C43.161 190.761 44.4024 190.919 45.4571 191.974C46.5118 193.029 46.7078 194.27 45.8491 195.129Z" fill="black"/>
</g>
<g opacity="0.1">
<path fill-rule="evenodd" clip-rule="evenodd" d="M10.5997 259.583C4.74184 265.441 4.74184 274.938 10.5997 280.796C16.4576 286.654 25.9551 286.654 31.8129 280.796L56.7031 255.906C62.5609 250.048 62.5609 240.551 56.7031 234.693C50.8452 228.835 41.3477 228.835 35.4899 234.693L10.5997 259.583ZM18.4118 266.563L24.9455 273.097L27.1109 270.931C29.2857 268.757 29.127 266.339 27.1389 264.351C24.8148 262.027 22.4907 262.484 20.3719 264.603L18.4118 266.563ZM26.2896 270.315L25.0762 271.529L19.9706 266.423L21.1466 265.247C22.9294 263.464 24.6188 263.604 26.2522 265.238C28.0816 267.067 27.8576 268.747 26.2896 270.315ZM28.9838 264.522C30.5426 266.081 32.232 266.09 33.576 264.746C34.8548 263.468 34.7334 262.114 34.0334 261.228L33.24 262.021C33.8187 262.824 33.5107 263.561 32.96 264.112C32.1853 264.886 30.9999 264.896 29.9545 263.888L33.3707 260.471L33.212 260.313C31.7653 258.866 30.0852 258.661 28.7411 260.005C27.5091 261.237 27.6024 263.141 28.9838 264.522ZM31.9426 260.761L29.4132 263.29C28.7131 262.478 28.6198 261.396 29.3758 260.64C30.1599 259.855 31.1399 259.958 31.9426 260.761ZM32.0739 256.971L36.5728 261.47L37.3755 260.667L34.734 258.025C33.9873 257.279 33.7913 256.224 34.4913 255.524C35.154 254.861 35.9101 255.095 36.7688 255.953L39.4289 258.613L40.2316 257.811L37.5528 255.132C36.8341 254.413 36.6195 253.396 37.3288 252.687C38.0195 251.996 38.7476 252.22 39.5969 253.069L42.2851 255.757L43.0878 254.955L40.241 252.108C39.0089 250.876 37.7675 250.978 36.8621 251.884C36.2181 252.528 36.0688 253.405 36.2834 254.236C35.4247 253.9 34.6314 254.115 34.0433 254.703C33.4553 255.291 33.3153 256.065 33.4833 256.775L33.2313 256.523L32.8766 256.168L32.0739 256.971ZM41.8636 251.661C43.301 253.099 45.1771 253.145 46.4745 251.848C47.7626 250.56 47.7252 248.674 46.2878 247.237C44.8877 245.837 42.9743 245.772 41.6863 247.06C40.3889 248.357 40.4635 250.261 41.8636 251.661ZM45.8491 251.223C44.9904 252.081 43.749 251.885 42.6943 250.831C41.6396 249.776 41.4809 248.534 42.321 247.694C43.161 246.854 44.4024 247.013 45.4571 248.068C46.5118 249.122 46.7078 250.364 45.8491 251.223Z" fill="black"/>
</g>
<g opacity="0.1">
<path fill-rule="evenodd" clip-rule="evenodd" d="M10.5997 315.673C4.74184 321.531 4.74184 331.028 10.5997 336.886C16.4576 342.744 25.9551 342.744 31.8129 336.886L56.7031 311.996C62.5609 306.138 62.5609 296.64 56.7031 290.783C50.8452 284.925 41.3477 284.925 35.4899 290.783L10.5997 315.673ZM18.4118 322.653L24.9455 329.187L27.1109 327.021C29.2857 324.847 29.127 322.429 27.1389 320.441C24.8148 318.117 22.4907 318.574 20.3719 320.693L18.4118 322.653ZM26.2896 326.405L25.0762 327.619L19.9706 322.513L21.1466 321.337C22.9294 319.554 24.6188 319.694 26.2522 321.328C28.0816 323.157 27.8576 324.837 26.2896 326.405ZM28.9838 320.612C30.5426 322.171 32.232 322.18 33.576 320.836C34.8548 319.557 34.7334 318.204 34.0334 317.317L33.24 318.111C33.8187 318.913 33.5107 319.651 32.96 320.202C32.1853 320.976 30.9999 320.986 29.9545 319.978L33.3707 316.561L33.212 316.403C31.7653 314.956 30.0852 314.751 28.7411 316.095C27.5091 317.327 27.6024 319.231 28.9838 320.612ZM31.9426 316.851L29.4132 319.38C28.7131 318.568 28.6198 317.485 29.3758 316.729C30.1599 315.945 31.1399 316.048 31.9426 316.851ZM32.0739 313.061L36.5728 317.559L37.3755 316.757L34.734 314.115C33.9873 313.369 33.7913 312.314 34.4913 311.614C35.154 310.951 35.9101 311.184 36.7688 312.043L39.4289 314.703L40.2316 313.901L37.5528 311.222C36.8341 310.503 36.6195 309.486 37.3288 308.776C38.0195 308.086 38.7476 308.31 39.5969 309.159L42.2851 311.847L43.0878 311.044L40.241 308.198C39.0089 306.966 37.7675 307.068 36.8621 307.974C36.2181 308.618 36.0688 309.495 36.2834 310.326C35.4247 309.99 34.6314 310.204 34.0433 310.792C33.4553 311.38 33.3153 312.155 33.4833 312.865L33.2313 312.613L32.8766 312.258L32.0739 313.061ZM41.8636 307.751C43.301 309.188 45.1771 309.235 46.4745 307.938C47.7626 306.65 47.7252 304.764 46.2878 303.327C44.8878 301.927 42.9743 301.861 41.6863 303.15C40.3889 304.447 40.4635 306.351 41.8636 307.751ZM45.8491 307.312C44.9904 308.171 43.749 307.975 42.6943 306.92C41.6396 305.866 41.4809 304.624 42.321 303.784C43.161 302.944 44.4024 303.103 45.4571 304.158C46.5118 305.212 46.7078 306.454 45.8491 307.312Z" fill="black"/>
</g>
<g opacity="0.1">
<path fill-rule="evenodd" clip-rule="evenodd" d="M66.392 35.2157C60.5341 41.0735 60.5341 50.571 66.392 56.4289C72.2499 62.2867 81.7473 62.2867 87.6052 56.4289L112 32.0337C117.858 26.1758 117.858 16.6783 112 10.8205C106.143 4.96262 96.645 4.96262 90.7872 10.8205L66.392 35.2157ZM74.2041 42.1961L80.7378 48.7297L82.9032 46.5643C85.078 44.3895 84.9193 41.9721 82.9312 39.984C80.6071 37.6598 78.283 38.1172 76.1642 40.236L74.2041 42.1961ZM82.0818 45.9483L80.8685 47.1617L75.7629 42.0561L76.9389 40.88C78.7217 39.0972 80.4111 39.2372 82.0445 40.8707C83.8739 42.7001 83.6499 44.3802 82.0818 45.9483ZM84.7761 40.1552C86.3349 41.7139 88.0243 41.7232 89.3683 40.3792C90.6471 39.1004 90.5257 37.747 89.8257 36.8603L89.0323 37.6537C89.611 38.4564 89.303 39.1938 88.7523 39.7445C87.9776 40.5192 86.7922 40.5285 85.7468 39.5205L89.163 36.1043L89.0043 35.9456C87.5576 34.4989 85.8775 34.2935 84.5334 35.6376C83.3014 36.8697 83.3947 38.7738 84.7761 40.1552ZM87.7349 36.3936L85.2055 38.9231C84.5054 38.1111 84.4121 37.0283 85.1681 36.2723C85.9522 35.4883 86.9322 35.5909 87.7349 36.3936ZM87.8662 32.6035L92.3651 37.1024L93.1678 36.2997L90.5263 33.6583C89.7796 32.9115 89.5836 31.8568 90.2836 31.1568C90.9463 30.4941 91.7024 30.7274 92.5611 31.5861L95.2212 34.2463L96.0239 33.4436L93.3451 30.7648C92.6264 30.0461 92.4118 29.0287 93.1211 28.3193C93.8118 27.6286 94.5399 27.8526 95.3892 28.702L98.0774 31.3901L98.8801 30.5874L96.0333 27.7406C94.8012 26.5086 93.5598 26.6112 92.6544 27.5166C92.0104 28.1606 91.8611 29.038 92.0757 29.8687C91.217 29.5327 90.4236 29.7474 89.8356 30.3354C89.2476 30.9234 89.1076 31.6982 89.2756 32.4075L89.0236 32.1555L88.6689 31.8008L87.8662 32.6035ZM97.6559 27.2941C99.0933 28.7315 100.969 28.7781 102.267 27.4807C103.555 26.1927 103.518 24.3072 102.08 22.8698C100.68 21.4698 98.7666 21.4044 97.4786 22.6925C96.1812 23.9899 96.2558 25.894 97.6559 27.2941ZM101.641 26.8554C100.783 27.7141 99.5413 27.5181 98.4866 26.4633C97.4319 25.4086 97.2732 24.1672 98.1133 23.3272C98.9533 22.4871 100.195 22.6458 101.249 23.7005C102.304 24.7553 102.5 25.9967 101.641 26.8554Z" fill="black"/>
</g>
<g opacity="0.1">
<path fill-rule="evenodd" clip-rule="evenodd" d="M66.392 91.3055C60.5341 97.1634 60.5341 106.661 66.392 112.519C72.2499 118.377 81.7473 118.377 87.6052 112.519L112.495 87.6286C118.353 81.7707 118.353 72.2732 112.495 66.4153C106.638 60.5575 97.14 60.5575 91.2822 66.4154L66.392 91.3055ZM74.2041 98.2859L80.7378 104.82L82.9032 102.654C85.078 100.479 84.9193 98.0619 82.9312 96.0738C80.6071 93.7497 78.283 94.207 76.1642 96.3258L74.2041 98.2859ZM82.0818 102.038L80.8685 103.251L75.7629 98.1459L76.9389 96.9698C78.7217 95.1871 80.4111 95.3271 82.0445 96.9605C83.8739 98.7899 83.6499 100.47 82.0818 102.038ZM84.7761 96.245C86.3349 97.8038 88.0243 97.8131 89.3683 96.469C90.6471 95.1903 90.5257 93.8369 89.8257 92.9502L89.0323 93.7436C89.611 94.5463 89.303 95.2836 88.7523 95.8343C87.9776 96.609 86.7922 96.6184 85.7468 95.6103L89.163 92.1941L89.0043 92.0355C87.5576 90.5887 85.8775 90.3834 84.5334 91.7274C83.3014 92.9595 83.3947 94.8636 84.7761 96.245ZM87.7349 92.4835L85.2055 95.013C84.5054 94.2009 84.4121 93.1182 85.1681 92.3621C85.9522 91.5781 86.9322 91.6808 87.7349 92.4835ZM87.8662 88.6934L92.3651 93.1923L93.1678 92.3896L90.5263 89.7481C89.7796 89.0014 89.5836 87.9467 90.2836 87.2466C90.9463 86.5839 91.7024 86.8173 92.5611 87.676L95.2212 90.3361L96.0239 89.5334L93.3451 86.8546C92.6264 86.1359 92.4117 85.1185 93.1211 84.4092C93.8118 83.7185 94.5399 83.9425 95.3892 84.7918L98.0774 87.48L98.8801 86.6773L96.0333 83.8305C94.8012 82.5984 93.5598 82.7011 92.6544 83.6065C92.0104 84.2505 91.8611 85.1279 92.0757 85.9586C91.217 85.6226 90.4236 85.8372 89.8356 86.4253C89.2476 87.0133 89.1076 87.788 89.2756 88.4974L89.0236 88.2454L88.6689 87.8907L87.8662 88.6934ZM97.6559 83.3839C99.0933 84.8213 100.969 84.868 102.267 83.5706C103.555 82.2825 103.518 80.3971 102.08 78.9597C100.68 77.5596 98.7666 77.4943 97.4786 78.7823C96.1812 80.0797 96.2558 81.9838 97.6559 83.3839ZM101.641 82.9452C100.783 83.8039 99.5413 83.6079 98.4866 82.5532C97.4319 81.4985 97.2732 80.2571 98.1133 79.417C98.9533 78.577 100.195 78.7357 101.249 79.7904C102.304 80.8451 102.5 82.0865 101.641 82.9452Z" fill="black"/>
</g>
<g opacity="0.1">
<path fill-rule="evenodd" clip-rule="evenodd" d="M66.392 147.399C60.5341 153.257 60.5341 162.755 66.392 168.612C72.2499 174.47 81.7473 174.47 87.6052 168.612L112.495 143.722C118.353 137.864 118.353 128.367 112.495 122.509C106.638 116.651 97.14 116.651 91.2822 122.509L66.392 147.399ZM74.2041 154.38L80.7378 160.913L82.9032 158.748C85.078 156.573 84.9193 154.156 82.9312 152.168C80.6071 149.843 78.283 150.301 76.1642 152.42L74.2041 154.38ZM82.0818 158.132L80.8685 159.345L75.7629 154.24L76.9389 153.064C78.7217 151.281 80.4111 151.421 82.0445 153.054C83.8739 154.884 83.6499 156.564 82.0818 158.132ZM84.7761 152.339C86.3349 153.898 88.0243 153.907 89.3683 152.563C90.6471 151.284 90.5257 149.931 89.8257 149.044L89.0323 149.837C89.611 150.64 89.303 151.377 88.7523 151.928C87.9776 152.703 86.7922 152.712 85.7468 151.704L89.163 148.288L89.0043 148.129C87.5576 146.682 85.8775 146.477 84.5334 147.821C83.3014 149.053 83.3947 150.957 84.7761 152.339ZM87.7349 148.577L85.2055 151.107C84.5054 150.295 84.4121 149.212 85.1681 148.456C85.9522 147.672 86.9322 147.775 87.7349 148.577ZM87.8662 144.787L92.3651 149.286L93.1678 148.483L90.5263 145.842C89.7796 145.095 89.5836 144.04 90.2836 143.34C90.9463 142.678 91.7024 142.911 92.5611 143.77L95.2212 146.43L96.0239 145.627L93.3451 142.948C92.6264 142.23 92.4118 141.212 93.1211 140.503C93.8118 139.812 94.5399 140.036 95.3892 140.886L98.0774 143.574L98.8801 142.771L96.0333 139.924C94.8012 138.692 93.5598 138.795 92.6544 139.7C92.0104 140.344 91.8611 141.222 92.0757 142.052C91.217 141.716 90.4237 141.931 89.8356 142.519C89.2476 143.107 89.1076 143.882 89.2756 144.591L89.0236 144.339L88.6689 143.984L87.8662 144.787ZM97.6559 139.478C99.0933 140.915 100.969 140.962 102.267 139.664C103.555 138.376 103.518 136.491 102.08 135.053C100.68 133.653 98.7666 133.588 97.4786 134.876C96.1812 136.173 96.2558 138.078 97.6559 139.478ZM101.641 139.039C100.783 139.898 99.5413 139.702 98.4866 138.647C97.4319 137.592 97.2732 136.351 98.1133 135.511C98.9533 134.671 100.195 134.829 101.249 135.884C102.304 136.939 102.5 138.18 101.641 139.039Z" fill="black"/>
</g>
<g opacity="0.1">
<path fill-rule="evenodd" clip-rule="evenodd" d="M66.392 203.489C60.5341 209.347 60.5341 218.844 66.392 224.702C72.2499 230.56 81.7473 230.56 87.6052 224.702L112.495 199.812C118.353 193.954 118.353 184.457 112.495 178.599C106.638 172.741 97.14 172.741 91.2822 178.599L66.392 203.489ZM74.2041 210.47L80.7378 217.003L82.9032 214.838C85.078 212.663 84.9193 210.245 82.9312 208.257C80.6071 205.933 78.283 206.391 76.1642 208.509L74.2041 210.47ZM82.0818 214.222L80.8685 215.435L75.7629 210.329L76.9389 209.153C78.7217 207.371 80.4111 207.511 82.0445 209.144C83.8739 210.974 83.6499 212.654 82.0818 214.222ZM84.7761 208.429C86.3349 209.987 88.0243 209.997 89.3683 208.653C90.6471 207.374 90.5257 206.02 89.8257 205.134L89.0323 205.927C89.611 206.73 89.303 207.467 88.7523 208.018C87.9776 208.793 86.7922 208.802 85.7468 207.794L89.163 204.378L89.0043 204.219C87.5576 202.772 85.8775 202.567 84.5334 203.911C83.3014 205.143 83.3947 207.047 84.7761 208.429ZM87.7349 204.667L85.2055 207.197C84.5054 206.385 84.4121 205.302 85.1681 204.546C85.9522 203.762 86.9322 203.864 87.7349 204.667ZM87.8662 200.877L92.3651 205.376L93.1678 204.573L90.5263 201.932C89.7796 201.185 89.5836 200.13 90.2836 199.43C90.9463 198.768 91.7024 199.001 92.5611 199.86L95.2212 202.52L96.0239 201.717L93.3451 199.038C92.6264 198.32 92.4118 197.302 93.1211 196.593C93.8118 195.902 94.5399 196.126 95.3892 196.975L98.0774 199.664L98.8801 198.861L96.0333 196.014C94.8012 194.782 93.5598 194.885 92.6544 195.79C92.0104 196.434 91.8611 197.311 92.0757 198.142C91.217 197.806 90.4237 198.021 89.8356 198.609C89.2476 199.197 89.1076 199.972 89.2756 200.681L89.0236 200.429L88.6689 200.074L87.8662 200.877ZM97.6559 195.567C99.0933 197.005 100.969 197.052 102.267 195.754C103.555 194.466 103.518 192.581 102.08 191.143C100.68 189.743 98.7666 189.678 97.4786 190.966C96.1812 192.263 96.2558 194.167 97.6559 195.567ZM101.641 195.129C100.783 195.988 99.5413 195.792 98.4866 194.737C97.4319 193.682 97.2732 192.441 98.1133 191.601C98.9533 190.761 100.195 190.919 101.249 191.974C102.304 193.029 102.5 194.27 101.641 195.129Z" fill="black"/>
</g>
<g opacity="0.1">
<path fill-rule="evenodd" clip-rule="evenodd" d="M66.392 259.583C60.5341 265.441 60.5341 274.938 66.392 280.796C72.2499 286.654 81.7473 286.654 87.6052 280.796L112.495 255.906C118.353 250.048 118.353 240.551 112.495 234.693C106.638 228.835 97.14 228.835 91.2822 234.693L66.392 259.583ZM74.2041 266.563L80.7378 273.097L82.9032 270.931C85.078 268.757 84.9193 266.339 82.9312 264.351C80.6071 262.027 78.283 262.484 76.1642 264.603L74.2041 266.563ZM82.0818 270.315L80.8685 271.529L75.7629 266.423L76.9389 265.247C78.7217 263.464 80.4111 263.604 82.0445 265.238C83.8739 267.067 83.6499 268.747 82.0818 270.315ZM84.7761 264.522C86.3349 266.081 88.0243 266.09 89.3683 264.746C90.6471 263.468 90.5257 262.114 89.8257 261.228L89.0323 262.021C89.611 262.824 89.303 263.561 88.7523 264.112C87.9776 264.886 86.7922 264.896 85.7468 263.888L89.163 260.471L89.0043 260.313C87.5576 258.866 85.8775 258.661 84.5334 260.005C83.3014 261.237 83.3947 263.141 84.7761 264.522ZM87.7349 260.761L85.2055 263.29C84.5054 262.478 84.4121 261.396 85.1681 260.64C85.9522 259.855 86.9322 259.958 87.7349 260.761ZM87.8662 256.971L92.3651 261.47L93.1678 260.667L90.5263 258.025C89.7796 257.279 89.5836 256.224 90.2836 255.524C90.9463 254.861 91.7024 255.095 92.5611 255.953L95.2212 258.613L96.0239 257.811L93.3451 255.132C92.6264 254.413 92.4118 253.396 93.1211 252.687C93.8118 251.996 94.5399 252.22 95.3892 253.069L98.0774 255.757L98.8801 254.955L96.0333 252.108C94.8012 250.876 93.5598 250.978 92.6544 251.884C92.0104 252.528 91.8611 253.405 92.0757 254.236C91.217 253.9 90.4236 254.115 89.8356 254.703C89.2476 255.291 89.1076 256.065 89.2756 256.775L89.0236 256.523L88.6689 256.168L87.8662 256.971ZM97.6559 251.661C99.0933 253.099 100.969 253.145 102.267 251.848C103.555 250.56 103.518 248.674 102.08 247.237C100.68 245.837 98.7666 245.772 97.4786 247.06C96.1812 248.357 96.2558 250.261 97.6559 251.661ZM101.641 251.223C100.783 252.081 99.5413 251.885 98.4866 250.831C97.4319 249.776 97.2732 248.534 98.1133 247.694C98.9533 246.854 100.195 247.013 101.249 248.068C102.304 249.122 102.5 250.364 101.641 251.223Z" fill="black"/>
</g>
<g opacity="0.1">
<path fill-rule="evenodd" clip-rule="evenodd" d="M66.392 315.673C60.5341 321.531 60.5341 331.028 66.392 336.886C72.2499 342.744 81.7473 342.744 87.6052 336.886L112.495 311.996C118.353 306.138 118.353 296.64 112.495 290.783C106.638 284.925 97.14 284.925 91.2822 290.783L66.392 315.673ZM74.2041 322.653L80.7378 329.187L82.9032 327.021C85.078 324.847 84.9193 322.429 82.9312 320.441C80.6071 318.117 78.283 318.574 76.1642 320.693L74.2041 322.653ZM82.0818 326.405L80.8685 327.619L75.7629 322.513L76.9389 321.337C78.7217 319.554 80.4111 319.694 82.0445 321.328C83.8739 323.157 83.6499 324.837 82.0818 326.405ZM84.7761 320.612C86.3349 322.171 88.0243 322.18 89.3683 320.836C90.6471 319.557 90.5257 318.204 89.8257 317.317L89.0323 318.111C89.611 318.913 89.303 319.651 88.7523 320.202C87.9776 320.976 86.7922 320.986 85.7468 319.978L89.163 316.561L89.0043 316.403C87.5576 314.956 85.8775 314.751 84.5334 316.095C83.3014 317.327 83.3947 319.231 84.7761 320.612ZM87.7349 316.851L85.2055 319.38C84.5054 318.568 84.4121 317.485 85.1681 316.729C85.9522 315.945 86.9322 316.048 87.7349 316.851ZM87.8662 313.061L92.3651 317.559L93.1678 316.757L90.5263 314.115C89.7796 313.369 89.5836 312.314 90.2836 311.614C90.9463 310.951 91.7024 311.184 92.5611 312.043L95.2212 314.703L96.0239 313.901L93.3451 311.222C92.6264 310.503 92.4118 309.486 93.1211 308.776C93.8118 308.086 94.5399 308.31 95.3892 309.159L98.0774 311.847L98.8801 311.044L96.0333 308.198C94.8012 306.966 93.5598 307.068 92.6544 307.974C92.0104 308.618 91.8611 309.495 92.0757 310.326C91.217 309.99 90.4237 310.204 89.8356 310.792C89.2476 311.38 89.1076 312.155 89.2756 312.865L89.0236 312.613L88.6689 312.258L87.8662 313.061ZM97.6559 307.751C99.0933 309.188 100.969 309.235 102.267 307.938C103.555 306.65 103.518 304.764 102.08 303.327C100.68 301.927 98.7666 301.861 97.4786 303.15C96.1812 304.447 96.2558 306.351 97.6559 307.751ZM101.641 307.312C100.783 308.171 99.5413 307.975 98.4866 306.92C97.4319 305.866 97.2732 304.624 98.1133 303.784C98.9533 302.944 100.195 303.103 101.249 304.158C102.304 305.212 102.5 306.454 101.641 307.312Z" fill="black"/>
</g>
<g opacity="0.1">
<path fill-rule="evenodd" clip-rule="evenodd" d="M122.184 35.2157C116.326 41.0735 116.326 50.571 122.184 56.4289C128.042 62.2867 137.54 62.2867 143.398 56.4289L167.793 32.0337C173.651 26.1758 173.651 16.6783 167.793 10.8205C161.935 4.96262 152.437 4.96262 146.579 10.8205L122.184 35.2157ZM129.996 42.1961L136.53 48.7297L138.696 46.5643C140.87 44.3895 140.712 41.9721 138.724 39.984C136.399 37.6598 134.075 38.1172 131.957 40.236L129.996 42.1961ZM137.874 45.9483L136.661 47.1617L131.555 42.0561L132.731 40.88C134.514 39.0972 136.203 39.2372 137.837 40.8707C139.666 42.7001 139.442 44.3802 137.874 45.9483ZM140.568 40.1552C142.127 41.7139 143.817 41.7232 145.161 40.3792C146.439 39.1004 146.318 37.747 145.618 36.8603L144.825 37.6537C145.403 38.4564 145.095 39.1938 144.545 39.7445C143.77 40.5192 142.585 40.5285 141.539 39.5205L144.955 36.1043L144.797 35.9456C143.35 34.4989 141.67 34.2935 140.326 35.6376C139.094 36.8697 139.187 38.7738 140.568 40.1552ZM143.527 36.3936L140.998 38.9231C140.298 38.1111 140.204 37.0283 140.96 36.2723C141.744 35.4883 142.725 35.5909 143.527 36.3936ZM143.658 32.6035L148.157 37.1024L148.96 36.2997L146.319 33.6583C145.572 32.9115 145.376 31.8568 146.076 31.1568C146.739 30.4941 147.495 30.7274 148.353 31.5861L151.014 34.2463L151.816 33.4436L149.137 30.7648C148.419 30.0461 148.204 29.0287 148.913 28.3193C149.604 27.6286 150.332 27.8526 151.182 28.702L153.87 31.3901L154.672 30.5874L151.826 27.7406C150.594 26.5086 149.352 26.6112 148.447 27.5166C147.803 28.1606 147.653 29.038 147.868 29.8687C147.009 29.5327 146.216 29.7474 145.628 30.3354C145.04 30.9234 144.9 31.6982 145.068 32.4075L144.816 32.1555L144.461 31.8008L143.658 32.6035ZM153.448 27.2941C154.886 28.7315 156.762 28.7781 158.059 27.4807C159.347 26.1927 159.31 24.3072 157.872 22.8698C156.472 21.4698 154.559 21.4044 153.271 22.6925C151.973 23.9899 152.048 25.894 153.448 27.2941ZM157.434 26.8554C156.575 27.7141 155.334 27.5181 154.279 26.4633C153.224 25.4086 153.066 24.1672 153.906 23.3272C154.746 22.4871 155.987 22.6458 157.042 23.7005C158.096 24.7553 158.292 25.9967 157.434 26.8554Z" fill="black"/>
</g>
<g opacity="0.1">
<path fill-rule="evenodd" clip-rule="evenodd" d="M122.184 91.3055C116.326 97.1634 116.326 106.661 122.184 112.519C128.042 118.377 137.54 118.377 143.398 112.519L168.288 87.6286C174.146 81.7707 174.146 72.2732 168.288 66.4153C162.43 60.5575 152.932 60.5575 147.074 66.4154L122.184 91.3055ZM129.996 98.2859L136.53 104.82L138.696 102.654C140.87 100.479 140.712 98.0619 138.724 96.0738C136.399 93.7497 134.075 94.207 131.957 96.3258L129.996 98.2859ZM137.874 102.038L136.661 103.251L131.555 98.1459L132.731 96.9698C134.514 95.1871 136.203 95.3271 137.837 96.9605C139.666 98.7899 139.442 100.47 137.874 102.038ZM140.568 96.245C142.127 97.8038 143.817 97.8131 145.161 96.469C146.439 95.1903 146.318 93.8369 145.618 92.9502L144.825 93.7436C145.403 94.5463 145.095 95.2836 144.545 95.8343C143.77 96.609 142.585 96.6184 141.539 95.6103L144.955 92.1941L144.797 92.0355C143.35 90.5887 141.67 90.3834 140.326 91.7274C139.094 92.9595 139.187 94.8636 140.568 96.245ZM143.527 92.4835L140.998 95.013C140.298 94.2009 140.204 93.1182 140.96 92.3621C141.744 91.5781 142.725 91.6808 143.527 92.4835ZM143.658 88.6934L148.157 93.1923L148.96 92.3896L146.319 89.7481C145.572 89.0014 145.376 87.9467 146.076 87.2466C146.739 86.5839 147.495 86.8173 148.353 87.676L151.014 90.3361L151.816 89.5334L149.137 86.8546C148.419 86.1359 148.204 85.1185 148.913 84.4092C149.604 83.7185 150.332 83.9425 151.182 84.7918L153.87 87.48L154.672 86.6773L151.826 83.8305C150.594 82.5984 149.352 82.7011 148.447 83.6065C147.803 84.2505 147.653 85.1279 147.868 85.9586C147.009 85.6226 146.216 85.8372 145.628 86.4253C145.04 87.0133 144.9 87.788 145.068 88.4974L144.816 88.2454L144.461 87.8907L143.658 88.6934ZM153.448 83.3839C154.886 84.8213 156.762 84.868 158.059 83.5706C159.347 82.2825 159.31 80.3971 157.872 78.9597C156.472 77.5596 154.559 77.4943 153.271 78.7823C151.973 80.0797 152.048 81.9838 153.448 83.3839ZM157.434 82.9452C156.575 83.8039 155.334 83.6079 154.279 82.5532C153.224 81.4985 153.066 80.2571 153.906 79.417C154.746 78.577 155.987 78.7357 157.042 79.7904C158.096 80.8451 158.292 82.0865 157.434 82.9452Z" fill="black"/>
</g>
<g opacity="0.1">
<path fill-rule="evenodd" clip-rule="evenodd" d="M122.184 147.399C116.326 153.257 116.326 162.755 122.184 168.612C128.042 174.47 137.54 174.47 143.398 168.612L168.288 143.722C174.146 137.864 174.146 128.367 168.288 122.509C162.43 116.651 152.932 116.651 147.074 122.509L122.184 147.399ZM129.996 154.38L136.53 160.913L138.696 158.748C140.87 156.573 140.712 154.156 138.724 152.168C136.399 149.843 134.075 150.301 131.957 152.42L129.996 154.38ZM137.874 158.132L136.661 159.345L131.555 154.24L132.731 153.064C134.514 151.281 136.203 151.421 137.837 153.054C139.666 154.884 139.442 156.564 137.874 158.132ZM140.568 152.339C142.127 153.898 143.817 153.907 145.161 152.563C146.439 151.284 146.318 149.931 145.618 149.044L144.825 149.837C145.403 150.64 145.095 151.377 144.545 151.928C143.77 152.703 142.585 152.712 141.539 151.704L144.955 148.288L144.797 148.129C143.35 146.682 141.67 146.477 140.326 147.821C139.094 149.053 139.187 150.957 140.568 152.339ZM143.527 148.577L140.998 151.107C140.298 150.295 140.204 149.212 140.96 148.456C141.744 147.672 142.725 147.775 143.527 148.577ZM143.658 144.787L148.157 149.286L148.96 148.483L146.319 145.842C145.572 145.095 145.376 144.04 146.076 143.34C146.739 142.678 147.495 142.911 148.353 143.77L151.014 146.43L151.816 145.627L149.137 142.948C148.419 142.23 148.204 141.212 148.913 140.503C149.604 139.812 150.332 140.036 151.182 140.886L153.87 143.574L154.672 142.771L151.826 139.924C150.594 138.692 149.352 138.795 148.447 139.7C147.803 140.344 147.653 141.222 147.868 142.052C147.009 141.716 146.216 141.931 145.628 142.519C145.04 143.107 144.9 143.882 145.068 144.591L144.816 144.339L144.461 143.984L143.658 144.787ZM153.448 139.478C154.886 140.915 156.762 140.962 158.059 139.664C159.347 138.376 159.31 136.491 157.872 135.053C156.472 133.653 154.559 133.588 153.271 134.876C151.973 136.173 152.048 138.078 153.448 139.478ZM157.434 139.039C156.575 139.898 155.334 139.702 154.279 138.647C153.224 137.592 153.066 136.351 153.906 135.511C154.746 134.671 155.987 134.829 157.042 135.884C158.096 136.939 158.292 138.18 157.434 139.039Z" fill="black"/>
</g>
<g opacity="0.1">
<path fill-rule="evenodd" clip-rule="evenodd" d="M122.184 203.489C116.326 209.347 116.326 218.844 122.184 224.702C128.042 230.56 137.54 230.56 143.398 224.702L168.288 199.812C174.146 193.954 174.146 184.457 168.288 178.599C162.43 172.741 152.932 172.741 147.074 178.599L122.184 203.489ZM129.996 210.47L136.53 217.003L138.696 214.838C140.87 212.663 140.712 210.245 138.724 208.257C136.399 205.933 134.075 206.391 131.957 208.509L129.996 210.47ZM137.874 214.222L136.661 215.435L131.555 210.329L132.731 209.153C134.514 207.371 136.203 207.511 137.837 209.144C139.666 210.974 139.442 212.654 137.874 214.222ZM140.568 208.429C142.127 209.987 143.817 209.997 145.161 208.653C146.439 207.374 146.318 206.02 145.618 205.134L144.825 205.927C145.403 206.73 145.095 207.467 144.545 208.018C143.77 208.793 142.585 208.802 141.539 207.794L144.955 204.378L144.797 204.219C143.35 202.772 141.67 202.567 140.326 203.911C139.094 205.143 139.187 207.047 140.568 208.429ZM143.527 204.667L140.998 207.197C140.298 206.385 140.204 205.302 140.96 204.546C141.744 203.762 142.725 203.864 143.527 204.667ZM143.658 200.877L148.157 205.376L148.96 204.573L146.319 201.932C145.572 201.185 145.376 200.13 146.076 199.43C146.739 198.768 147.495 199.001 148.353 199.86L151.014 202.52L151.816 201.717L149.137 199.038C148.419 198.32 148.204 197.302 148.913 196.593C149.604 195.902 150.332 196.126 151.182 196.975L153.87 199.664L154.672 198.861L151.826 196.014C150.594 194.782 149.352 194.885 148.447 195.79C147.803 196.434 147.653 197.311 147.868 198.142C147.009 197.806 146.216 198.021 145.628 198.609C145.04 199.197 144.9 199.972 145.068 200.681L144.816 200.429L144.461 200.074L143.658 200.877ZM153.448 195.567C154.886 197.005 156.762 197.052 158.059 195.754C159.347 194.466 159.31 192.581 157.872 191.143C156.472 189.743 154.559 189.678 153.271 190.966C151.973 192.263 152.048 194.167 153.448 195.567ZM157.434 195.129C156.575 195.988 155.334 195.792 154.279 194.737C153.224 193.682 153.066 192.441 153.906 191.601C154.746 190.761 155.987 190.919 157.042 191.974C158.096 193.029 158.292 194.27 157.434 195.129Z" fill="black"/>
</g>
<g opacity="0.1">
<path fill-rule="evenodd" clip-rule="evenodd" d="M122.184 259.583C116.326 265.441 116.326 274.938 122.184 280.796C128.042 286.654 137.54 286.654 143.398 280.796L168.288 255.906C174.146 250.048 174.146 240.551 168.288 234.693C162.43 228.835 152.932 228.835 147.074 234.693L122.184 259.583ZM129.996 266.563L136.53 273.097L138.696 270.931C140.87 268.757 140.712 266.339 138.724 264.351C136.399 262.027 134.075 262.484 131.957 264.603L129.996 266.563ZM137.874 270.315L136.661 271.529L131.555 266.423L132.731 265.247C134.514 263.464 136.203 263.604 137.837 265.238C139.666 267.067 139.442 268.747 137.874 270.315ZM140.568 264.522C142.127 266.081 143.817 266.09 145.161 264.746C146.439 263.468 146.318 262.114 145.618 261.228L144.825 262.021C145.403 262.824 145.095 263.561 144.545 264.112C143.77 264.886 142.585 264.896 141.539 263.888L144.955 260.471L144.797 260.313C143.35 258.866 141.67 258.661 140.326 260.005C139.094 261.237 139.187 263.141 140.568 264.522ZM143.527 260.761L140.998 263.29C140.298 262.478 140.204 261.396 140.96 260.64C141.744 259.855 142.725 259.958 143.527 260.761ZM143.658 256.971L148.157 261.47L148.96 260.667L146.319 258.025C145.572 257.279 145.376 256.224 146.076 255.524C146.739 254.861 147.495 255.095 148.353 255.953L151.014 258.613L151.816 257.811L149.137 255.132C148.419 254.413 148.204 253.396 148.913 252.687C149.604 251.996 150.332 252.22 151.182 253.069L153.87 255.757L154.672 254.955L151.826 252.108C150.594 250.876 149.352 250.978 148.447 251.884C147.803 252.528 147.653 253.405 147.868 254.236C147.009 253.9 146.216 254.115 145.628 254.703C145.04 255.291 144.9 256.065 145.068 256.775L144.816 256.523L144.461 256.168L143.658 256.971ZM153.448 251.661C154.886 253.099 156.762 253.145 158.059 251.848C159.347 250.56 159.31 248.674 157.872 247.237C156.472 245.837 154.559 245.772 153.271 247.06C151.973 248.357 152.048 250.261 153.448 251.661ZM157.434 251.223C156.575 252.081 155.334 251.885 154.279 250.831C153.224 249.776 153.066 248.534 153.906 247.694C154.746 246.854 155.987 247.013 157.042 248.068C158.096 249.122 158.292 250.364 157.434 251.223Z" fill="black"/>
</g>
<g opacity="0.1">
<path fill-rule="evenodd" clip-rule="evenodd" d="M122.184 315.673C116.326 321.531 116.326 331.028 122.184 336.886C128.042 342.744 137.54 342.744 143.398 336.886L168.288 311.996C174.146 306.138 174.146 296.64 168.288 290.783C162.43 284.925 152.932 284.925 147.074 290.783L122.184 315.673ZM129.996 322.653L136.53 329.187L138.696 327.021C140.87 324.847 140.712 322.429 138.724 320.441C136.399 318.117 134.075 318.574 131.957 320.693L129.996 322.653ZM137.874 326.405L136.661 327.619L131.555 322.513L132.731 321.337C134.514 319.554 136.203 319.694 137.837 321.328C139.666 323.157 139.442 324.837 137.874 326.405ZM140.568 320.612C142.127 322.171 143.817 322.18 145.161 320.836C146.439 319.557 146.318 318.204 145.618 317.317L144.825 318.111C145.403 318.913 145.095 319.651 144.545 320.202C143.77 320.976 142.585 320.986 141.539 319.978L144.955 316.561L144.797 316.403C143.35 314.956 141.67 314.751 140.326 316.095C139.094 317.327 139.187 319.231 140.568 320.612ZM143.527 316.851L140.998 319.38C140.298 318.568 140.204 317.485 140.96 316.729C141.744 315.945 142.725 316.048 143.527 316.851ZM143.658 313.061L148.157 317.559L148.96 316.757L146.319 314.115C145.572 313.369 145.376 312.314 146.076 311.614C146.739 310.951 147.495 311.184 148.353 312.043L151.014 314.703L151.816 313.901L149.137 311.222C148.419 310.503 148.204 309.486 148.913 308.776C149.604 308.086 150.332 308.31 151.182 309.159L153.87 311.847L154.672 311.044L151.826 308.198C150.594 306.966 149.352 307.068 148.447 307.974C147.803 308.618 147.653 309.495 147.868 310.326C147.009 309.99 146.216 310.204 145.628 310.792C145.04 311.38 144.9 312.155 145.068 312.865L144.816 312.613L144.461 312.258L143.658 313.061ZM153.448 307.751C154.886 309.188 156.762 309.235 158.059 307.938C159.347 306.65 159.31 304.764 157.872 303.327C156.472 301.927 154.559 301.861 153.271 303.15C151.973 304.447 152.048 306.351 153.448 307.751ZM157.434 307.312C156.575 308.171 155.334 307.975 154.279 306.92C153.224 305.866 153.066 304.624 153.906 303.784C154.746 302.944 155.987 303.103 157.042 304.158C158.096 305.212 158.292 306.454 157.434 307.312Z" fill="black"/>
</g>
<g opacity="0.1">
<path fill-rule="evenodd" clip-rule="evenodd" d="M177.977 35.2157C172.119 41.0735 172.119 50.571 177.977 56.4289C183.834 62.2867 193.332 62.2867 199.19 56.4289L223.585 32.0337C229.443 26.1758 229.443 16.6783 223.585 10.8205C217.727 4.96262 208.23 4.96261 202.372 10.8205L177.977 35.2157ZM185.789 42.1961L192.322 48.7297L194.488 46.5643C196.663 44.3895 196.504 41.9721 194.516 39.984C192.192 37.6598 189.868 38.1172 187.749 40.236L185.789 42.1961ZM193.666 45.9483L192.453 47.1617L187.347 42.0561L188.524 40.88C190.306 39.0972 191.996 39.2372 193.629 40.8707C195.459 42.7001 195.235 44.3802 193.666 45.9483ZM196.361 40.1552C197.919 41.7139 199.609 41.7233 200.953 40.3792C202.232 39.1005 202.11 37.747 201.41 36.8603L200.617 37.6537C201.196 38.4564 200.888 39.1938 200.337 39.7445C199.562 40.5192 198.377 40.5285 197.331 39.5205L200.748 36.1043L200.589 35.9456C199.142 34.4989 197.462 34.2935 196.118 35.6376C194.886 36.8697 194.979 38.7738 196.361 40.1552ZM199.32 36.3936L196.79 38.9231C196.09 38.1111 195.997 37.0283 196.753 36.2723C197.537 35.4883 198.517 35.5909 199.32 36.3936ZM199.451 32.6035L203.95 37.1024L204.752 36.2997L202.111 33.6583C201.364 32.9115 201.168 31.8568 201.868 31.1568C202.531 30.4941 203.287 30.7274 204.146 31.5861L206.806 34.2463L207.609 33.4436L204.93 30.7648C204.211 30.0461 203.996 29.0287 204.706 28.3193C205.396 27.6286 206.124 27.8526 206.974 28.702L209.662 31.3901L210.465 30.5874L207.618 27.7406C206.386 26.5086 205.144 26.6112 204.239 27.5166C203.595 28.1606 203.446 29.038 203.66 29.8687C202.802 29.5327 202.008 29.7474 201.42 30.3354C200.832 30.9234 200.692 31.6982 200.86 32.4075L200.608 32.1555L200.253 31.8008L199.451 32.6035ZM209.24 27.2941C210.678 28.7315 212.554 28.7781 213.851 27.4807C215.139 26.1927 215.102 24.3072 213.665 22.8698C212.265 21.4698 210.351 21.4044 209.063 22.6925C207.766 23.9899 207.84 25.894 209.24 27.2941ZM213.226 26.8554C212.367 27.7141 211.126 27.5181 210.071 26.4633C209.016 25.4086 208.858 24.1672 209.698 23.3272C210.538 22.4871 211.779 22.6458 212.834 23.7005C213.889 24.7553 214.085 25.9967 213.226 26.8554Z" fill="black"/>
</g>
<g opacity="0.1">
<path fill-rule="evenodd" clip-rule="evenodd" d="M177.977 91.3055C172.119 97.1634 172.119 106.661 177.977 112.519C183.834 118.377 193.332 118.377 199.19 112.519L224.08 87.6286C229.938 81.7707 229.938 72.2732 224.08 66.4153C218.222 60.5575 208.725 60.5575 202.867 66.4154L177.977 91.3055ZM185.789 98.2859L192.322 104.82L194.488 102.654C196.663 100.479 196.504 98.0619 194.516 96.0738C192.192 93.7497 189.868 94.207 187.749 96.3258L185.789 98.2859ZM193.666 102.038L192.453 103.251L187.347 98.1459L188.524 96.9698C190.306 95.1871 191.996 95.3271 193.629 96.9605C195.459 98.7899 195.235 100.47 193.666 102.038ZM196.361 96.245C197.919 97.8038 199.609 97.8131 200.953 96.469C202.232 95.1903 202.11 93.8369 201.41 92.9502L200.617 93.7436C201.196 94.5463 200.888 95.2836 200.337 95.8343C199.562 96.609 198.377 96.6184 197.331 95.6103L200.748 92.1941L200.589 92.0355C199.142 90.5887 197.462 90.3834 196.118 91.7274C194.886 92.9595 194.979 94.8636 196.361 96.245ZM199.32 92.4835L196.79 95.013C196.09 94.2009 195.997 93.1182 196.753 92.3621C197.537 91.5781 198.517 91.6808 199.32 92.4835ZM199.451 88.6934L203.95 93.1923L204.752 92.3896L202.111 89.7481C201.364 89.0014 201.168 87.9467 201.868 87.2466C202.531 86.5839 203.287 86.8173 204.146 87.676L206.806 90.3361L207.609 89.5334L204.93 86.8546C204.211 86.1359 203.996 85.1185 204.706 84.4092C205.396 83.7185 206.124 83.9425 206.974 84.7918L209.662 87.48L210.465 86.6773L207.618 83.8305C206.386 82.5984 205.144 82.7011 204.239 83.6065C203.595 84.2505 203.446 85.1279 203.66 85.9586C202.802 85.6226 202.008 85.8372 201.42 86.4253C200.832 87.0133 200.692 87.788 200.86 88.4974L200.608 88.2454L200.253 87.8907L199.451 88.6934ZM209.24 83.3839C210.678 84.8213 212.554 84.868 213.851 83.5706C215.139 82.2825 215.102 80.3971 213.665 78.9597C212.265 77.5596 210.351 77.4943 209.063 78.7823C207.766 80.0797 207.84 81.9838 209.24 83.3839ZM213.226 82.9452C212.367 83.8039 211.126 83.6079 210.071 82.5532C209.016 81.4985 208.858 80.2571 209.698 79.417C210.538 78.577 211.779 78.7357 212.834 79.7904C213.889 80.8451 214.085 82.0865 213.226 82.9452Z" fill="black"/>
</g>
<g opacity="0.1">
<path fill-rule="evenodd" clip-rule="evenodd" d="M177.977 147.399C172.119 153.257 172.119 162.755 177.977 168.612C183.834 174.47 193.332 174.47 199.19 168.612L224.08 143.722C229.938 137.864 229.938 128.367 224.08 122.509C218.222 116.651 208.725 116.651 202.867 122.509L177.977 147.399ZM185.789 154.38L192.322 160.913L194.488 158.748C196.663 156.573 196.504 154.156 194.516 152.168C192.192 149.843 189.868 150.301 187.749 152.42L185.789 154.38ZM193.666 158.132L192.453 159.345L187.347 154.24L188.524 153.064C190.306 151.281 191.996 151.421 193.629 153.054C195.459 154.884 195.235 156.564 193.666 158.132ZM196.361 152.339C197.919 153.898 199.609 153.907 200.953 152.563C202.232 151.284 202.11 149.931 201.41 149.044L200.617 149.837C201.196 150.64 200.888 151.377 200.337 151.928C199.562 152.703 198.377 152.712 197.331 151.704L200.748 148.288L200.589 148.129C199.142 146.682 197.462 146.477 196.118 147.821C194.886 149.053 194.979 150.957 196.361 152.339ZM199.32 148.577L196.79 151.107C196.09 150.295 195.997 149.212 196.753 148.456C197.537 147.672 198.517 147.775 199.32 148.577ZM199.451 144.787L203.95 149.286L204.752 148.483L202.111 145.842C201.364 145.095 201.168 144.04 201.868 143.34C202.531 142.678 203.287 142.911 204.146 143.77L206.806 146.43L207.609 145.627L204.93 142.948C204.211 142.23 203.996 141.212 204.706 140.503C205.396 139.812 206.124 140.036 206.974 140.886L209.662 143.574L210.465 142.771L207.618 139.924C206.386 138.692 205.144 138.795 204.239 139.7C203.595 140.344 203.446 141.222 203.66 142.052C202.802 141.716 202.008 141.931 201.42 142.519C200.832 143.107 200.692 143.882 200.86 144.591L200.608 144.339L200.253 143.984L199.451 144.787ZM209.24 139.478C210.678 140.915 212.554 140.962 213.851 139.664C215.139 138.376 215.102 136.491 213.665 135.053C212.265 133.653 210.351 133.588 209.063 134.876C207.766 136.173 207.84 138.078 209.24 139.478ZM213.226 139.039C212.367 139.898 211.126 139.702 210.071 138.647C209.016 137.592 208.858 136.351 209.698 135.511C210.538 134.671 211.779 134.829 212.834 135.884C213.889 136.939 214.085 138.18 213.226 139.039Z" fill="black"/>
</g>
<g opacity="0.1">
<path fill-rule="evenodd" clip-rule="evenodd" d="M177.977 203.489C172.119 209.347 172.119 218.844 177.977 224.702C183.834 230.56 193.332 230.56 199.19 224.702L224.08 199.812C229.938 193.954 229.938 184.457 224.08 178.599C218.222 172.741 208.725 172.741 202.867 178.599L177.977 203.489ZM185.789 210.47L192.322 217.003L194.488 214.838C196.663 212.663 196.504 210.245 194.516 208.257C192.192 205.933 189.868 206.391 187.749 208.509L185.789 210.47ZM193.666 214.222L192.453 215.435L187.347 210.329L188.524 209.153C190.306 207.371 191.996 207.511 193.629 209.144C195.459 210.974 195.235 212.654 193.666 214.222ZM196.361 208.429C197.919 209.987 199.609 209.997 200.953 208.653C202.232 207.374 202.11 206.02 201.41 205.134L200.617 205.927C201.196 206.73 200.888 207.467 200.337 208.018C199.562 208.793 198.377 208.802 197.331 207.794L200.748 204.378L200.589 204.219C199.142 202.772 197.462 202.567 196.118 203.911C194.886 205.143 194.979 207.047 196.361 208.429ZM199.32 204.667L196.79 207.197C196.09 206.385 195.997 205.302 196.753 204.546C197.537 203.762 198.517 203.864 199.32 204.667ZM199.451 200.877L203.95 205.376L204.752 204.573L202.111 201.932C201.364 201.185 201.168 200.13 201.868 199.43C202.531 198.768 203.287 199.001 204.146 199.86L206.806 202.52L207.609 201.717L204.93 199.038C204.211 198.32 203.996 197.302 204.706 196.593C205.396 195.902 206.124 196.126 206.974 196.975L209.662 199.664L210.465 198.861L207.618 196.014C206.386 194.782 205.144 194.885 204.239 195.79C203.595 196.434 203.446 197.311 203.66 198.142C202.802 197.806 202.008 198.021 201.42 198.609C200.832 199.197 200.692 199.972 200.86 200.681L200.608 200.429L200.253 200.074L199.451 200.877ZM209.24 195.567C210.678 197.005 212.554 197.052 213.851 195.754C215.139 194.466 215.102 192.581 213.665 191.143C212.265 189.743 210.351 189.678 209.063 190.966C207.766 192.263 207.84 194.167 209.24 195.567ZM213.226 195.129C212.367 195.988 211.126 195.792 210.071 194.737C209.016 193.682 208.858 192.441 209.698 191.601C210.538 190.761 211.779 190.919 212.834 191.974C213.889 193.029 214.085 194.27 213.226 195.129Z" fill="black"/>
</g>
<g opacity="0.1">
<path fill-rule="evenodd" clip-rule="evenodd" d="M177.977 259.583C172.119 265.441 172.119 274.938 177.977 280.796C183.834 286.654 193.332 286.654 199.19 280.796L224.08 255.906C229.938 250.048 229.938 240.551 224.08 234.693C218.222 228.835 208.725 228.835 202.867 234.693L177.977 259.583ZM185.789 266.563L192.322 273.097L194.488 270.931C196.663 268.757 196.504 266.339 194.516 264.351C192.192 262.027 189.868 262.484 187.749 264.603L185.789 266.563ZM193.666 270.315L192.453 271.529L187.347 266.423L188.524 265.247C190.306 263.464 191.996 263.604 193.629 265.238C195.459 267.067 195.235 268.747 193.666 270.315ZM196.361 264.522C197.919 266.081 199.609 266.09 200.953 264.746C202.232 263.468 202.11 262.114 201.41 261.228L200.617 262.021C201.196 262.824 200.888 263.561 200.337 264.112C199.562 264.886 198.377 264.896 197.331 263.888L200.748 260.471L200.589 260.313C199.142 258.866 197.462 258.661 196.118 260.005C194.886 261.237 194.979 263.141 196.361 264.522ZM199.32 260.761L196.79 263.29C196.09 262.478 195.997 261.396 196.753 260.64C197.537 259.855 198.517 259.958 199.32 260.761ZM199.451 256.971L203.95 261.47L204.752 260.667L202.111 258.025C201.364 257.279 201.168 256.224 201.868 255.524C202.531 254.861 203.287 255.095 204.146 255.953L206.806 258.613L207.609 257.811L204.93 255.132C204.211 254.413 203.996 253.396 204.706 252.687C205.396 251.996 206.124 252.22 206.974 253.069L209.662 255.757L210.465 254.955L207.618 252.108C206.386 250.876 205.144 250.978 204.239 251.884C203.595 252.528 203.446 253.405 203.66 254.236C202.802 253.9 202.008 254.115 201.42 254.703C200.832 255.291 200.692 256.065 200.86 256.775L200.608 256.523L200.253 256.168L199.451 256.971ZM209.24 251.661C210.678 253.099 212.554 253.145 213.851 251.848C215.139 250.56 215.102 248.674 213.665 247.237C212.265 245.837 210.351 245.772 209.063 247.06C207.766 248.357 207.84 250.261 209.24 251.661ZM213.226 251.223C212.367 252.081 211.126 251.885 210.071 250.831C209.016 249.776 208.858 248.534 209.698 247.694C210.538 246.854 211.779 247.013 212.834 248.068C213.889 249.122 214.085 250.364 213.226 251.223Z" fill="black"/>
</g>
<g opacity="0.1">
<path fill-rule="evenodd" clip-rule="evenodd" d="M177.977 315.673C172.119 321.531 172.119 331.028 177.977 336.886C183.834 342.744 193.332 342.744 199.19 336.886L224.08 311.996C229.938 306.138 229.938 296.64 224.08 290.783C218.222 284.925 208.725 284.925 202.867 290.783L177.977 315.673ZM185.789 322.653L192.322 329.187L194.488 327.021C196.663 324.847 196.504 322.429 194.516 320.441C192.192 318.117 189.868 318.574 187.749 320.693L185.789 322.653ZM193.666 326.405L192.453 327.619L187.347 322.513L188.524 321.337C190.306 319.554 191.996 319.694 193.629 321.328C195.459 323.157 195.235 324.837 193.666 326.405ZM196.361 320.612C197.919 322.171 199.609 322.18 200.953 320.836C202.232 319.557 202.11 318.204 201.41 317.317L200.617 318.111C201.196 318.913 200.888 319.651 200.337 320.202C199.562 320.976 198.377 320.986 197.331 319.978L200.748 316.561L200.589 316.403C199.142 314.956 197.462 314.751 196.118 316.095C194.886 317.327 194.979 319.231 196.361 320.612ZM199.32 316.851L196.79 319.38C196.09 318.568 195.997 317.485 196.753 316.729C197.537 315.945 198.517 316.048 199.32 316.851ZM199.451 313.061L203.95 317.559L204.752 316.757L202.111 314.115C201.364 313.369 201.168 312.314 201.868 311.614C202.531 310.951 203.287 311.184 204.146 312.043L206.806 314.703L207.609 313.901L204.93 311.222C204.211 310.503 203.996 309.486 204.706 308.776C205.396 308.086 206.124 308.31 206.974 309.159L209.662 311.847L210.465 311.044L207.618 308.198C206.386 306.966 205.144 307.068 204.239 307.974C203.595 308.618 203.446 309.495 203.66 310.326C202.802 309.99 202.008 310.204 201.42 310.792C200.832 311.38 200.692 312.155 200.86 312.865L200.608 312.613L200.253 312.258L199.451 313.061ZM209.24 307.751C210.678 309.188 212.554 309.235 213.851 307.938C215.139 306.65 215.102 304.764 213.665 303.327C212.265 301.927 210.351 301.861 209.063 303.15C207.766 304.447 207.84 306.351 209.24 307.751ZM213.226 307.312C212.367 308.171 211.126 307.975 210.071 306.92C209.016 305.866 208.858 304.624 209.698 303.784C210.538 302.944 211.779 303.103 212.834 304.158C213.889 305.212 214.085 306.454 213.226 307.312Z" fill="black"/>
</g>
<g opacity="0.1">
<path fill-rule="evenodd" clip-rule="evenodd" d="M233.769 35.2157C227.911 41.0735 227.911 50.571 233.769 56.4289C239.627 62.2867 249.124 62.2867 254.982 56.4289L279.377 32.0337C285.235 26.1758 285.235 16.6783 279.377 10.8205C273.519 4.96262 264.022 4.96261 258.164 10.8205L233.769 35.2157ZM241.581 42.1961L248.115 48.7297L250.28 46.5643C252.455 44.3895 252.296 41.9721 250.308 39.984C247.984 37.6598 245.66 38.1172 243.541 40.236L241.581 42.1961ZM249.459 45.9483L248.245 47.1617L243.14 42.0561L244.316 40.88C246.099 39.0972 247.788 39.2372 249.421 40.8707C251.251 42.7001 251.027 44.3802 249.459 45.9483ZM252.153 40.1552C253.712 41.7139 255.401 41.7233 256.745 40.3792C258.024 39.1005 257.903 37.747 257.203 36.8603L256.409 37.6537C256.988 38.4564 256.68 39.1938 256.129 39.7445C255.355 40.5192 254.169 40.5285 253.124 39.5205L256.54 36.1043L256.381 35.9456C254.934 34.4989 253.254 34.2935 251.91 35.6376C250.678 36.8697 250.772 38.7738 252.153 40.1552ZM255.112 36.3936L252.582 38.9231C251.882 38.1111 251.789 37.0283 252.545 36.2723C253.329 35.4883 254.309 35.5909 255.112 36.3936ZM255.243 32.6035L259.742 37.1024L260.545 36.2997L257.903 33.6583C257.157 32.9115 256.961 31.8568 257.661 31.1568C258.323 30.4941 259.079 30.7274 259.938 31.5861L262.598 34.2463L263.401 33.4436L260.722 30.7648C260.003 30.0461 259.789 29.0287 260.498 28.3193C261.189 27.6286 261.917 27.8526 262.766 28.702L265.454 31.3901L266.257 30.5874L263.41 27.7406C262.178 26.5086 260.937 26.6112 260.031 27.5166C259.387 28.1606 259.238 29.038 259.453 29.8687C258.594 29.5327 257.801 29.7474 257.213 30.3354C256.624 30.9234 256.484 31.6982 256.652 32.4075L256.4 32.1555L256.046 31.8008L255.243 32.6035ZM265.033 27.2941C266.47 28.7315 268.346 28.7781 269.644 27.4807C270.932 26.1927 270.894 24.3072 269.457 22.8698C268.057 21.4698 266.144 21.4044 264.855 22.6925C263.558 23.9899 263.633 25.894 265.033 27.2941ZM269.018 26.8554C268.16 27.7141 266.918 27.5181 265.864 26.4633C264.809 25.4086 264.65 24.1672 265.49 23.3272C266.33 22.4871 267.572 22.6458 268.626 23.7005C269.681 24.7553 269.877 25.9967 269.018 26.8554Z" fill="black"/>
</g>
<g opacity="0.1">
<path fill-rule="evenodd" clip-rule="evenodd" d="M233.769 91.3055C227.911 97.1634 227.911 106.661 233.769 112.519C239.627 118.377 249.124 118.377 254.982 112.519L279.872 87.6286C285.73 81.7707 285.73 72.2732 279.872 66.4153C274.014 60.5575 264.517 60.5575 258.659 66.4154L233.769 91.3055ZM241.581 98.2859L248.115 104.82L250.28 102.654C252.455 100.479 252.296 98.0619 250.308 96.0738C247.984 93.7497 245.66 94.207 243.541 96.3258L241.581 98.2859ZM249.459 102.038L248.245 103.251L243.14 98.1459L244.316 96.9698C246.099 95.1871 247.788 95.3271 249.421 96.9605C251.251 98.7899 251.027 100.47 249.459 102.038ZM252.153 96.245C253.712 97.8038 255.401 97.8131 256.745 96.469C258.024 95.1903 257.903 93.8369 257.203 92.9502L256.409 93.7436C256.988 94.5463 256.68 95.2836 256.129 95.8343C255.355 96.609 254.169 96.6184 253.124 95.6103L256.54 92.1941L256.381 92.0355C254.934 90.5887 253.254 90.3834 251.91 91.7274C250.678 92.9595 250.772 94.8636 252.153 96.245ZM255.112 92.4835L252.582 95.013C251.882 94.2009 251.789 93.1182 252.545 92.3621C253.329 91.5781 254.309 91.6808 255.112 92.4835ZM255.243 88.6934L259.742 93.1923L260.545 92.3896L257.903 89.7481C257.157 89.0014 256.961 87.9467 257.661 87.2466C258.323 86.5839 259.079 86.8173 259.938 87.676L262.598 90.3361L263.401 89.5334L260.722 86.8546C260.003 86.1359 259.789 85.1185 260.498 84.4092C261.189 83.7185 261.917 83.9425 262.766 84.7918L265.454 87.48L266.257 86.6773L263.41 83.8305C262.178 82.5984 260.937 82.7011 260.031 83.6065C259.387 84.2505 259.238 85.1279 259.453 85.9586C258.594 85.6226 257.801 85.8372 257.213 86.4253C256.624 87.0133 256.484 87.788 256.652 88.4974L256.4 88.2454L256.046 87.8907L255.243 88.6934ZM265.033 83.3839C266.47 84.8213 268.346 84.868 269.644 83.5706C270.932 82.2825 270.894 80.3971 269.457 78.9597C268.057 77.5596 266.144 77.4943 264.855 78.7823C263.558 80.0797 263.633 81.9838 265.033 83.3839ZM269.018 82.9452C268.16 83.8039 266.918 83.6079 265.864 82.5532C264.809 81.4985 264.65 80.2571 265.49 79.417C266.33 78.577 267.572 78.7357 268.626 79.7904C269.681 80.8451 269.877 82.0865 269.018 82.9452Z" fill="black"/>
</g>
<g opacity="0.1">
<path fill-rule="evenodd" clip-rule="evenodd" d="M233.769 147.399C227.911 153.257 227.911 162.755 233.769 168.612C239.627 174.47 249.124 174.47 254.982 168.612L279.872 143.722C285.73 137.864 285.73 128.367 279.872 122.509C274.014 116.651 264.517 116.651 258.659 122.509L233.769 147.399ZM241.581 154.38L248.115 160.913L250.28 158.748C252.455 156.573 252.296 154.156 250.308 152.168C247.984 149.843 245.66 150.301 243.541 152.42L241.581 154.38ZM249.459 158.132L248.245 159.345L243.14 154.24L244.316 153.064C246.099 151.281 247.788 151.421 249.421 153.054C251.251 154.884 251.027 156.564 249.459 158.132ZM252.153 152.339C253.712 153.898 255.401 153.907 256.745 152.563C258.024 151.284 257.903 149.931 257.203 149.044L256.409 149.837C256.988 150.64 256.68 151.377 256.129 151.928C255.355 152.703 254.169 152.712 253.124 151.704L256.54 148.288L256.381 148.129C254.934 146.682 253.254 146.477 251.91 147.821C250.678 149.053 250.772 150.957 252.153 152.339ZM255.112 148.577L252.582 151.107C251.882 150.295 251.789 149.212 252.545 148.456C253.329 147.672 254.309 147.775 255.112 148.577ZM255.243 144.787L259.742 149.286L260.545 148.483L257.903 145.842C257.157 145.095 256.961 144.04 257.661 143.34C258.323 142.678 259.079 142.911 259.938 143.77L262.598 146.43L263.401 145.627L260.722 142.948C260.003 142.23 259.789 141.212 260.498 140.503C261.189 139.812 261.917 140.036 262.766 140.886L265.454 143.574L266.257 142.771L263.41 139.924C262.178 138.692 260.937 138.795 260.031 139.7C259.387 140.344 259.238 141.222 259.453 142.052C258.594 141.716 257.801 141.931 257.213 142.519C256.624 143.107 256.484 143.882 256.652 144.591L256.4 144.339L256.046 143.984L255.243 144.787ZM265.033 139.478C266.47 140.915 268.346 140.962 269.644 139.664C270.932 138.376 270.894 136.491 269.457 135.053C268.057 133.653 266.144 133.588 264.855 134.876C263.558 136.173 263.633 138.078 265.033 139.478ZM269.018 139.039C268.16 139.898 266.918 139.702 265.864 138.647C264.809 137.592 264.65 136.351 265.49 135.511C266.33 134.671 267.572 134.829 268.626 135.884C269.681 136.939 269.877 138.18 269.018 139.039Z" fill="black"/>
</g>
<g opacity="0.1">
<path fill-rule="evenodd" clip-rule="evenodd" d="M233.769 203.489C227.911 209.347 227.911 218.844 233.769 224.702C239.627 230.56 249.124 230.56 254.982 224.702L279.872 199.812C285.73 193.954 285.73 184.457 279.872 178.599C274.014 172.741 264.517 172.741 258.659 178.599L233.769 203.489ZM241.581 210.47L248.115 217.003L250.28 214.838C252.455 212.663 252.296 210.245 250.308 208.257C247.984 205.933 245.66 206.391 243.541 208.509L241.581 210.47ZM249.459 214.222L248.245 215.435L243.14 210.329L244.316 209.153C246.099 207.371 247.788 207.511 249.421 209.144C251.251 210.974 251.027 212.654 249.459 214.222ZM252.153 208.429C253.712 209.987 255.401 209.997 256.745 208.653C258.024 207.374 257.903 206.02 257.203 205.134L256.409 205.927C256.988 206.73 256.68 207.467 256.129 208.018C255.355 208.793 254.169 208.802 253.124 207.794L256.54 204.378L256.381 204.219C254.934 202.772 253.254 202.567 251.91 203.911C250.678 205.143 250.772 207.047 252.153 208.429ZM255.112 204.667L252.582 207.197C251.882 206.385 251.789 205.302 252.545 204.546C253.329 203.762 254.309 203.864 255.112 204.667ZM255.243 200.877L259.742 205.376L260.545 204.573L257.903 201.932C257.157 201.185 256.961 200.13 257.661 199.43C258.323 198.768 259.079 199.001 259.938 199.86L262.598 202.52L263.401 201.717L260.722 199.038C260.003 198.32 259.789 197.302 260.498 196.593C261.189 195.902 261.917 196.126 262.766 196.975L265.454 199.664L266.257 198.861L263.41 196.014C262.178 194.782 260.937 194.885 260.031 195.79C259.387 196.434 259.238 197.311 259.453 198.142C258.594 197.806 257.801 198.021 257.213 198.609C256.624 199.197 256.484 199.972 256.652 200.681L256.4 200.429L256.046 200.074L255.243 200.877ZM265.033 195.567C266.47 197.005 268.346 197.052 269.644 195.754C270.932 194.466 270.894 192.581 269.457 191.143C268.057 189.743 266.144 189.678 264.855 190.966C263.558 192.263 263.633 194.167 265.033 195.567ZM269.018 195.129C268.16 195.988 266.918 195.792 265.864 194.737C264.809 193.682 264.65 192.441 265.49 191.601C266.33 190.761 267.572 190.919 268.626 191.974C269.681 193.029 269.877 194.27 269.018 195.129Z" fill="black"/>
</g>
<g opacity="0.1">
<path fill-rule="evenodd" clip-rule="evenodd" d="M233.769 259.583C227.911 265.441 227.911 274.938 233.769 280.796C239.627 286.654 249.124 286.654 254.982 280.796L279.872 255.906C285.73 250.048 285.73 240.551 279.872 234.693C274.014 228.835 264.517 228.835 258.659 234.693L233.769 259.583ZM241.581 266.563L248.115 273.097L250.28 270.931C252.455 268.757 252.296 266.339 250.308 264.351C247.984 262.027 245.66 262.484 243.541 264.603L241.581 266.563ZM249.459 270.315L248.245 271.529L243.14 266.423L244.316 265.247C246.099 263.464 247.788 263.604 249.421 265.238C251.251 267.067 251.027 268.747 249.459 270.315ZM252.153 264.522C253.712 266.081 255.401 266.09 256.745 264.746C258.024 263.468 257.903 262.114 257.203 261.228L256.409 262.021C256.988 262.824 256.68 263.561 256.129 264.112C255.355 264.886 254.169 264.896 253.124 263.888L256.54 260.471L256.381 260.313C254.934 258.866 253.254 258.661 251.91 260.005C250.678 261.237 250.772 263.141 252.153 264.522ZM255.112 260.761L252.582 263.29C251.882 262.478 251.789 261.396 252.545 260.64C253.329 259.855 254.309 259.958 255.112 260.761ZM255.243 256.971L259.742 261.47L260.545 260.667L257.903 258.025C257.157 257.279 256.961 256.224 257.661 255.524C258.323 254.861 259.079 255.095 259.938 255.953L262.598 258.613L263.401 257.811L260.722 255.132C260.003 254.413 259.789 253.396 260.498 252.687C261.189 251.996 261.917 252.22 262.766 253.069L265.454 255.757L266.257 254.955L263.41 252.108C262.178 250.876 260.937 250.978 260.031 251.884C259.387 252.528 259.238 253.405 259.453 254.236C258.594 253.9 257.801 254.115 257.213 254.703C256.624 255.291 256.484 256.065 256.652 256.775L256.4 256.523L256.046 256.168L255.243 256.971ZM265.033 251.661C266.47 253.099 268.346 253.145 269.644 251.848C270.932 250.56 270.894 248.674 269.457 247.237C268.057 245.837 266.144 245.772 264.855 247.06C263.558 248.357 263.633 250.261 265.033 251.661ZM269.018 251.223C268.16 252.081 266.918 251.885 265.864 250.831C264.809 249.776 264.65 248.534 265.49 247.694C266.33 246.854 267.572 247.013 268.626 248.068C269.681 249.122 269.877 250.364 269.018 251.223Z" fill="black"/>
</g>
<g opacity="0.1">
<path fill-rule="evenodd" clip-rule="evenodd" d="M233.769 315.673C227.911 321.531 227.911 331.028 233.769 336.886C239.627 342.744 249.124 342.744 254.982 336.886L279.872 311.996C285.73 306.138 285.73 296.64 279.872 290.783C274.014 284.925 264.517 284.925 258.659 290.783L233.769 315.673ZM241.581 322.653L248.115 329.187L250.28 327.021C252.455 324.847 252.296 322.429 250.308 320.441C247.984 318.117 245.66 318.574 243.541 320.693L241.581 322.653ZM249.459 326.405L248.245 327.619L243.14 322.513L244.316 321.337C246.099 319.554 247.788 319.694 249.421 321.328C251.251 323.157 251.027 324.837 249.459 326.405ZM252.153 320.612C253.712 322.171 255.401 322.18 256.745 320.836C258.024 319.557 257.903 318.204 257.203 317.317L256.409 318.111C256.988 318.913 256.68 319.651 256.129 320.202C255.355 320.976 254.169 320.986 253.124 319.978L256.54 316.561L256.381 316.403C254.934 314.956 253.254 314.751 251.91 316.095C250.678 317.327 250.772 319.231 252.153 320.612ZM255.112 316.851L252.582 319.38C251.882 318.568 251.789 317.485 252.545 316.729C253.329 315.945 254.309 316.048 255.112 316.851ZM255.243 313.061L259.742 317.559L260.545 316.757L257.903 314.115C257.157 313.369 256.961 312.314 257.661 311.614C258.323 310.951 259.079 311.184 259.938 312.043L262.598 314.703L263.401 313.901L260.722 311.222C260.003 310.503 259.789 309.486 260.498 308.776C261.189 308.086 261.917 308.31 262.766 309.159L265.454 311.847L266.257 311.044L263.41 308.198C262.178 306.966 260.937 307.068 260.031 307.974C259.387 308.618 259.238 309.495 259.453 310.326C258.594 309.99 257.801 310.204 257.213 310.792C256.624 311.38 256.484 312.155 256.652 312.865L256.4 312.613L256.046 312.258L255.243 313.061ZM265.033 307.751C266.47 309.188 268.346 309.235 269.644 307.938C270.932 306.65 270.894 304.764 269.457 303.327C268.057 301.927 266.144 301.861 264.855 303.15C263.558 304.447 263.633 306.351 265.033 307.751ZM269.018 307.312C268.16 308.171 266.918 307.975 265.864 306.92C264.809 305.866 264.65 304.624 265.49 303.784C266.33 302.944 267.572 303.103 268.626 304.158C269.681 305.212 269.877 306.454 269.018 307.312Z" fill="black"/>
</g>
</svg>
