<svg width="291" height="348" viewBox="0 0 291 348" fill="none" xmlns="http://www.w3.org/2000/svg">
<g opacity="0.1">
<path fill-rule="evenodd" clip-rule="evenodd" d="M10.6066 35.2157C4.74874 41.0735 4.74874 50.571 10.6066 56.4289C16.4645 62.2867 25.9619 62.2867 31.8198 56.4289L56.215 32.0337C62.0729 26.1758 62.0729 16.6783 56.215 10.8205C50.3571 4.96262 40.8596 4.96262 35.0018 10.8205L10.6066 35.2157ZM18.4187 42.1961L24.9524 48.7297L27.1178 46.5643C29.2926 44.3895 29.1339 41.9721 27.1458 39.984C24.8217 37.6598 22.4976 38.1172 20.3788 40.236L18.4187 42.1961ZM26.2964 45.9483L25.0831 47.1617L19.9775 42.0561L21.1535 40.88C22.9363 39.0972 24.6257 39.2372 26.2591 40.8707C28.0885 42.7001 27.8645 44.3802 26.2964 45.9483ZM28.9907 40.1552C30.5495 41.7139 32.2389 41.7232 33.5829 40.3792C34.8617 39.1004 34.7403 37.747 34.0403 36.8603L33.2469 37.6537C33.8256 38.4564 33.5176 39.1938 32.9669 39.7445C32.1922 40.5192 31.0068 40.5285 29.9614 39.5205L33.3776 36.1043L33.2189 35.9456C31.7722 34.4989 30.0921 34.2935 28.748 35.6376C27.516 36.8697 27.6093 38.7738 28.9907 40.1552ZM31.9495 36.3936L29.4201 38.9231C28.72 38.1111 28.6267 37.0283 29.3827 36.2723C30.1668 35.4883 31.1468 35.5909 31.9495 36.3936ZM32.0808 32.6035L36.5797 37.1024L37.3824 36.2997L34.7409 33.6583C33.9942 32.9115 33.7982 31.8568 34.4982 31.1568C35.1609 30.4941 35.917 30.7274 36.7757 31.5861L39.4358 34.2463L40.2385 33.4436L37.5597 30.7648C36.841 30.0461 36.6264 29.0287 37.3357 28.3193C38.0264 27.6286 38.7545 27.8526 39.6038 28.702L42.292 31.3901L43.0947 30.5874L40.2479 27.7406C39.0158 26.5086 37.7744 26.6112 36.869 27.5166C36.225 28.1606 36.0757 29.038 36.2903 29.8687C35.4316 29.5327 34.6382 29.7474 34.0502 30.3354C33.4622 30.9234 33.3222 31.6982 33.4902 32.4075L33.2382 32.1555L32.8835 31.8008L32.0808 32.6035ZM41.8705 27.2941C43.3079 28.7315 45.184 28.7781 46.4814 27.4807C47.7695 26.1927 47.7321 24.3072 46.2947 22.8698C44.8946 21.4698 42.9812 21.4044 41.6932 22.6925C40.3958 23.9899 40.4704 25.894 41.8705 27.2941ZM45.856 26.8554C44.9973 27.7141 43.7559 27.5181 42.7012 26.4633C41.6465 25.4086 41.4878 24.1672 42.3278 23.3272C43.1679 22.4871 44.4093 22.6458 45.464 23.7005C46.5187 24.7553 46.7147 25.9967 45.856 26.8554Z" fill="white"/>
</g>
<g opacity="0.1">
<path fill-rule="evenodd" clip-rule="evenodd" d="M10.6066 91.3055C4.74874 97.1634 4.74874 106.661 10.6066 112.519C16.4645 118.377 25.9619 118.377 31.8198 112.519L56.71 87.6286C62.5678 81.7707 62.5678 72.2732 56.71 66.4153C50.8521 60.5575 41.3546 60.5575 35.4968 66.4154L10.6066 91.3055ZM18.4187 98.2859L24.9524 104.82L27.1178 102.654C29.2926 100.479 29.1339 98.0619 27.1458 96.0738C24.8217 93.7497 22.4976 94.207 20.3788 96.3258L18.4187 98.2859ZM26.2964 102.038L25.0831 103.251L19.9775 98.1459L21.1535 96.9698C22.9363 95.1871 24.6257 95.3271 26.2591 96.9605C28.0885 98.7899 27.8645 100.47 26.2964 102.038ZM28.9907 96.245C30.5495 97.8038 32.2389 97.8131 33.5829 96.469C34.8617 95.1903 34.7403 93.8369 34.0403 92.9502L33.2469 93.7436C33.8256 94.5463 33.5176 95.2836 32.9669 95.8343C32.1922 96.609 31.0068 96.6184 29.9614 95.6103L33.3776 92.1941L33.2189 92.0355C31.7722 90.5887 30.0921 90.3834 28.748 91.7274C27.516 92.9595 27.6093 94.8636 28.9907 96.245ZM31.9495 92.4835L29.4201 95.013C28.72 94.2009 28.6267 93.1182 29.3827 92.3621C30.1668 91.5781 31.1468 91.6808 31.9495 92.4835ZM32.0808 88.6934L36.5797 93.1923L37.3824 92.3896L34.7409 89.7481C33.9942 89.0014 33.7982 87.9467 34.4982 87.2466C35.1609 86.5839 35.917 86.8173 36.7757 87.676L39.4358 90.3361L40.2385 89.5334L37.5597 86.8546C36.841 86.1359 36.6263 85.1185 37.3357 84.4092C38.0264 83.7185 38.7545 83.9425 39.6038 84.7918L42.292 87.48L43.0947 86.6773L40.2479 83.8305C39.0158 82.5984 37.7744 82.7011 36.869 83.6065C36.225 84.2505 36.0757 85.1279 36.2903 85.9586C35.4316 85.6226 34.6382 85.8372 34.0502 86.4253C33.4622 87.0133 33.3222 87.788 33.4902 88.4974L33.2382 88.2454L32.8835 87.8907L32.0808 88.6934ZM41.8705 83.3839C43.3079 84.8213 45.184 84.868 46.4814 83.5706C47.7695 82.2825 47.7321 80.3971 46.2947 78.9597C44.8946 77.5596 42.9812 77.4943 41.6932 78.7823C40.3958 80.0797 40.4704 81.9838 41.8705 83.3839ZM45.856 82.9452C44.9973 83.8039 43.7559 83.6079 42.7012 82.5532C41.6465 81.4985 41.4878 80.2571 42.3279 79.417C43.1679 78.577 44.4093 78.7357 45.464 79.7904C46.5187 80.8451 46.7147 82.0865 45.856 82.9452Z" fill="white"/>
</g>
<g opacity="0.1">
<path fill-rule="evenodd" clip-rule="evenodd" d="M10.6066 147.399C4.74874 153.257 4.74874 162.755 10.6066 168.612C16.4645 174.47 25.9619 174.47 31.8198 168.612L56.71 143.722C62.5678 137.864 62.5678 128.367 56.71 122.509C50.8521 116.651 41.3546 116.651 35.4968 122.509L10.6066 147.399ZM18.4187 154.38L24.9524 160.913L27.1178 158.748C29.2926 156.573 29.1339 154.156 27.1458 152.168C24.8217 149.843 22.4976 150.301 20.3788 152.42L18.4187 154.38ZM26.2964 158.132L25.0831 159.345L19.9775 154.24L21.1535 153.064C22.9363 151.281 24.6257 151.421 26.2591 153.054C28.0885 154.884 27.8645 156.564 26.2964 158.132ZM28.9907 152.339C30.5495 153.898 32.2389 153.907 33.5829 152.563C34.8617 151.284 34.7403 149.931 34.0403 149.044L33.2469 149.837C33.8256 150.64 33.5176 151.377 32.9669 151.928C32.1922 152.703 31.0068 152.712 29.9614 151.704L33.3776 148.288L33.2189 148.129C31.7722 146.682 30.0921 146.477 28.748 147.821C27.516 149.053 27.6093 150.957 28.9907 152.339ZM31.9495 148.577L29.4201 151.107C28.72 150.295 28.6267 149.212 29.3827 148.456C30.1668 147.672 31.1468 147.775 31.9495 148.577ZM32.0808 144.787L36.5797 149.286L37.3824 148.483L34.7409 145.842C33.9942 145.095 33.7982 144.04 34.4982 143.34C35.1609 142.678 35.917 142.911 36.7757 143.77L39.4358 146.43L40.2385 145.627L37.5597 142.948C36.841 142.23 36.6264 141.212 37.3357 140.503C38.0264 139.812 38.7545 140.036 39.6038 140.886L42.292 143.574L43.0947 142.771L40.2479 139.924C39.0158 138.692 37.7744 138.795 36.869 139.7C36.225 140.344 36.0757 141.222 36.2903 142.052C35.4316 141.716 34.6383 141.931 34.0502 142.519C33.4622 143.107 33.3222 143.882 33.4902 144.591L33.2382 144.339L32.8835 143.984L32.0808 144.787ZM41.8705 139.478C43.3079 140.915 45.184 140.962 46.4814 139.664C47.7695 138.376 47.7321 136.491 46.2947 135.053C44.8947 133.653 42.9812 133.588 41.6932 134.876C40.3958 136.173 40.4704 138.078 41.8705 139.478ZM45.856 139.039C44.9973 139.898 43.7559 139.702 42.7012 138.647C41.6465 137.592 41.4878 136.351 42.3279 135.511C43.1679 134.671 44.4093 134.829 45.464 135.884C46.5187 136.939 46.7147 138.18 45.856 139.039Z" fill="white"/>
</g>
<g opacity="0.1">
<path fill-rule="evenodd" clip-rule="evenodd" d="M10.6066 203.489C4.74874 209.347 4.74874 218.844 10.6066 224.702C16.4645 230.56 25.9619 230.56 31.8198 224.702L56.71 199.812C62.5678 193.954 62.5678 184.457 56.71 178.599C50.8521 172.741 41.3546 172.741 35.4968 178.599L10.6066 203.489ZM18.4187 210.47L24.9524 217.003L27.1178 214.838C29.2926 212.663 29.1339 210.245 27.1458 208.257C24.8217 205.933 22.4976 206.391 20.3788 208.509L18.4187 210.47ZM26.2964 214.222L25.0831 215.435L19.9775 210.329L21.1535 209.153C22.9363 207.371 24.6257 207.511 26.2591 209.144C28.0885 210.974 27.8645 212.654 26.2964 214.222ZM28.9907 208.429C30.5495 209.987 32.2389 209.997 33.5829 208.653C34.8617 207.374 34.7403 206.02 34.0403 205.134L33.2469 205.927C33.8256 206.73 33.5176 207.467 32.9669 208.018C32.1922 208.793 31.0068 208.802 29.9614 207.794L33.3776 204.378L33.2189 204.219C31.7722 202.772 30.0921 202.567 28.748 203.911C27.516 205.143 27.6093 207.047 28.9907 208.429ZM31.9495 204.667L29.4201 207.197C28.72 206.385 28.6267 205.302 29.3827 204.546C30.1668 203.762 31.1468 203.864 31.9495 204.667ZM32.0808 200.877L36.5797 205.376L37.3824 204.573L34.7409 201.932C33.9942 201.185 33.7982 200.13 34.4982 199.43C35.1609 198.768 35.917 199.001 36.7757 199.86L39.4358 202.52L40.2385 201.717L37.5597 199.038C36.841 198.32 36.6264 197.302 37.3357 196.593C38.0264 195.902 38.7545 196.126 39.6038 196.975L42.292 199.664L43.0947 198.861L40.2479 196.014C39.0158 194.782 37.7744 194.885 36.869 195.79C36.225 196.434 36.0757 197.311 36.2903 198.142C35.4316 197.806 34.6383 198.021 34.0502 198.609C33.4622 199.197 33.3222 199.972 33.4902 200.681L33.2382 200.429L32.8835 200.074L32.0808 200.877ZM41.8705 195.567C43.3079 197.005 45.184 197.052 46.4814 195.754C47.7695 194.466 47.7321 192.581 46.2947 191.143C44.8947 189.743 42.9812 189.678 41.6932 190.966C40.3958 192.263 40.4704 194.167 41.8705 195.567ZM45.856 195.129C44.9973 195.988 43.7559 195.792 42.7012 194.737C41.6465 193.682 41.4878 192.441 42.3279 191.601C43.1679 190.761 44.4093 190.919 45.464 191.974C46.5187 193.029 46.7147 194.27 45.856 195.129Z" fill="white"/>
</g>
<g opacity="0.1">
<path fill-rule="evenodd" clip-rule="evenodd" d="M10.6066 259.583C4.74874 265.441 4.74874 274.938 10.6066 280.796C16.4645 286.654 25.9619 286.654 31.8198 280.796L56.71 255.906C62.5678 250.048 62.5678 240.551 56.71 234.693C50.8521 228.835 41.3546 228.835 35.4968 234.693L10.6066 259.583ZM18.4187 266.563L24.9524 273.097L27.1178 270.931C29.2926 268.757 29.1339 266.339 27.1458 264.351C24.8217 262.027 22.4976 262.484 20.3788 264.603L18.4187 266.563ZM26.2964 270.315L25.0831 271.529L19.9775 266.423L21.1535 265.247C22.9363 263.464 24.6257 263.604 26.2591 265.238C28.0885 267.067 27.8645 268.747 26.2964 270.315ZM28.9907 264.522C30.5495 266.081 32.2389 266.09 33.5829 264.746C34.8617 263.468 34.7403 262.114 34.0403 261.228L33.2469 262.021C33.8256 262.824 33.5176 263.561 32.9669 264.112C32.1922 264.886 31.0068 264.896 29.9614 263.888L33.3776 260.471L33.2189 260.313C31.7722 258.866 30.0921 258.661 28.748 260.005C27.516 261.237 27.6093 263.141 28.9907 264.522ZM31.9495 260.761L29.4201 263.29C28.72 262.478 28.6267 261.396 29.3827 260.64C30.1668 259.855 31.1468 259.958 31.9495 260.761ZM32.0808 256.971L36.5797 261.47L37.3824 260.667L34.7409 258.025C33.9942 257.279 33.7982 256.224 34.4982 255.524C35.1609 254.861 35.917 255.095 36.7757 255.953L39.4358 258.613L40.2385 257.811L37.5597 255.132C36.841 254.413 36.6264 253.396 37.3357 252.687C38.0264 251.996 38.7545 252.22 39.6038 253.069L42.292 255.757L43.0947 254.955L40.2479 252.108C39.0158 250.876 37.7744 250.978 36.869 251.884C36.225 252.528 36.0757 253.405 36.2903 254.236C35.4316 253.9 34.6382 254.115 34.0502 254.703C33.4622 255.291 33.3222 256.065 33.4902 256.775L33.2382 256.523L32.8835 256.168L32.0808 256.971ZM41.8705 251.661C43.3079 253.099 45.184 253.145 46.4814 251.848C47.7695 250.56 47.7321 248.674 46.2947 247.237C44.8946 245.837 42.9812 245.772 41.6932 247.06C40.3958 248.357 40.4704 250.261 41.8705 251.661ZM45.856 251.223C44.9973 252.081 43.7559 251.885 42.7012 250.831C41.6465 249.776 41.4878 248.534 42.3278 247.694C43.1679 246.854 44.4093 247.013 45.464 248.068C46.5187 249.122 46.7147 250.364 45.856 251.223Z" fill="white"/>
</g>
<g opacity="0.1">
<path fill-rule="evenodd" clip-rule="evenodd" d="M10.6066 315.673C4.74874 321.531 4.74874 331.028 10.6066 336.886C16.4645 342.744 25.9619 342.744 31.8198 336.886L56.71 311.996C62.5678 306.138 62.5678 296.64 56.71 290.783C50.8521 284.925 41.3546 284.925 35.4968 290.783L10.6066 315.673ZM18.4187 322.653L24.9524 329.187L27.1178 327.021C29.2926 324.847 29.1339 322.429 27.1458 320.441C24.8217 318.117 22.4976 318.574 20.3788 320.693L18.4187 322.653ZM26.2964 326.405L25.0831 327.619L19.9775 322.513L21.1535 321.337C22.9363 319.554 24.6257 319.694 26.2591 321.328C28.0885 323.157 27.8645 324.837 26.2964 326.405ZM28.9907 320.612C30.5495 322.171 32.2389 322.18 33.5829 320.836C34.8617 319.557 34.7403 318.204 34.0403 317.317L33.2469 318.111C33.8256 318.913 33.5176 319.651 32.9669 320.202C32.1922 320.976 31.0068 320.986 29.9614 319.978L33.3776 316.561L33.2189 316.403C31.7722 314.956 30.0921 314.751 28.748 316.095C27.516 317.327 27.6093 319.231 28.9907 320.612ZM31.9495 316.851L29.4201 319.38C28.72 318.568 28.6267 317.485 29.3827 316.729C30.1668 315.945 31.1468 316.048 31.9495 316.851ZM32.0808 313.061L36.5797 317.559L37.3824 316.757L34.7409 314.115C33.9942 313.369 33.7982 312.314 34.4982 311.614C35.1609 310.951 35.917 311.184 36.7757 312.043L39.4358 314.703L40.2385 313.901L37.5597 311.222C36.841 310.503 36.6264 309.486 37.3357 308.776C38.0264 308.086 38.7545 308.31 39.6038 309.159L42.292 311.847L43.0947 311.044L40.2479 308.198C39.0158 306.966 37.7744 307.068 36.869 307.974C36.225 308.618 36.0757 309.495 36.2903 310.326C35.4316 309.99 34.6383 310.204 34.0502 310.792C33.4622 311.38 33.3222 312.155 33.4902 312.865L33.2382 312.613L32.8835 312.258L32.0808 313.061ZM41.8705 307.751C43.3079 309.188 45.184 309.235 46.4814 307.938C47.7695 306.65 47.7321 304.764 46.2947 303.327C44.8947 301.927 42.9812 301.861 41.6932 303.15C40.3958 304.447 40.4704 306.351 41.8705 307.751ZM45.856 307.312C44.9973 308.171 43.7559 307.975 42.7012 306.92C41.6465 305.866 41.4878 304.624 42.3279 303.784C43.1679 302.944 44.4093 303.103 45.464 304.158C46.5187 305.212 46.7147 306.454 45.856 307.312Z" fill="white"/>
</g>
<g opacity="0.1">
<path fill-rule="evenodd" clip-rule="evenodd" d="M66.3989 35.2157C60.541 41.0735 60.541 50.571 66.3989 56.4289C72.2568 62.2867 81.7542 62.2867 87.6121 56.4289L112.007 32.0337C117.865 26.1758 117.865 16.6783 112.007 10.8205C106.149 4.96262 96.6519 4.96262 90.7941 10.8205L66.3989 35.2157ZM74.211 42.1961L80.7447 48.7297L82.9101 46.5643C85.0849 44.3895 84.9262 41.9721 82.9381 39.984C80.614 37.6598 78.2899 38.1172 76.1711 40.236L74.211 42.1961ZM82.0887 45.9483L80.8754 47.1617L75.7698 42.0561L76.9458 40.88C78.7286 39.0972 80.418 39.2372 82.0514 40.8707C83.8808 42.7001 83.6568 44.3802 82.0887 45.9483ZM84.783 40.1552C86.3418 41.7139 88.0312 41.7232 89.3752 40.3792C90.654 39.1004 90.5326 37.747 89.8326 36.8603L89.0392 37.6537C89.6179 38.4564 89.3099 39.1938 88.7592 39.7445C87.9845 40.5192 86.7991 40.5285 85.7537 39.5205L89.1699 36.1043L89.0112 35.9456C87.5645 34.4989 85.8844 34.2935 84.5403 35.6376C83.3083 36.8697 83.4016 38.7738 84.783 40.1552ZM87.7418 36.3936L85.2124 38.9231C84.5123 38.1111 84.419 37.0283 85.175 36.2723C85.9591 35.4883 86.9391 35.5909 87.7418 36.3936ZM87.8731 32.6035L92.372 37.1024L93.1747 36.2997L90.5332 33.6583C89.7865 32.9115 89.5905 31.8568 90.2905 31.1568C90.9532 30.4941 91.7093 30.7274 92.568 31.5861L95.2281 34.2463L96.0308 33.4436L93.352 30.7648C92.6333 30.0461 92.4186 29.0287 93.128 28.3193C93.8187 27.6286 94.5468 27.8526 95.3961 28.702L98.0843 31.3901L98.887 30.5874L96.0402 27.7406C94.8081 26.5086 93.5667 26.6112 92.6613 27.5166C92.0173 28.1606 91.868 29.038 92.0826 29.8687C91.2239 29.5327 90.4305 29.7474 89.8425 30.3354C89.2545 30.9234 89.1145 31.6982 89.2825 32.4075L89.0305 32.1555L88.6758 31.8008L87.8731 32.6035ZM97.6628 27.2941C99.1002 28.7315 100.976 28.7781 102.274 27.4807C103.562 26.1927 103.524 24.3072 102.087 22.8698C100.687 21.4698 98.7735 21.4044 97.4854 22.6925C96.188 23.9899 96.2627 25.894 97.6628 27.2941ZM101.648 26.8554C100.79 27.7141 99.5482 27.5181 98.4935 26.4633C97.4388 25.4086 97.2801 24.1672 98.1201 23.3272C98.9602 22.4871 100.202 22.6458 101.256 23.7005C102.311 24.7553 102.507 25.9967 101.648 26.8554Z" fill="white"/>
</g>
<g opacity="0.1">
<path fill-rule="evenodd" clip-rule="evenodd" d="M66.3989 91.3055C60.541 97.1634 60.541 106.661 66.3989 112.519C72.2568 118.377 81.7542 118.377 87.6121 112.519L112.502 87.6286C118.36 81.7707 118.36 72.2732 112.502 66.4153C106.644 60.5575 97.1469 60.5575 91.2891 66.4154L66.3989 91.3055ZM74.211 98.2859L80.7447 104.82L82.9101 102.654C85.0849 100.479 84.9262 98.0619 82.9381 96.0738C80.614 93.7497 78.2899 94.207 76.1711 96.3258L74.211 98.2859ZM82.0887 102.038L80.8754 103.251L75.7698 98.1459L76.9458 96.9698C78.7286 95.1871 80.418 95.3271 82.0514 96.9605C83.8808 98.7899 83.6568 100.47 82.0887 102.038ZM84.783 96.245C86.3418 97.8038 88.0312 97.8131 89.3752 96.469C90.654 95.1903 90.5326 93.8369 89.8326 92.9502L89.0392 93.7436C89.6179 94.5463 89.3099 95.2836 88.7592 95.8343C87.9845 96.609 86.7991 96.6184 85.7537 95.6103L89.1699 92.1941L89.0112 92.0355C87.5645 90.5887 85.8844 90.3834 84.5403 91.7274C83.3083 92.9595 83.4016 94.8636 84.783 96.245ZM87.7418 92.4835L85.2124 95.013C84.5123 94.2009 84.419 93.1182 85.175 92.3621C85.9591 91.5781 86.9391 91.6808 87.7418 92.4835ZM87.8731 88.6934L92.372 93.1923L93.1747 92.3896L90.5332 89.7481C89.7865 89.0014 89.5905 87.9467 90.2905 87.2466C90.9532 86.5839 91.7093 86.8173 92.568 87.676L95.2281 90.3361L96.0308 89.5334L93.352 86.8546C92.6333 86.1359 92.4186 85.1185 93.128 84.4092C93.8187 83.7185 94.5468 83.9425 95.3961 84.7918L98.0843 87.48L98.887 86.6773L96.0402 83.8305C94.8081 82.5984 93.5667 82.7011 92.6613 83.6065C92.0173 84.2505 91.868 85.1279 92.0826 85.9586C91.2239 85.6226 90.4305 85.8372 89.8425 86.4253C89.2545 87.0133 89.1145 87.788 89.2825 88.4974L89.0305 88.2454L88.6758 87.8907L87.8731 88.6934ZM97.6628 83.3839C99.1002 84.8213 100.976 84.868 102.274 83.5706C103.562 82.2825 103.524 80.3971 102.087 78.9597C100.687 77.5596 98.7735 77.4943 97.4854 78.7823C96.188 80.0797 96.2627 81.9838 97.6628 83.3839ZM101.648 82.9452C100.79 83.8039 99.5482 83.6079 98.4935 82.5532C97.4388 81.4985 97.2801 80.2571 98.1201 79.417C98.9602 78.577 100.202 78.7357 101.256 79.7904C102.311 80.8451 102.507 82.0865 101.648 82.9452Z" fill="white"/>
</g>
<g opacity="0.1">
<path fill-rule="evenodd" clip-rule="evenodd" d="M66.3989 147.399C60.541 153.257 60.541 162.755 66.3989 168.612C72.2568 174.47 81.7542 174.47 87.6121 168.612L112.502 143.722C118.36 137.864 118.36 128.367 112.502 122.509C106.644 116.651 97.1469 116.651 91.2891 122.509L66.3989 147.399ZM74.211 154.38L80.7447 160.913L82.9101 158.748C85.0849 156.573 84.9262 154.156 82.9381 152.168C80.614 149.843 78.2899 150.301 76.1711 152.42L74.211 154.38ZM82.0887 158.132L80.8753 159.345L75.7698 154.24L76.9458 153.064C78.7286 151.281 80.418 151.421 82.0514 153.054C83.8808 154.884 83.6568 156.564 82.0887 158.132ZM84.783 152.339C86.3418 153.898 88.0312 153.907 89.3752 152.563C90.654 151.284 90.5326 149.931 89.8326 149.044L89.0392 149.837C89.6179 150.64 89.3099 151.377 88.7592 151.928C87.9845 152.703 86.7991 152.712 85.7537 151.704L89.1699 148.288L89.0112 148.129C87.5645 146.682 85.8844 146.477 84.5403 147.821C83.3083 149.053 83.4016 150.957 84.783 152.339ZM87.7418 148.577L85.2124 151.107C84.5123 150.295 84.419 149.212 85.175 148.456C85.9591 147.672 86.9391 147.775 87.7418 148.577ZM87.8731 144.787L92.372 149.286L93.1747 148.483L90.5332 145.842C89.7865 145.095 89.5905 144.04 90.2905 143.34C90.9532 142.678 91.7093 142.911 92.568 143.77L95.2281 146.43L96.0308 145.627L93.352 142.948C92.6333 142.23 92.4186 141.212 93.128 140.503C93.8187 139.812 94.5468 140.036 95.3961 140.886L98.0843 143.574L98.887 142.771L96.0402 139.924C94.8081 138.692 93.5667 138.795 92.6613 139.7C92.0173 140.344 91.868 141.222 92.0826 142.052C91.2239 141.716 90.4305 141.931 89.8425 142.519C89.2545 143.107 89.1145 143.882 89.2825 144.591L89.0305 144.339L88.6758 143.984L87.8731 144.787ZM97.6628 139.478C99.1002 140.915 100.976 140.962 102.274 139.664C103.562 138.376 103.524 136.491 102.087 135.053C100.687 133.653 98.7735 133.588 97.4854 134.876C96.188 136.173 96.2627 138.078 97.6628 139.478ZM101.648 139.039C100.79 139.898 99.5482 139.702 98.4935 138.647C97.4388 137.592 97.2801 136.351 98.1201 135.511C98.9602 134.671 100.202 134.829 101.256 135.884C102.311 136.939 102.507 138.18 101.648 139.039Z" fill="white"/>
</g>
<g opacity="0.1">
<path fill-rule="evenodd" clip-rule="evenodd" d="M66.3989 203.489C60.541 209.347 60.541 218.844 66.3989 224.702C72.2568 230.56 81.7542 230.56 87.6121 224.702L112.502 199.812C118.36 193.954 118.36 184.457 112.502 178.599C106.644 172.741 97.1469 172.741 91.2891 178.599L66.3989 203.489ZM74.211 210.47L80.7447 217.003L82.9101 214.838C85.0849 212.663 84.9262 210.245 82.9381 208.257C80.614 205.933 78.2899 206.391 76.1711 208.509L74.211 210.47ZM82.0887 214.222L80.8754 215.435L75.7698 210.329L76.9458 209.153C78.7286 207.371 80.418 207.511 82.0514 209.144C83.8808 210.974 83.6568 212.654 82.0887 214.222ZM84.783 208.429C86.3418 209.987 88.0312 209.997 89.3752 208.653C90.654 207.374 90.5326 206.02 89.8326 205.134L89.0392 205.927C89.6179 206.73 89.3099 207.467 88.7592 208.018C87.9845 208.793 86.7991 208.802 85.7537 207.794L89.1699 204.378L89.0112 204.219C87.5645 202.772 85.8844 202.567 84.5403 203.911C83.3083 205.143 83.4016 207.047 84.783 208.429ZM87.7418 204.667L85.2124 207.197C84.5123 206.385 84.419 205.302 85.175 204.546C85.9591 203.762 86.9391 203.864 87.7418 204.667ZM87.8731 200.877L92.372 205.376L93.1747 204.573L90.5332 201.932C89.7865 201.185 89.5905 200.13 90.2905 199.43C90.9532 198.768 91.7093 199.001 92.568 199.86L95.2281 202.52L96.0308 201.717L93.352 199.038C92.6333 198.32 92.4186 197.302 93.128 196.593C93.8187 195.902 94.5468 196.126 95.3961 196.975L98.0843 199.664L98.887 198.861L96.0402 196.014C94.8081 194.782 93.5667 194.885 92.6613 195.79C92.0173 196.434 91.868 197.311 92.0826 198.142C91.2239 197.806 90.4305 198.021 89.8425 198.609C89.2545 199.197 89.1145 199.972 89.2825 200.681L89.0305 200.429L88.6758 200.074L87.8731 200.877ZM97.6628 195.567C99.1002 197.005 100.976 197.052 102.274 195.754C103.562 194.466 103.524 192.581 102.087 191.143C100.687 189.743 98.7735 189.678 97.4854 190.966C96.188 192.263 96.2627 194.167 97.6628 195.567ZM101.648 195.129C100.79 195.988 99.5482 195.792 98.4935 194.737C97.4388 193.682 97.2801 192.441 98.1201 191.601C98.9602 190.761 100.202 190.919 101.256 191.974C102.311 193.029 102.507 194.27 101.648 195.129Z" fill="white"/>
</g>
<g opacity="0.1">
<path fill-rule="evenodd" clip-rule="evenodd" d="M66.3989 259.583C60.541 265.441 60.541 274.938 66.3989 280.796C72.2568 286.654 81.7542 286.654 87.6121 280.796L112.502 255.906C118.36 250.048 118.36 240.551 112.502 234.693C106.644 228.835 97.1469 228.835 91.2891 234.693L66.3989 259.583ZM74.211 266.563L80.7447 273.097L82.9101 270.931C85.0849 268.757 84.9262 266.339 82.9381 264.351C80.614 262.027 78.2899 262.484 76.1711 264.603L74.211 266.563ZM82.0887 270.315L80.8754 271.529L75.7698 266.423L76.9458 265.247C78.7286 263.464 80.418 263.604 82.0514 265.238C83.8808 267.067 83.6568 268.747 82.0887 270.315ZM84.783 264.522C86.3418 266.081 88.0312 266.09 89.3752 264.746C90.654 263.468 90.5326 262.114 89.8326 261.228L89.0392 262.021C89.6179 262.824 89.3099 263.561 88.7592 264.112C87.9845 264.886 86.7991 264.896 85.7537 263.888L89.1699 260.471L89.0112 260.313C87.5645 258.866 85.8844 258.661 84.5403 260.005C83.3083 261.237 83.4016 263.141 84.783 264.522ZM87.7418 260.761L85.2124 263.29C84.5123 262.478 84.419 261.396 85.175 260.64C85.9591 259.855 86.9391 259.958 87.7418 260.761ZM87.8731 256.971L92.372 261.47L93.1747 260.667L90.5332 258.025C89.7865 257.279 89.5905 256.224 90.2905 255.524C90.9532 254.861 91.7093 255.095 92.568 255.953L95.2281 258.613L96.0308 257.811L93.352 255.132C92.6333 254.413 92.4186 253.396 93.128 252.687C93.8187 251.996 94.5468 252.22 95.3961 253.069L98.0843 255.757L98.887 254.955L96.0402 252.108C94.8081 250.876 93.5667 250.978 92.6613 251.884C92.0173 252.528 91.868 253.405 92.0826 254.236C91.2239 253.9 90.4305 254.115 89.8425 254.703C89.2545 255.291 89.1145 256.065 89.2825 256.775L89.0305 256.523L88.6758 256.168L87.8731 256.971ZM97.6628 251.661C99.1002 253.099 100.976 253.145 102.274 251.848C103.562 250.56 103.524 248.674 102.087 247.237C100.687 245.837 98.7735 245.772 97.4854 247.06C96.188 248.357 96.2627 250.261 97.6628 251.661ZM101.648 251.223C100.79 252.081 99.5482 251.885 98.4935 250.831C97.4388 249.776 97.2801 248.534 98.1201 247.694C98.9602 246.854 100.202 247.013 101.256 248.068C102.311 249.122 102.507 250.364 101.648 251.223Z" fill="white"/>
</g>
<g opacity="0.1">
<path fill-rule="evenodd" clip-rule="evenodd" d="M66.3989 315.673C60.541 321.531 60.541 331.028 66.3989 336.886C72.2568 342.744 81.7542 342.744 87.6121 336.886L112.502 311.996C118.36 306.138 118.36 296.64 112.502 290.783C106.644 284.925 97.1469 284.925 91.2891 290.783L66.3989 315.673ZM74.211 322.653L80.7447 329.187L82.9101 327.021C85.0849 324.847 84.9262 322.429 82.9381 320.441C80.614 318.117 78.2899 318.574 76.1711 320.693L74.211 322.653ZM82.0887 326.405L80.8754 327.619L75.7698 322.513L76.9458 321.337C78.7286 319.554 80.418 319.694 82.0514 321.328C83.8808 323.157 83.6568 324.837 82.0887 326.405ZM84.783 320.612C86.3418 322.171 88.0312 322.18 89.3752 320.836C90.654 319.557 90.5326 318.204 89.8326 317.317L89.0392 318.111C89.6179 318.913 89.3099 319.651 88.7592 320.202C87.9845 320.976 86.7991 320.986 85.7537 319.978L89.1699 316.561L89.0112 316.403C87.5645 314.956 85.8844 314.751 84.5403 316.095C83.3083 317.327 83.4016 319.231 84.783 320.612ZM87.7418 316.851L85.2124 319.38C84.5123 318.568 84.419 317.485 85.175 316.729C85.9591 315.945 86.9391 316.048 87.7418 316.851ZM87.8731 313.061L92.372 317.559L93.1747 316.757L90.5332 314.115C89.7865 313.369 89.5905 312.314 90.2905 311.614C90.9532 310.951 91.7093 311.184 92.568 312.043L95.2281 314.703L96.0308 313.901L93.352 311.222C92.6333 310.503 92.4186 309.486 93.128 308.776C93.8187 308.086 94.5468 308.31 95.3961 309.159L98.0843 311.847L98.887 311.044L96.0402 308.198C94.8081 306.966 93.5667 307.068 92.6613 307.974C92.0173 308.618 91.868 309.495 92.0826 310.326C91.2239 309.99 90.4305 310.204 89.8425 310.792C89.2545 311.38 89.1145 312.155 89.2825 312.865L89.0305 312.613L88.6758 312.258L87.8731 313.061ZM97.6628 307.751C99.1002 309.188 100.976 309.235 102.274 307.938C103.562 306.65 103.524 304.764 102.087 303.327C100.687 301.927 98.7735 301.861 97.4854 303.15C96.188 304.447 96.2627 306.351 97.6628 307.751ZM101.648 307.312C100.79 308.171 99.5482 307.975 98.4935 306.92C97.4388 305.866 97.2801 304.624 98.1201 303.784C98.9602 302.944 100.202 303.103 101.256 304.158C102.311 305.212 102.507 306.454 101.648 307.312Z" fill="white"/>
</g>
<g opacity="0.1">
<path fill-rule="evenodd" clip-rule="evenodd" d="M122.191 35.2157C116.333 41.0735 116.333 50.571 122.191 56.4289C128.049 62.2867 137.547 62.2867 143.404 56.4289L167.8 32.0337C173.657 26.1758 173.657 16.6783 167.8 10.8205C161.942 4.96262 152.444 4.96262 146.586 10.8205L122.191 35.2157ZM130.003 42.1961L136.537 48.7297L138.702 46.5643C140.877 44.3895 140.719 41.9721 138.73 39.984C136.406 37.6598 134.082 38.1172 131.963 40.236L130.003 42.1961ZM137.881 45.9483L136.668 47.1617L131.562 42.0561L132.738 40.88C134.521 39.0972 136.21 39.2372 137.844 40.8707C139.673 42.7001 139.449 44.3802 137.881 45.9483ZM140.575 40.1552C142.134 41.7139 143.823 41.7232 145.168 40.3792C146.446 39.1004 146.325 37.747 145.625 36.8603L144.832 37.6537C145.41 38.4564 145.102 39.1938 144.552 39.7445C143.777 40.5192 142.591 40.5285 141.546 39.5205L144.962 36.1043L144.804 35.9456C143.357 34.4989 141.677 34.2935 140.333 35.6376C139.101 36.8697 139.194 38.7738 140.575 40.1552ZM143.534 36.3936L141.005 38.9231C140.305 38.1111 140.211 37.0283 140.967 36.2723C141.751 35.4883 142.731 35.5909 143.534 36.3936ZM143.665 32.6035L148.164 37.1024L148.967 36.2997L146.326 33.6583C145.579 32.9115 145.383 31.8568 146.083 31.1568C146.746 30.4941 147.502 30.7274 148.36 31.5861L151.02 34.2463L151.823 33.4436L149.144 30.7648C148.426 30.0461 148.211 29.0287 148.92 28.3193C149.611 27.6286 150.339 27.8526 151.188 28.702L153.877 31.3901L154.679 30.5874L151.832 27.7406C150.6 26.5086 149.359 26.6112 148.454 27.5166C147.81 28.1606 147.66 29.038 147.875 29.8687C147.016 29.5327 146.223 29.7474 145.635 30.3354C145.047 30.9234 144.907 31.6982 145.075 32.4075L144.823 32.1555L144.468 31.8008L143.665 32.6035ZM153.455 27.2941C154.893 28.7315 156.769 28.7781 158.066 27.4807C159.354 26.1927 159.317 24.3072 157.879 22.8698C156.479 21.4698 154.566 21.4044 153.278 22.6925C151.98 23.9899 152.055 25.894 153.455 27.2941ZM157.441 26.8554C156.582 27.7141 155.341 27.5181 154.286 26.4633C153.231 25.4086 153.072 24.1672 153.912 23.3272C154.753 22.4871 155.994 22.6458 157.049 23.7005C158.103 24.7553 158.299 25.9967 157.441 26.8554Z" fill="white"/>
</g>
<g opacity="0.1">
<path fill-rule="evenodd" clip-rule="evenodd" d="M122.191 91.3055C116.333 97.1634 116.333 106.661 122.191 112.519C128.049 118.377 137.547 118.377 143.404 112.519L168.295 87.6286C174.152 81.7707 174.152 72.2732 168.295 66.4153C162.437 60.5575 152.939 60.5575 147.081 66.4154L122.191 91.3055ZM130.003 98.2859L136.537 104.82L138.702 102.654C140.877 100.479 140.719 98.0619 138.73 96.0738C136.406 93.7497 134.082 94.207 131.963 96.3258L130.003 98.2859ZM137.881 102.038L136.668 103.251L131.562 98.1459L132.738 96.9698C134.521 95.1871 136.21 95.3271 137.844 96.9605C139.673 98.7899 139.449 100.47 137.881 102.038ZM140.575 96.245C142.134 97.8038 143.823 97.8131 145.168 96.469C146.446 95.1903 146.325 93.8369 145.625 92.9502L144.832 93.7436C145.41 94.5463 145.102 95.2836 144.552 95.8343C143.777 96.609 142.591 96.6184 141.546 95.6103L144.962 92.1941L144.804 92.0355C143.357 90.5887 141.677 90.3834 140.333 91.7274C139.101 92.9595 139.194 94.8636 140.575 96.245ZM143.534 92.4835L141.005 95.013C140.305 94.2009 140.211 93.1182 140.967 92.3621C141.751 91.5781 142.731 91.6808 143.534 92.4835ZM143.665 88.6934L148.164 93.1923L148.967 92.3896L146.326 89.7481C145.579 89.0014 145.383 87.9467 146.083 87.2466C146.746 86.5839 147.502 86.8173 148.36 87.676L151.02 90.3361L151.823 89.5334L149.144 86.8546C148.426 86.1359 148.211 85.1185 148.92 84.4092C149.611 83.7185 150.339 83.9425 151.188 84.7918L153.877 87.48L154.679 86.6773L151.832 83.8305C150.6 82.5984 149.359 82.7011 148.454 83.6065C147.81 84.2505 147.66 85.1279 147.875 85.9586C147.016 85.6226 146.223 85.8372 145.635 86.4253C145.047 87.0133 144.907 87.788 145.075 88.4974L144.823 88.2454L144.468 87.8907L143.665 88.6934ZM153.455 83.3839C154.893 84.8213 156.769 84.868 158.066 83.5706C159.354 82.2825 159.317 80.3971 157.879 78.9597C156.479 77.5596 154.566 77.4943 153.278 78.7823C151.98 80.0797 152.055 81.9838 153.455 83.3839ZM157.441 82.9452C156.582 83.8039 155.341 83.6079 154.286 82.5532C153.231 81.4985 153.072 80.2571 153.912 79.417C154.753 78.577 155.994 78.7357 157.049 79.7904C158.103 80.8451 158.299 82.0865 157.441 82.9452Z" fill="white"/>
</g>
<g opacity="0.1">
<path fill-rule="evenodd" clip-rule="evenodd" d="M122.191 147.399C116.333 153.257 116.333 162.755 122.191 168.612C128.049 174.47 137.547 174.47 143.404 168.612L168.295 143.722C174.152 137.864 174.152 128.367 168.295 122.509C162.437 116.651 152.939 116.651 147.081 122.509L122.191 147.399ZM130.003 154.38L136.537 160.913L138.702 158.748C140.877 156.573 140.719 154.156 138.73 152.168C136.406 149.843 134.082 150.301 131.963 152.42L130.003 154.38ZM137.881 158.132L136.668 159.345L131.562 154.24L132.738 153.064C134.521 151.281 136.21 151.421 137.844 153.054C139.673 154.884 139.449 156.564 137.881 158.132ZM140.575 152.339C142.134 153.898 143.823 153.907 145.168 152.563C146.446 151.284 146.325 149.931 145.625 149.044L144.832 149.837C145.41 150.64 145.102 151.377 144.552 151.928C143.777 152.703 142.591 152.712 141.546 151.704L144.962 148.288L144.804 148.129C143.357 146.682 141.677 146.477 140.333 147.821C139.101 149.053 139.194 150.957 140.575 152.339ZM143.534 148.577L141.005 151.107C140.305 150.295 140.211 149.212 140.967 148.456C141.751 147.672 142.731 147.775 143.534 148.577ZM143.665 144.787L148.164 149.286L148.967 148.483L146.326 145.842C145.579 145.095 145.383 144.04 146.083 143.34C146.746 142.678 147.502 142.911 148.36 143.77L151.02 146.43L151.823 145.627L149.144 142.948C148.426 142.23 148.211 141.212 148.92 140.503C149.611 139.812 150.339 140.036 151.188 140.886L153.877 143.574L154.679 142.771L151.832 139.924C150.6 138.692 149.359 138.795 148.454 139.7C147.81 140.344 147.66 141.222 147.875 142.052C147.016 141.716 146.223 141.931 145.635 142.519C145.047 143.107 144.907 143.882 145.075 144.591L144.823 144.339L144.468 143.984L143.665 144.787ZM153.455 139.478C154.893 140.915 156.769 140.962 158.066 139.664C159.354 138.376 159.317 136.491 157.879 135.053C156.479 133.653 154.566 133.588 153.278 134.876C151.98 136.173 152.055 138.078 153.455 139.478ZM157.441 139.039C156.582 139.898 155.341 139.702 154.286 138.647C153.231 137.592 153.072 136.351 153.912 135.511C154.753 134.671 155.994 134.829 157.049 135.884C158.103 136.939 158.299 138.18 157.441 139.039Z" fill="white"/>
</g>
<g opacity="0.1">
<path fill-rule="evenodd" clip-rule="evenodd" d="M122.191 203.489C116.333 209.347 116.333 218.844 122.191 224.702C128.049 230.56 137.547 230.56 143.404 224.702L168.295 199.812C174.152 193.954 174.152 184.457 168.295 178.599C162.437 172.741 152.939 172.741 147.081 178.599L122.191 203.489ZM130.003 210.47L136.537 217.003L138.702 214.838C140.877 212.663 140.719 210.245 138.73 208.257C136.406 205.933 134.082 206.391 131.963 208.509L130.003 210.47ZM137.881 214.222L136.668 215.435L131.562 210.329L132.738 209.153C134.521 207.371 136.21 207.511 137.844 209.144C139.673 210.974 139.449 212.654 137.881 214.222ZM140.575 208.429C142.134 209.987 143.823 209.997 145.168 208.653C146.446 207.374 146.325 206.02 145.625 205.134L144.832 205.927C145.41 206.73 145.102 207.467 144.552 208.018C143.777 208.793 142.591 208.802 141.546 207.794L144.962 204.378L144.804 204.219C143.357 202.772 141.677 202.567 140.333 203.911C139.101 205.143 139.194 207.047 140.575 208.429ZM143.534 204.667L141.005 207.197C140.305 206.385 140.211 205.302 140.967 204.546C141.751 203.762 142.731 203.864 143.534 204.667ZM143.665 200.877L148.164 205.376L148.967 204.573L146.326 201.932C145.579 201.185 145.383 200.13 146.083 199.43C146.746 198.768 147.502 199.001 148.36 199.86L151.02 202.52L151.823 201.717L149.144 199.038C148.426 198.32 148.211 197.302 148.92 196.593C149.611 195.902 150.339 196.126 151.188 196.975L153.877 199.664L154.679 198.861L151.832 196.014C150.6 194.782 149.359 194.885 148.454 195.79C147.81 196.434 147.66 197.311 147.875 198.142C147.016 197.806 146.223 198.021 145.635 198.609C145.047 199.197 144.907 199.972 145.075 200.681L144.823 200.429L144.468 200.074L143.665 200.877ZM153.455 195.567C154.893 197.005 156.769 197.052 158.066 195.754C159.354 194.466 159.317 192.581 157.879 191.143C156.479 189.743 154.566 189.678 153.278 190.966C151.98 192.263 152.055 194.167 153.455 195.567ZM157.441 195.129C156.582 195.988 155.341 195.792 154.286 194.737C153.231 193.682 153.072 192.441 153.912 191.601C154.753 190.761 155.994 190.919 157.049 191.974C158.103 193.029 158.299 194.27 157.441 195.129Z" fill="white"/>
</g>
<g opacity="0.1">
<path fill-rule="evenodd" clip-rule="evenodd" d="M122.191 259.583C116.333 265.441 116.333 274.938 122.191 280.796C128.049 286.654 137.547 286.654 143.404 280.796L168.295 255.906C174.152 250.048 174.152 240.551 168.295 234.693C162.437 228.835 152.939 228.835 147.081 234.693L122.191 259.583ZM130.003 266.563L136.537 273.097L138.702 270.931C140.877 268.757 140.719 266.339 138.73 264.351C136.406 262.027 134.082 262.484 131.963 264.603L130.003 266.563ZM137.881 270.315L136.668 271.529L131.562 266.423L132.738 265.247C134.521 263.464 136.21 263.604 137.844 265.238C139.673 267.067 139.449 268.747 137.881 270.315ZM140.575 264.522C142.134 266.081 143.823 266.09 145.168 264.746C146.446 263.468 146.325 262.114 145.625 261.228L144.832 262.021C145.41 262.824 145.102 263.561 144.552 264.112C143.777 264.886 142.591 264.896 141.546 263.888L144.962 260.471L144.804 260.313C143.357 258.866 141.677 258.661 140.333 260.005C139.101 261.237 139.194 263.141 140.575 264.522ZM143.534 260.761L141.005 263.29C140.305 262.478 140.211 261.396 140.967 260.64C141.751 259.855 142.731 259.958 143.534 260.761ZM143.665 256.971L148.164 261.47L148.967 260.667L146.326 258.025C145.579 257.279 145.383 256.224 146.083 255.524C146.746 254.861 147.502 255.095 148.36 255.953L151.02 258.613L151.823 257.811L149.144 255.132C148.426 254.413 148.211 253.396 148.92 252.687C149.611 251.996 150.339 252.22 151.188 253.069L153.877 255.757L154.679 254.955L151.832 252.108C150.6 250.876 149.359 250.978 148.454 251.884C147.81 252.528 147.66 253.405 147.875 254.236C147.016 253.9 146.223 254.115 145.635 254.703C145.047 255.291 144.907 256.065 145.075 256.775L144.823 256.523L144.468 256.168L143.665 256.971ZM153.455 251.661C154.893 253.099 156.769 253.145 158.066 251.848C159.354 250.56 159.317 248.674 157.879 247.237C156.479 245.837 154.566 245.772 153.278 247.06C151.98 248.357 152.055 250.261 153.455 251.661ZM157.441 251.223C156.582 252.081 155.341 251.885 154.286 250.831C153.231 249.776 153.072 248.534 153.912 247.694C154.753 246.854 155.994 247.013 157.049 248.068C158.103 249.122 158.299 250.364 157.441 251.223Z" fill="white"/>
</g>
<g opacity="0.1">
<path fill-rule="evenodd" clip-rule="evenodd" d="M122.191 315.673C116.333 321.531 116.333 331.028 122.191 336.886C128.049 342.744 137.547 342.744 143.404 336.886L168.295 311.996C174.152 306.138 174.152 296.64 168.295 290.783C162.437 284.925 152.939 284.925 147.081 290.783L122.191 315.673ZM130.003 322.653L136.537 329.187L138.702 327.021C140.877 324.847 140.719 322.429 138.73 320.441C136.406 318.117 134.082 318.574 131.963 320.693L130.003 322.653ZM137.881 326.405L136.668 327.619L131.562 322.513L132.738 321.337C134.521 319.554 136.21 319.694 137.844 321.328C139.673 323.157 139.449 324.837 137.881 326.405ZM140.575 320.612C142.134 322.171 143.823 322.18 145.168 320.836C146.446 319.557 146.325 318.204 145.625 317.317L144.832 318.111C145.41 318.913 145.102 319.651 144.552 320.202C143.777 320.976 142.591 320.986 141.546 319.978L144.962 316.561L144.804 316.403C143.357 314.956 141.677 314.751 140.333 316.095C139.101 317.327 139.194 319.231 140.575 320.612ZM143.534 316.851L141.005 319.38C140.305 318.568 140.211 317.485 140.967 316.729C141.751 315.945 142.731 316.048 143.534 316.851ZM143.665 313.061L148.164 317.559L148.967 316.757L146.326 314.115C145.579 313.369 145.383 312.314 146.083 311.614C146.746 310.951 147.502 311.184 148.36 312.043L151.02 314.703L151.823 313.901L149.144 311.222C148.426 310.503 148.211 309.486 148.92 308.776C149.611 308.086 150.339 308.31 151.188 309.159L153.877 311.847L154.679 311.044L151.832 308.198C150.6 306.966 149.359 307.068 148.454 307.974C147.81 308.618 147.66 309.495 147.875 310.326C147.016 309.99 146.223 310.204 145.635 310.792C145.047 311.38 144.907 312.155 145.075 312.865L144.823 312.613L144.468 312.258L143.665 313.061ZM153.455 307.751C154.893 309.188 156.769 309.235 158.066 307.938C159.354 306.65 159.317 304.764 157.879 303.327C156.479 301.927 154.566 301.861 153.278 303.15C151.98 304.447 152.055 306.351 153.455 307.751ZM157.441 307.312C156.582 308.171 155.341 307.975 154.286 306.92C153.231 305.866 153.072 304.624 153.912 303.784C154.753 302.944 155.994 303.103 157.049 304.158C158.103 305.212 158.299 306.454 157.441 307.312Z" fill="white"/>
</g>
<g opacity="0.1">
<path fill-rule="evenodd" clip-rule="evenodd" d="M177.984 35.2157C172.126 41.0735 172.126 50.571 177.984 56.4289C183.841 62.2867 193.339 62.2867 199.197 56.4289L223.592 32.0337C229.45 26.1758 229.45 16.6783 223.592 10.8205C217.734 4.96262 208.237 4.96262 202.379 10.8205L177.984 35.2157ZM185.796 42.1961L192.329 48.7297L194.495 46.5643C196.67 44.3895 196.511 41.9721 194.523 39.984C192.199 37.6598 189.875 38.1172 187.756 40.236L185.796 42.1961ZM193.673 45.9483L192.46 47.1617L187.354 42.0561L188.53 40.88C190.313 39.0972 192.003 39.2372 193.636 40.8707C195.466 42.7001 195.242 44.3802 193.673 45.9483ZM196.368 40.1552C197.926 41.7139 199.616 41.7232 200.96 40.3792C202.239 39.1004 202.117 37.747 201.417 36.8603L200.624 37.6537C201.203 38.4564 200.895 39.1938 200.344 39.7445C199.569 40.5192 198.384 40.5285 197.338 39.5205L200.755 36.1043L200.596 35.9456C199.149 34.4989 197.469 34.2935 196.125 35.6376C194.893 36.8697 194.986 38.7738 196.368 40.1552ZM199.327 36.3936L196.797 38.9231C196.097 38.1111 196.004 37.0283 196.76 36.2723C197.544 35.4883 198.524 35.5909 199.327 36.3936ZM199.458 32.6035L203.957 37.1024L204.759 36.2997L202.118 33.6583C201.371 32.9115 201.175 31.8568 201.875 31.1568C202.538 30.4941 203.294 30.7274 204.153 31.5861L206.813 34.2463L207.616 33.4436L204.937 30.7648C204.218 30.0461 204.003 29.0287 204.713 28.3193C205.403 27.6286 206.131 27.8526 206.981 28.702L209.669 31.3901L210.472 30.5874L207.625 27.7406C206.393 26.5086 205.151 26.6112 204.246 27.5166C203.602 28.1606 203.453 29.038 203.667 29.8687C202.809 29.5327 202.015 29.7474 201.427 30.3354C200.839 30.9234 200.699 31.6982 200.867 32.4075L200.615 32.1555L200.26 31.8008L199.458 32.6035ZM209.247 27.2941C210.685 28.7315 212.561 28.7781 213.858 27.4807C215.146 26.1927 215.109 24.3072 213.672 22.8698C212.272 21.4698 210.358 21.4044 209.07 22.6925C207.773 23.9899 207.847 25.894 209.247 27.2941ZM213.233 26.8554C212.374 27.7141 211.133 27.5181 210.078 26.4633C209.023 25.4086 208.865 24.1672 209.705 23.3272C210.545 22.4871 211.786 22.6458 212.841 23.7005C213.896 24.7553 214.092 25.9967 213.233 26.8554Z" fill="white"/>
</g>
<g opacity="0.1">
<path fill-rule="evenodd" clip-rule="evenodd" d="M177.984 91.3055C172.126 97.1634 172.126 106.661 177.984 112.519C183.841 118.377 193.339 118.377 199.197 112.519L224.087 87.6286C229.945 81.7707 229.945 72.2732 224.087 66.4153C218.229 60.5575 208.732 60.5575 202.874 66.4154L177.984 91.3055ZM185.796 98.2859L192.329 104.82L194.495 102.654C196.67 100.479 196.511 98.0619 194.523 96.0738C192.199 93.7497 189.875 94.207 187.756 96.3258L185.796 98.2859ZM193.673 102.038L192.46 103.251L187.354 98.1459L188.53 96.9698C190.313 95.1871 192.003 95.3271 193.636 96.9605C195.466 98.7899 195.241 100.47 193.673 102.038ZM196.368 96.245C197.926 97.8038 199.616 97.8131 200.96 96.469C202.239 95.1903 202.117 93.8369 201.417 92.9502L200.624 93.7436C201.203 94.5463 200.895 95.2836 200.344 95.8343C199.569 96.609 198.384 96.6184 197.338 95.6103L200.755 92.1941L200.596 92.0355C199.149 90.5887 197.469 90.3834 196.125 91.7274C194.893 92.9595 194.986 94.8636 196.368 96.245ZM199.327 92.4835L196.797 95.013C196.097 94.2009 196.004 93.1182 196.76 92.3621C197.544 91.5781 198.524 91.6808 199.327 92.4835ZM199.458 88.6934L203.957 93.1923L204.759 92.3896L202.118 89.7481C201.371 89.0014 201.175 87.9467 201.875 87.2466C202.538 86.5839 203.294 86.8173 204.153 87.676L206.813 90.3361L207.616 89.5334L204.937 86.8546C204.218 86.1359 204.003 85.1185 204.713 84.4092C205.403 83.7185 206.131 83.9425 206.981 84.7918L209.669 87.48L210.472 86.6773L207.625 83.8305C206.393 82.5984 205.151 82.7011 204.246 83.6065C203.602 84.2505 203.453 85.1279 203.667 85.9586C202.809 85.6226 202.015 85.8372 201.427 86.4253C200.839 87.0133 200.699 87.788 200.867 88.4974L200.615 88.2454L200.26 87.8907L199.458 88.6934ZM209.247 83.3839C210.685 84.8213 212.561 84.868 213.858 83.5706C215.146 82.2825 215.109 80.3971 213.672 78.9597C212.272 77.5596 210.358 77.4943 209.07 78.7823C207.773 80.0797 207.847 81.9838 209.247 83.3839ZM213.233 82.9452C212.374 83.8039 211.133 83.6079 210.078 82.5532C209.023 81.4985 208.865 80.2571 209.705 79.417C210.545 78.577 211.786 78.7357 212.841 79.7904C213.896 80.8451 214.092 82.0865 213.233 82.9452Z" fill="white"/>
</g>
<g opacity="0.1">
<path fill-rule="evenodd" clip-rule="evenodd" d="M177.984 147.399C172.126 153.257 172.126 162.755 177.984 168.612C183.841 174.47 193.339 174.47 199.197 168.612L224.087 143.722C229.945 137.864 229.945 128.367 224.087 122.509C218.229 116.651 208.732 116.651 202.874 122.509L177.984 147.399ZM185.796 154.38L192.329 160.913L194.495 158.748C196.67 156.573 196.511 154.156 194.523 152.168C192.199 149.843 189.875 150.301 187.756 152.42L185.796 154.38ZM193.673 158.132L192.46 159.345L187.354 154.24L188.53 153.064C190.313 151.281 192.003 151.421 193.636 153.054C195.466 154.884 195.242 156.564 193.673 158.132ZM196.368 152.339C197.926 153.898 199.616 153.907 200.96 152.563C202.239 151.284 202.117 149.931 201.417 149.044L200.624 149.837C201.203 150.64 200.895 151.377 200.344 151.928C199.569 152.703 198.384 152.712 197.338 151.704L200.755 148.288L200.596 148.129C199.149 146.682 197.469 146.477 196.125 147.821C194.893 149.053 194.986 150.957 196.368 152.339ZM199.326 148.577L196.797 151.107C196.097 150.295 196.004 149.212 196.76 148.456C197.544 147.672 198.524 147.775 199.326 148.577ZM199.458 144.787L203.957 149.286L204.759 148.483L202.118 145.842C201.371 145.095 201.175 144.04 201.875 143.34C202.538 142.678 203.294 142.911 204.153 143.77L206.813 146.43L207.616 145.627L204.937 142.948C204.218 142.23 204.003 141.212 204.713 140.503C205.403 139.812 206.131 140.036 206.981 140.886L209.669 143.574L210.472 142.771L207.625 139.924C206.393 138.692 205.151 138.795 204.246 139.7C203.602 140.344 203.453 141.222 203.667 142.052C202.809 141.716 202.015 141.931 201.427 142.519C200.839 143.107 200.699 143.882 200.867 144.591L200.615 144.339L200.26 143.984L199.458 144.787ZM209.247 139.478C210.685 140.915 212.561 140.962 213.858 139.664C215.146 138.376 215.109 136.491 213.672 135.053C212.272 133.653 210.358 133.588 209.07 134.876C207.773 136.173 207.847 138.078 209.247 139.478ZM213.233 139.039C212.374 139.898 211.133 139.702 210.078 138.647C209.023 137.592 208.865 136.351 209.705 135.511C210.545 134.671 211.786 134.829 212.841 135.884C213.896 136.939 214.092 138.18 213.233 139.039Z" fill="white"/>
</g>
<g opacity="0.1">
<path fill-rule="evenodd" clip-rule="evenodd" d="M177.984 203.489C172.126 209.347 172.126 218.844 177.984 224.702C183.841 230.56 193.339 230.56 199.197 224.702L224.087 199.812C229.945 193.954 229.945 184.457 224.087 178.599C218.229 172.741 208.732 172.741 202.874 178.599L177.984 203.489ZM185.796 210.47L192.329 217.003L194.495 214.838C196.67 212.663 196.511 210.245 194.523 208.257C192.199 205.933 189.875 206.391 187.756 208.509L185.796 210.47ZM193.673 214.222L192.46 215.435L187.354 210.329L188.53 209.153C190.313 207.371 192.003 207.511 193.636 209.144C195.466 210.974 195.241 212.654 193.673 214.222ZM196.368 208.429C197.926 209.987 199.616 209.997 200.96 208.653C202.239 207.374 202.117 206.02 201.417 205.134L200.624 205.927C201.203 206.73 200.895 207.467 200.344 208.018C199.569 208.793 198.384 208.802 197.338 207.794L200.755 204.378L200.596 204.219C199.149 202.772 197.469 202.567 196.125 203.911C194.893 205.143 194.986 207.047 196.368 208.429ZM199.326 204.667L196.797 207.197C196.097 206.385 196.004 205.302 196.76 204.546C197.544 203.762 198.524 203.864 199.326 204.667ZM199.458 200.877L203.957 205.376L204.759 204.573L202.118 201.932C201.371 201.185 201.175 200.13 201.875 199.43C202.538 198.768 203.294 199.001 204.153 199.86L206.813 202.52L207.616 201.717L204.937 199.038C204.218 198.32 204.003 197.302 204.713 196.593C205.403 195.902 206.131 196.126 206.981 196.975L209.669 199.664L210.472 198.861L207.625 196.014C206.393 194.782 205.151 194.885 204.246 195.79C203.602 196.434 203.453 197.311 203.667 198.142C202.809 197.806 202.015 198.021 201.427 198.609C200.839 199.197 200.699 199.972 200.867 200.681L200.615 200.429L200.26 200.074L199.458 200.877ZM209.247 195.567C210.685 197.005 212.561 197.052 213.858 195.754C215.146 194.466 215.109 192.581 213.672 191.143C212.272 189.743 210.358 189.678 209.07 190.966C207.773 192.263 207.847 194.167 209.247 195.567ZM213.233 195.129C212.374 195.988 211.133 195.792 210.078 194.737C209.023 193.682 208.865 192.441 209.705 191.601C210.545 190.761 211.786 190.919 212.841 191.974C213.896 193.029 214.092 194.27 213.233 195.129Z" fill="white"/>
</g>
<g opacity="0.1">
<path fill-rule="evenodd" clip-rule="evenodd" d="M177.984 259.583C172.126 265.441 172.126 274.938 177.984 280.796C183.841 286.654 193.339 286.654 199.197 280.796L224.087 255.906C229.945 250.048 229.945 240.551 224.087 234.693C218.229 228.835 208.732 228.835 202.874 234.693L177.984 259.583ZM185.796 266.563L192.329 273.097L194.495 270.931C196.67 268.757 196.511 266.339 194.523 264.351C192.199 262.027 189.875 262.484 187.756 264.603L185.796 266.563ZM193.673 270.315L192.46 271.529L187.354 266.423L188.53 265.247C190.313 263.464 192.003 263.604 193.636 265.238C195.466 267.067 195.242 268.747 193.673 270.315ZM196.368 264.522C197.926 266.081 199.616 266.09 200.96 264.746C202.239 263.468 202.117 262.114 201.417 261.228L200.624 262.021C201.203 262.824 200.895 263.561 200.344 264.112C199.569 264.886 198.384 264.896 197.338 263.888L200.755 260.471L200.596 260.313C199.149 258.866 197.469 258.661 196.125 260.005C194.893 261.237 194.986 263.141 196.368 264.522ZM199.326 260.761L196.797 263.29C196.097 262.478 196.004 261.396 196.76 260.64C197.544 259.855 198.524 259.958 199.326 260.761ZM199.458 256.971L203.957 261.47L204.759 260.667L202.118 258.025C201.371 257.279 201.175 256.224 201.875 255.524C202.538 254.861 203.294 255.095 204.153 255.953L206.813 258.613L207.616 257.811L204.937 255.132C204.218 254.413 204.003 253.396 204.713 252.687C205.403 251.996 206.131 252.22 206.981 253.069L209.669 255.757L210.472 254.955L207.625 252.108C206.393 250.876 205.151 250.978 204.246 251.884C203.602 252.528 203.453 253.405 203.667 254.236C202.809 253.9 202.015 254.115 201.427 254.703C200.839 255.291 200.699 256.065 200.867 256.775L200.615 256.523L200.26 256.168L199.458 256.971ZM209.247 251.661C210.685 253.099 212.561 253.145 213.858 251.848C215.146 250.56 215.109 248.674 213.672 247.237C212.272 245.837 210.358 245.772 209.07 247.06C207.773 248.357 207.847 250.261 209.247 251.661ZM213.233 251.223C212.374 252.081 211.133 251.885 210.078 250.831C209.023 249.776 208.865 248.534 209.705 247.694C210.545 246.854 211.786 247.013 212.841 248.068C213.896 249.122 214.092 250.364 213.233 251.223Z" fill="white"/>
</g>
<g opacity="0.1">
<path fill-rule="evenodd" clip-rule="evenodd" d="M177.984 315.673C172.126 321.531 172.126 331.028 177.984 336.886C183.841 342.744 193.339 342.744 199.197 336.886L224.087 311.996C229.945 306.138 229.945 296.64 224.087 290.783C218.229 284.925 208.732 284.925 202.874 290.783L177.984 315.673ZM185.796 322.653L192.329 329.187L194.495 327.021C196.67 324.847 196.511 322.429 194.523 320.441C192.199 318.117 189.875 318.574 187.756 320.693L185.796 322.653ZM193.673 326.405L192.46 327.619L187.354 322.513L188.53 321.337C190.313 319.554 192.003 319.694 193.636 321.328C195.466 323.157 195.241 324.837 193.673 326.405ZM196.368 320.612C197.926 322.171 199.616 322.18 200.96 320.836C202.239 319.557 202.117 318.204 201.417 317.317L200.624 318.111C201.203 318.913 200.895 319.651 200.344 320.202C199.569 320.976 198.384 320.986 197.338 319.978L200.755 316.561L200.596 316.403C199.149 314.956 197.469 314.751 196.125 316.095C194.893 317.327 194.986 319.231 196.368 320.612ZM199.327 316.851L196.797 319.38C196.097 318.568 196.004 317.485 196.76 316.729C197.544 315.945 198.524 316.048 199.327 316.851ZM199.458 313.061L203.957 317.559L204.759 316.757L202.118 314.115C201.371 313.369 201.175 312.314 201.875 311.614C202.538 310.951 203.294 311.184 204.153 312.043L206.813 314.703L207.616 313.901L204.937 311.222C204.218 310.503 204.003 309.486 204.713 308.776C205.403 308.086 206.131 308.31 206.981 309.159L209.669 311.847L210.472 311.044L207.625 308.198C206.393 306.966 205.151 307.068 204.246 307.974C203.602 308.618 203.453 309.495 203.667 310.326C202.809 309.99 202.015 310.204 201.427 310.792C200.839 311.38 200.699 312.155 200.867 312.865L200.615 312.613L200.26 312.258L199.458 313.061ZM209.247 307.751C210.685 309.188 212.561 309.235 213.858 307.938C215.146 306.65 215.109 304.764 213.672 303.327C212.272 301.927 210.358 301.861 209.07 303.15C207.773 304.447 207.847 306.351 209.247 307.751ZM213.233 307.312C212.374 308.171 211.133 307.975 210.078 306.92C209.023 305.866 208.865 304.624 209.705 303.784C210.545 302.944 211.786 303.103 212.841 304.158C213.896 305.212 214.092 306.454 213.233 307.312Z" fill="white"/>
</g>
<g opacity="0.1">
<path fill-rule="evenodd" clip-rule="evenodd" d="M233.776 35.2157C227.918 41.0735 227.918 50.571 233.776 56.4289C239.634 62.2867 249.131 62.2867 254.989 56.4289L279.384 32.0337C285.242 26.1758 285.242 16.6783 279.384 10.8205C273.526 4.96262 264.029 4.96262 258.171 10.8205L233.776 35.2157ZM241.588 42.1961L248.122 48.7297L250.287 46.5643C252.462 44.3895 252.303 41.9721 250.315 39.984C247.991 37.6598 245.667 38.1172 243.548 40.236L241.588 42.1961ZM249.466 45.9483L248.252 47.1617L243.147 42.0561L244.323 40.88C246.105 39.0972 247.795 39.2372 249.428 40.8707C251.258 42.7001 251.034 44.3802 249.466 45.9483ZM252.16 40.1552C253.719 41.7139 255.408 41.7232 256.752 40.3792C258.031 39.1004 257.91 37.747 257.21 36.8603L256.416 37.6537C256.995 38.4564 256.687 39.1938 256.136 39.7445C255.361 40.5192 254.176 40.5285 253.131 39.5205L256.547 36.1043L256.388 35.9456C254.941 34.4989 253.261 34.2935 251.917 35.6376C250.685 36.8697 250.779 38.7738 252.16 40.1552ZM255.119 36.3936L252.589 38.9231C251.889 38.1111 251.796 37.0283 252.552 36.2723C253.336 35.4883 254.316 35.5909 255.119 36.3936ZM255.25 32.6035L259.749 37.1024L260.552 36.2997L257.91 33.6583C257.163 32.9115 256.967 31.8568 257.667 31.1568C258.33 30.4941 259.086 30.7274 259.945 31.5861L262.605 34.2463L263.408 33.4436L260.729 30.7648C260.01 30.0461 259.796 29.0287 260.505 28.3193C261.196 27.6286 261.924 27.8526 262.773 28.702L265.461 31.3901L266.264 30.5874L263.417 27.7406C262.185 26.5086 260.944 26.6112 260.038 27.5166C259.394 28.1606 259.245 29.038 259.46 29.8687C258.601 29.5327 257.807 29.7474 257.219 30.3354C256.631 30.9234 256.491 31.6982 256.659 32.4075L256.407 32.1555L256.053 31.8008L255.25 32.6035ZM265.04 27.2941C266.477 28.7315 268.353 28.7781 269.651 27.4807C270.939 26.1927 270.901 24.3072 269.464 22.8698C268.064 21.4698 266.15 21.4044 264.862 22.6925C263.565 23.9899 263.64 25.894 265.04 27.2941ZM269.025 26.8554C268.167 27.7141 266.925 27.5181 265.87 26.4633C264.816 25.4086 264.657 24.1672 265.497 23.3272C266.337 22.4871 267.578 22.6458 268.633 23.7005C269.688 24.7553 269.884 25.9967 269.025 26.8554Z" fill="white"/>
</g>
<g opacity="0.1">
<path fill-rule="evenodd" clip-rule="evenodd" d="M233.776 91.3055C227.918 97.1634 227.918 106.661 233.776 112.519C239.634 118.377 249.131 118.377 254.989 112.519L279.879 87.6286C285.737 81.7707 285.737 72.2732 279.879 66.4153C274.021 60.5575 264.524 60.5575 258.666 66.4154L233.776 91.3055ZM241.588 98.2859L248.122 104.82L250.287 102.654C252.462 100.479 252.303 98.0619 250.315 96.0738C247.991 93.7497 245.667 94.207 243.548 96.3258L241.588 98.2859ZM249.466 102.038L248.252 103.251L243.147 98.1459L244.323 96.9698C246.105 95.1871 247.795 95.3271 249.428 96.9605C251.258 98.7899 251.034 100.47 249.466 102.038ZM252.16 96.245C253.719 97.8038 255.408 97.8131 256.752 96.469C258.031 95.1903 257.91 93.8369 257.21 92.9502L256.416 93.7436C256.995 94.5463 256.687 95.2836 256.136 95.8343C255.361 96.609 254.176 96.6184 253.131 95.6103L256.547 92.1941L256.388 92.0355C254.941 90.5887 253.261 90.3834 251.917 91.7274C250.685 92.9595 250.779 94.8636 252.16 96.245ZM255.119 92.4835L252.589 95.013C251.889 94.2009 251.796 93.1182 252.552 92.3621C253.336 91.5781 254.316 91.6808 255.119 92.4835ZM255.25 88.6934L259.749 93.1923L260.552 92.3896L257.91 89.7481C257.163 89.0014 256.967 87.9467 257.667 87.2466C258.33 86.5839 259.086 86.8173 259.945 87.676L262.605 90.3361L263.408 89.5334L260.729 86.8546C260.01 86.1359 259.796 85.1185 260.505 84.4092C261.196 83.7185 261.924 83.9425 262.773 84.7918L265.461 87.48L266.264 86.6773L263.417 83.8305C262.185 82.5984 260.944 82.7011 260.038 83.6065C259.394 84.2505 259.245 85.1279 259.46 85.9586C258.601 85.6226 257.807 85.8372 257.219 86.4253C256.631 87.0133 256.491 87.788 256.659 88.4974L256.407 88.2454L256.053 87.8907L255.25 88.6934ZM265.04 83.3839C266.477 84.8213 268.353 84.868 269.651 83.5706C270.939 82.2825 270.901 80.3971 269.464 78.9597C268.064 77.5596 266.15 77.4943 264.862 78.7823C263.565 80.0797 263.64 81.9838 265.04 83.3839ZM269.025 82.9452C268.167 83.8039 266.925 83.6079 265.87 82.5532C264.816 81.4985 264.657 80.2571 265.497 79.417C266.337 78.577 267.578 78.7357 268.633 79.7904C269.688 80.8451 269.884 82.0865 269.025 82.9452Z" fill="white"/>
</g>
<g opacity="0.1">
<path fill-rule="evenodd" clip-rule="evenodd" d="M233.776 147.399C227.918 153.257 227.918 162.755 233.776 168.612C239.634 174.47 249.131 174.47 254.989 168.612L279.879 143.722C285.737 137.864 285.737 128.367 279.879 122.509C274.021 116.651 264.524 116.651 258.666 122.509L233.776 147.399ZM241.588 154.38L248.122 160.913L250.287 158.748C252.462 156.573 252.303 154.156 250.315 152.168C247.991 149.843 245.667 150.301 243.548 152.42L241.588 154.38ZM249.466 158.132L248.252 159.345L243.147 154.24L244.323 153.064C246.105 151.281 247.795 151.421 249.428 153.054C251.258 154.884 251.034 156.564 249.466 158.132ZM252.16 152.339C253.719 153.898 255.408 153.907 256.752 152.563C258.031 151.284 257.91 149.931 257.21 149.044L256.416 149.837C256.995 150.64 256.687 151.377 256.136 151.928C255.361 152.703 254.176 152.712 253.131 151.704L256.547 148.288L256.388 148.129C254.941 146.682 253.261 146.477 251.917 147.821C250.685 149.053 250.779 150.957 252.16 152.339ZM255.119 148.577L252.589 151.107C251.889 150.295 251.796 149.212 252.552 148.456C253.336 147.672 254.316 147.775 255.119 148.577ZM255.25 144.787L259.749 149.286L260.552 148.483L257.91 145.842C257.163 145.095 256.967 144.04 257.667 143.34C258.33 142.678 259.086 142.911 259.945 143.77L262.605 146.43L263.408 145.627L260.729 142.948C260.01 142.23 259.796 141.212 260.505 140.503C261.196 139.812 261.924 140.036 262.773 140.886L265.461 143.574L266.264 142.771L263.417 139.924C262.185 138.692 260.944 138.795 260.038 139.7C259.394 140.344 259.245 141.222 259.46 142.052C258.601 141.716 257.807 141.931 257.219 142.519C256.631 143.107 256.491 143.882 256.659 144.591L256.407 144.339L256.053 143.984L255.25 144.787ZM265.04 139.478C266.477 140.915 268.353 140.962 269.651 139.664C270.939 138.376 270.901 136.491 269.464 135.053C268.064 133.653 266.15 133.588 264.862 134.876C263.565 136.173 263.64 138.078 265.04 139.478ZM269.025 139.039C268.167 139.898 266.925 139.702 265.87 138.647C264.816 137.592 264.657 136.351 265.497 135.511C266.337 134.671 267.578 134.829 268.633 135.884C269.688 136.939 269.884 138.18 269.025 139.039Z" fill="white"/>
</g>
<g opacity="0.1">
<path fill-rule="evenodd" clip-rule="evenodd" d="M233.776 203.489C227.918 209.347 227.918 218.844 233.776 224.702C239.634 230.56 249.131 230.56 254.989 224.702L279.879 199.812C285.737 193.954 285.737 184.457 279.879 178.599C274.021 172.741 264.524 172.741 258.666 178.599L233.776 203.489ZM241.588 210.47L248.122 217.003L250.287 214.838C252.462 212.663 252.303 210.245 250.315 208.257C247.991 205.933 245.667 206.391 243.548 208.509L241.588 210.47ZM249.466 214.222L248.252 215.435L243.147 210.329L244.323 209.153C246.105 207.371 247.795 207.511 249.428 209.144C251.258 210.974 251.034 212.654 249.466 214.222ZM252.16 208.429C253.719 209.987 255.408 209.997 256.752 208.653C258.031 207.374 257.91 206.02 257.21 205.134L256.416 205.927C256.995 206.73 256.687 207.467 256.136 208.018C255.361 208.793 254.176 208.802 253.131 207.794L256.547 204.378L256.388 204.219C254.941 202.772 253.261 202.567 251.917 203.911C250.685 205.143 250.779 207.047 252.16 208.429ZM255.119 204.667L252.589 207.197C251.889 206.385 251.796 205.302 252.552 204.546C253.336 203.762 254.316 203.864 255.119 204.667ZM255.25 200.877L259.749 205.376L260.552 204.573L257.91 201.932C257.163 201.185 256.967 200.13 257.667 199.43C258.33 198.768 259.086 199.001 259.945 199.86L262.605 202.52L263.408 201.717L260.729 199.038C260.01 198.32 259.796 197.302 260.505 196.593C261.196 195.902 261.924 196.126 262.773 196.975L265.461 199.664L266.264 198.861L263.417 196.014C262.185 194.782 260.944 194.885 260.038 195.79C259.394 196.434 259.245 197.311 259.46 198.142C258.601 197.806 257.807 198.021 257.219 198.609C256.631 199.197 256.491 199.972 256.659 200.681L256.407 200.429L256.053 200.074L255.25 200.877ZM265.04 195.567C266.477 197.005 268.353 197.052 269.651 195.754C270.939 194.466 270.901 192.581 269.464 191.143C268.064 189.743 266.15 189.678 264.862 190.966C263.565 192.263 263.64 194.167 265.04 195.567ZM269.025 195.129C268.167 195.988 266.925 195.792 265.87 194.737C264.816 193.682 264.657 192.441 265.497 191.601C266.337 190.761 267.578 190.919 268.633 191.974C269.688 193.029 269.884 194.27 269.025 195.129Z" fill="white"/>
</g>
<g opacity="0.1">
<path fill-rule="evenodd" clip-rule="evenodd" d="M233.776 259.583C227.918 265.441 227.918 274.938 233.776 280.796C239.634 286.654 249.131 286.654 254.989 280.796L279.879 255.906C285.737 250.048 285.737 240.551 279.879 234.693C274.021 228.835 264.524 228.835 258.666 234.693L233.776 259.583ZM241.588 266.563L248.122 273.097L250.287 270.931C252.462 268.757 252.303 266.339 250.315 264.351C247.991 262.027 245.667 262.484 243.548 264.603L241.588 266.563ZM249.466 270.315L248.252 271.529L243.147 266.423L244.323 265.247C246.105 263.464 247.795 263.604 249.428 265.238C251.258 267.067 251.034 268.747 249.466 270.315ZM252.16 264.522C253.719 266.081 255.408 266.09 256.752 264.746C258.031 263.468 257.91 262.114 257.21 261.228L256.416 262.021C256.995 262.824 256.687 263.561 256.136 264.112C255.361 264.886 254.176 264.896 253.131 263.888L256.547 260.471L256.388 260.313C254.941 258.866 253.261 258.661 251.917 260.005C250.685 261.237 250.779 263.141 252.16 264.522ZM255.119 260.761L252.589 263.29C251.889 262.478 251.796 261.396 252.552 260.64C253.336 259.855 254.316 259.958 255.119 260.761ZM255.25 256.971L259.749 261.47L260.552 260.667L257.91 258.025C257.163 257.279 256.967 256.224 257.667 255.524C258.33 254.861 259.086 255.095 259.945 255.953L262.605 258.613L263.408 257.811L260.729 255.132C260.01 254.413 259.796 253.396 260.505 252.687C261.196 251.996 261.924 252.22 262.773 253.069L265.461 255.757L266.264 254.955L263.417 252.108C262.185 250.876 260.944 250.978 260.038 251.884C259.394 252.528 259.245 253.405 259.46 254.236C258.601 253.9 257.807 254.115 257.219 254.703C256.631 255.291 256.491 256.065 256.659 256.775L256.407 256.523L256.053 256.168L255.25 256.971ZM265.04 251.661C266.477 253.099 268.353 253.145 269.651 251.848C270.939 250.56 270.901 248.674 269.464 247.237C268.064 245.837 266.15 245.772 264.862 247.06C263.565 248.357 263.64 250.261 265.04 251.661ZM269.025 251.223C268.167 252.081 266.925 251.885 265.87 250.831C264.816 249.776 264.657 248.534 265.497 247.694C266.337 246.854 267.578 247.013 268.633 248.068C269.688 249.122 269.884 250.364 269.025 251.223Z" fill="white"/>
</g>
<g opacity="0.1">
<path fill-rule="evenodd" clip-rule="evenodd" d="M233.776 315.673C227.918 321.531 227.918 331.028 233.776 336.886C239.634 342.744 249.131 342.744 254.989 336.886L279.879 311.996C285.737 306.138 285.737 296.64 279.879 290.783C274.021 284.925 264.524 284.925 258.666 290.783L233.776 315.673ZM241.588 322.653L248.122 329.187L250.287 327.021C252.462 324.847 252.303 322.429 250.315 320.441C247.991 318.117 245.667 318.574 243.548 320.693L241.588 322.653ZM249.466 326.405L248.252 327.619L243.147 322.513L244.323 321.337C246.105 319.554 247.795 319.694 249.428 321.328C251.258 323.157 251.034 324.837 249.466 326.405ZM252.16 320.612C253.719 322.171 255.408 322.18 256.752 320.836C258.031 319.557 257.91 318.204 257.21 317.317L256.416 318.111C256.995 318.913 256.687 319.651 256.136 320.202C255.361 320.976 254.176 320.986 253.131 319.978L256.547 316.561L256.388 316.403C254.941 314.956 253.261 314.751 251.917 316.095C250.685 317.327 250.779 319.231 252.16 320.612ZM255.119 316.851L252.589 319.38C251.889 318.568 251.796 317.485 252.552 316.729C253.336 315.945 254.316 316.048 255.119 316.851ZM255.25 313.061L259.749 317.559L260.552 316.757L257.91 314.115C257.163 313.369 256.967 312.314 257.667 311.614C258.33 310.951 259.086 311.184 259.945 312.043L262.605 314.703L263.408 313.901L260.729 311.222C260.01 310.503 259.796 309.486 260.505 308.776C261.196 308.086 261.924 308.31 262.773 309.159L265.461 311.847L266.264 311.044L263.417 308.198C262.185 306.966 260.944 307.068 260.038 307.974C259.394 308.618 259.245 309.495 259.46 310.326C258.601 309.99 257.807 310.204 257.219 310.792C256.631 311.38 256.491 312.155 256.659 312.865L256.407 312.613L256.053 312.258L255.25 313.061ZM265.04 307.751C266.477 309.188 268.353 309.235 269.651 307.938C270.939 306.65 270.901 304.764 269.464 303.327C268.064 301.927 266.15 301.861 264.862 303.15C263.565 304.447 263.64 306.351 265.04 307.751ZM269.025 307.312C268.167 308.171 266.925 307.975 265.87 306.92C264.816 305.866 264.657 304.624 265.497 303.784C266.337 302.944 267.578 303.103 268.633 304.158C269.688 305.212 269.884 306.454 269.025 307.312Z" fill="white"/>
</g>
</svg>
