<svg width="16" height="15" viewBox="0 0 16 15" fill="none" xmlns="http://www.w3.org/2000/svg">
<path d="M13.1667 14.0667L6.9 7.76667C6.37778 7.88889 5.88889 8.07222 5.43333 8.31667C4.98889 8.56111 4.58889 8.86667 4.23333 9.23333L2.83333 7.8C3.18889 7.44444 3.57222 7.13333 3.98333 6.86667C4.39444 6.6 4.83333 6.36667 5.3 6.16667L3.8 4.66667C3.34444 4.9 2.91667 5.16111 2.51667 5.45C2.12778 5.72778 1.75556 6.04444 1.4 6.4L0 4.96667C0.355556 4.61111 0.722222 4.29444 1.1 4.01667C1.48889 3.72778 1.9 3.45556 2.33333 3.2L0.933333 1.8L1.86667 0.866666L14.1333 13.1333L13.1667 14.0667ZM11.9333 9.03333C11.7444 8.84444 11.5833 8.68333 11.45 8.55C11.3167 8.41667 11.1556 8.25555 10.9667 8.06667L8.56667 5.66667C9.46667 5.75555 10.3056 5.98333 11.0833 6.35C11.8722 6.71667 12.5667 7.2 13.1667 7.8L11.9333 9.03333ZM14.6 6.4C13.7444 5.54444 12.75 4.87778 11.6167 4.4C10.4944 3.91111 9.28889 3.66667 8 3.66667C7.76667 3.66667 7.53889 3.67778 7.31667 3.7C7.10556 3.71111 6.88889 3.73333 6.66667 3.76667L4.96667 2.06667C5.45556 1.93333 5.95 1.83333 6.45 1.76667C6.96111 1.7 7.47778 1.66667 8 1.66667C9.57778 1.66667 11.05 1.96111 12.4167 2.55C13.7833 3.13889 14.9778 3.94444 16 4.96667L14.6 6.4ZM8 13L5.65 10.6333C5.96111 10.3222 6.31667 10.0833 6.71667 9.91667C7.12778 9.75 7.55556 9.66667 8 9.66667C8.44444 9.66667 8.86667 9.75 9.26667 9.91667C9.67778 10.0833 10.0389 10.3222 10.35 10.6333L8 13Z" fill="#0A2841"/>
</svg>
