<svg width="18" height="23" viewBox="0 0 18 23" fill="none" xmlns="http://www.w3.org/2000/svg">
<path d="M7.95 14.95L13.2375 9.6625L12.1875 8.6125L7.95 12.85L5.8125 10.7125L4.7625 11.7625L7.95 14.95ZM9 19C7.9625 19 6.9875 18.8062 6.075 18.4187C5.1625 18.0187 4.36875 17.4812 3.69375 16.8062C3.01875 16.1312 2.48125 15.3375 2.08125 14.425C1.69375 13.5125 1.5 12.5375 1.5 11.5C1.5 10.4625 1.69375 9.4875 2.08125 8.575C2.48125 7.6625 3.01875 6.86875 3.69375 6.19375C4.36875 5.51875 5.1625 4.9875 6.075 4.6C6.9875 4.2 7.9625 4 9 4C10.0375 4 11.0125 4.2 11.925 4.6C12.8375 4.9875 13.6313 5.51875 14.3063 6.19375C14.9813 6.86875 15.5125 7.6625 15.9 8.575C16.3 9.4875 16.5 10.4625 16.5 11.5C16.5 12.5375 16.3 13.5125 15.9 14.425C15.5125 15.3375 14.9813 16.1312 14.3063 16.8062C13.6313 17.4812 12.8375 18.0187 11.925 18.4187C11.0125 18.8062 10.0375 19 9 19ZM9 17.5C10.675 17.5 12.0938 16.9187 13.2563 15.7562C14.4188 14.5937 15 13.175 15 11.5C15 9.825 14.4188 8.40625 13.2563 7.24375C12.0938 6.08125 10.675 5.5 9 5.5C7.325 5.5 5.90625 6.08125 4.74375 7.24375C3.58125 8.40625 3 9.825 3 11.5C3 13.175 3.58125 14.5937 4.74375 15.7562C5.90625 16.9187 7.325 17.5 9 17.5Z" fill="#91D3C6"/>
</svg>
