<svg width="81" height="80" viewBox="0 0 81 80" fill="none" xmlns="http://www.w3.org/2000/svg">
<mask id="mask0_19377_5305" style="mask-type:alpha" maskUnits="userSpaceOnUse" x="0" y="0" width="81" height="80">
<rect x="0.5" width="80" height="80" fill="#D9D9D9"/>
</mask>
<g mask="url(#mask0_19377_5305)">
<path d="M40.6252 56.7222C42.1796 56.7222 43.5071 56.1797 44.6077 55.0947C45.7082 54.0097 46.2585 52.7039 46.2585 51.1772C46.2585 49.7028 45.7035 48.3759 44.5935 47.1964C43.4841 46.017 42.1518 45.4272 40.5968 45.4272C39.0424 45.4272 37.7149 46.017 36.6143 47.1964C35.5138 48.3759 34.9635 49.7167 34.9635 51.2189C34.9635 52.7211 35.5185 54.0139 36.6285 55.0972C37.7379 56.1806 39.0702 56.7222 40.6252 56.7222Z" fill="white"/>
<path fill-rule="evenodd" clip-rule="evenodd" d="M20.4186 72.5555C19.108 72.5555 17.9791 72.0819 17.0319 71.1347C16.0847 70.1875 15.6111 69.0586 15.6111 67.748V34.4022C15.6111 33.0744 16.0847 31.9411 17.0319 31.0022C17.9791 30.0633 19.108 29.5939 20.4186 29.5939H26.2203V21.9464C26.2203 17.9525 27.6214 14.5555 30.4236 11.7555C33.2258 8.95554 36.6253 7.55554 40.6219 7.55554C44.6191 7.55554 48.015 8.95554 50.8094 11.7555C53.6044 14.5555 55.0019 17.9525 55.0019 21.9464V29.5939H60.8036C62.1141 29.5939 63.243 30.0633 64.1903 31.0022C65.1375 31.9411 65.6111 33.0744 65.6111 34.4022V67.748C65.6111 69.0586 65.1375 70.1875 64.1903 71.1347C63.243 72.0819 62.1141 72.5555 60.8036 72.5555H49.9319C48.8874 72.5555 48.0407 71.7088 48.0407 70.6643C48.0407 69.6198 48.8874 68.773 49.9319 68.773H60.8036C61.1025 68.773 61.348 68.6769 61.5403 68.4847C61.7325 68.2925 61.8286 68.0469 61.8286 67.748V34.4022C61.8286 34.1028 61.7325 33.8569 61.5403 33.6647C61.348 33.4725 61.1025 33.3764 60.8036 33.3764H20.4186C20.1197 33.3764 19.8741 33.4725 19.6819 33.6647C19.4897 33.8569 19.3936 34.1028 19.3936 34.4022V67.748C19.3936 68.0469 19.4897 68.2925 19.6819 68.4847C19.8741 68.6769 20.1197 68.773 20.4186 68.773H32.0532C33.0977 68.773 33.9444 69.6198 33.9444 70.6643C33.9444 71.7088 33.0977 72.5555 32.0532 72.5555H20.4186ZM30.0019 29.5939H51.2203V21.9464C51.2203 18.9997 50.19 16.495 48.1294 14.4322C46.0689 12.3694 43.5667 11.338 40.6228 11.338C37.6789 11.338 35.1728 12.3694 33.1044 14.4322C31.0361 16.495 30.0019 18.9997 30.0019 21.9464V29.5939Z" fill="white" fill-opacity="0.85"/>
</g>
</svg>
