<svg width="180" height="180" viewBox="0 0 180 180" fill="none" xmlns="http://www.w3.org/2000/svg">
<mask id="mask0_21360_23543" style="mask-type:alpha" maskUnits="userSpaceOnUse" x="0" y="0" width="180" height="180">
<rect width="180" height="180" fill="#D9D9D9"/>
</mask>
<g mask="url(#mask0_21360_23543)">
<path d="M90.2817 127.625C93.7792 127.625 96.7661 126.405 99.2423 123.963C101.719 121.522 102.957 118.584 102.957 115.149C102.957 111.831 101.708 108.846 99.2105 106.192C96.7142 103.538 93.7167 102.211 90.218 102.211C86.7205 102.211 83.7336 103.538 81.2573 106.192C78.7811 108.846 77.543 111.863 77.543 115.243C77.543 118.623 78.7917 121.531 81.2892 123.969C83.7855 126.406 86.783 127.625 90.2817 127.625Z" fill="white"/>
<path fill-rule="evenodd" clip-rule="evenodd" d="M44.8169 163.25C41.8681 163.25 39.3281 162.184 37.1969 160.053C35.0656 157.922 34 155.382 34 152.433V77.405C34 74.4175 35.0656 71.8675 37.1969 69.755C39.3281 67.6425 41.8681 66.5863 44.8169 66.5863H57.8706V49.3794C57.8706 40.3931 61.0231 32.75 67.3281 26.45C73.6331 20.15 81.2819 17 90.2744 17C99.2681 17 106.909 20.15 113.196 26.45C119.485 32.75 122.629 40.3931 122.629 49.3794V66.5863H135.683C138.632 66.5863 141.172 67.6425 143.303 69.755C145.434 71.8675 146.5 74.4175 146.5 77.405V152.433C146.5 155.382 145.434 157.922 143.303 160.053C141.172 162.184 138.632 163.25 135.683 163.25H111.222C108.872 163.25 106.967 161.345 106.967 158.995C106.967 156.645 108.872 154.739 111.222 154.739H135.683C136.356 154.739 136.908 154.523 137.341 154.091C137.773 153.658 137.989 153.106 137.989 152.433V77.405C137.989 76.7312 137.773 76.1781 137.341 75.7456C136.908 75.3131 136.356 75.0969 135.683 75.0969H44.8169C44.1444 75.0969 43.5919 75.3131 43.1594 75.7456C42.7269 76.1781 42.5106 76.7312 42.5106 77.405V152.433C42.5106 153.106 42.7269 153.658 43.1594 154.091C43.5919 154.523 44.1444 154.739 44.8169 154.739H70.9947C73.3448 154.739 75.25 156.645 75.25 158.995C75.25 161.345 73.3448 163.25 70.9947 163.25H44.8169ZM66.3794 66.5862H114.121V49.3794C114.121 42.7494 111.803 37.1137 107.166 32.4725C102.53 27.8312 96.9 25.5106 90.2763 25.5106C83.6525 25.5106 78.0138 27.8312 73.36 32.4725C68.7063 37.1137 66.3794 42.7494 66.3794 49.3794V66.5862Z" fill="white" fill-opacity="0.85"/>
</g>
</svg>
