<svg width="64" height="64" viewBox="0 0 64 64" fill="none" xmlns="http://www.w3.org/2000/svg">
<rect width="64" height="64" rx="32" fill="#5B86B0" fill-opacity="0.12"/>
<path d="M27.5 33.5C27.0875 33.5 26.7313 33.3562 26.4313 33.0687C26.1438 32.7687 26 32.4125 26 32C26 31.5875 26.1438 31.2375 26.4313 30.95C26.7313 30.65 27.0875 30.5 27.5 30.5C27.9125 30.5 28.2625 30.65 28.55 30.95C28.85 31.2375 29 31.5875 29 32C29 32.4125 28.85 32.7687 28.55 33.0687C28.2625 33.3562 27.9125 33.5 27.5 33.5ZM32 33.5C31.5875 33.5 31.2313 33.3562 30.9313 33.0687C30.6438 32.7687 30.5 32.4125 30.5 32C30.5 31.5875 30.6438 31.2375 30.9313 30.95C31.2313 30.65 31.5875 30.5 32 30.5C32.4125 30.5 32.7625 30.65 33.05 30.95C33.35 31.2375 33.5 31.5875 33.5 32C33.5 32.4125 33.35 32.7687 33.05 33.0687C32.7625 33.3562 32.4125 33.5 32 33.5ZM36.5 33.5C36.0875 33.5 35.7313 33.3562 35.4313 33.0687C35.1438 32.7687 35 32.4125 35 32C35 31.5875 35.1438 31.2375 35.4313 30.95C35.7313 30.65 36.0875 30.5 36.5 30.5C36.9125 30.5 37.2625 30.65 37.55 30.95C37.85 31.2375 38 31.5875 38 32C38 32.4125 37.85 32.7687 37.55 33.0687C37.2625 33.3562 36.9125 33.5 36.5 33.5Z" fill="#0A2841"/>
</svg>
