<svg width="64" height="64" viewBox="0 0 64 64" fill="none" xmlns="http://www.w3.org/2000/svg">
<rect width="64" height="64" rx="32" fill="#767680" fill-opacity="0.24"/>
<path d="M28 33.3333C27.6333 33.3333 27.3167 33.2056 27.05 32.95C26.7944 32.6833 26.6667 32.3667 26.6667 32C26.6667 31.6333 26.7944 31.3222 27.05 31.0667C27.3167 30.8 27.6333 30.6667 28 30.6667C28.3667 30.6667 28.6778 30.8 28.9333 31.0667C29.2 31.3222 29.3333 31.6333 29.3333 32C29.3333 32.3667 29.2 32.6833 28.9333 32.95C28.6778 33.2056 28.3667 33.3333 28 33.3333ZM32 33.3333C31.6333 33.3333 31.3167 33.2056 31.05 32.95C30.7944 32.6833 30.6667 32.3667 30.6667 32C30.6667 31.6333 30.7944 31.3222 31.05 31.0667C31.3167 30.8 31.6333 30.6667 32 30.6667C32.3667 30.6667 32.6778 30.8 32.9333 31.0667C33.2 31.3222 33.3333 31.6333 33.3333 32C33.3333 32.3667 33.2 32.6833 32.9333 32.95C32.6778 33.2056 32.3667 33.3333 32 33.3333ZM36 33.3333C35.6333 33.3333 35.3167 33.2056 35.05 32.95C34.7944 32.6833 34.6667 32.3667 34.6667 32C34.6667 31.6333 34.7944 31.3222 35.05 31.0667C35.3167 30.8 35.6333 30.6667 36 30.6667C36.3667 30.6667 36.6778 30.8 36.9333 31.0667C37.2 31.3222 37.3333 31.6333 37.3333 32C37.3333 32.3667 37.2 32.6833 36.9333 32.95C36.6778 33.2056 36.3667 33.3333 36 33.3333Z" fill="white"/>
</svg>
