<svg width="963" height="1153" viewBox="0 0 963 1153" fill="none" xmlns="http://www.w3.org/2000/svg">
<g opacity="0.1">
<path fill-rule="evenodd" clip-rule="evenodd" d="M35.3553 115.965C15.8291 135.491 15.8291 167.149 35.3553 186.676C54.8816 206.202 86.5398 206.202 106.066 186.676L186.676 106.065C206.202 86.5393 206.202 54.881 186.676 35.3548C167.15 15.8286 135.492 15.8286 115.966 35.3548L35.3553 115.965ZM60.2172 138.055L81.9961 159.834L89.2142 152.616C96.4635 145.366 95.9346 137.308 89.3076 130.681C81.5605 122.934 73.8135 124.459 66.7509 131.521L60.2172 138.055ZM86.4763 150.562L82.4317 154.607L65.413 137.588L69.3332 133.668C75.2758 127.726 80.9072 128.192 86.3519 133.637C92.45 139.735 91.7033 145.335 86.4763 150.562ZM95.4572 131.252C100.653 136.448 106.284 136.479 110.765 131.999C115.027 127.736 114.623 123.225 112.289 120.269L109.645 122.914C111.574 125.589 110.547 128.047 108.711 129.883C106.129 132.465 102.178 132.497 98.6929 129.136L110.08 117.749L109.551 117.22C104.729 112.398 99.1285 111.713 94.6483 116.193C90.5414 120.3 90.8525 126.647 95.4572 131.252ZM105.32 118.714L96.8884 127.145C94.5549 124.438 94.2438 120.829 96.7639 118.309C99.3774 115.696 102.644 116.038 105.32 118.714ZM105.757 106.08L120.754 121.076L123.429 118.401L114.625 109.596C112.136 107.107 111.482 103.591 113.816 101.257C116.025 99.0484 118.545 99.8262 121.407 102.689L130.274 111.556L132.95 108.88L124.021 99.9507C121.625 97.555 120.909 94.1637 123.274 91.7992C125.576 89.4968 128.003 90.2435 130.834 93.0748L139.795 102.035L142.47 99.3595L132.981 89.8702C128.874 85.7633 124.736 86.1055 121.718 89.1235C119.571 91.2702 119.074 94.1948 119.789 96.9639C116.927 95.8438 114.282 96.5594 112.322 98.5195C110.362 100.48 109.895 103.062 110.455 105.427L109.615 104.586L108.433 103.404L105.757 106.08ZM138.39 88.3816C143.181 93.173 149.435 93.3285 153.759 89.0039C158.053 84.7103 157.929 78.4256 153.137 73.6342C148.47 68.9673 142.092 68.7495 137.799 73.0431C133.474 77.3677 133.723 83.7147 138.39 88.3816ZM151.675 86.9193C148.813 89.7817 144.675 89.1283 141.159 85.6126C137.643 82.0969 137.114 77.9589 139.914 75.1587C142.714 72.3586 146.852 72.8875 150.368 76.4032C153.884 79.919 154.537 84.057 151.675 86.9193Z" fill="black"/>
</g>
<g opacity="0.1">
<path fill-rule="evenodd" clip-rule="evenodd" d="M35.3553 301.996C15.8291 321.522 15.8291 353.181 35.3553 372.707C54.8816 392.233 86.5398 392.233 106.066 372.707L186.676 292.097C206.202 272.571 206.202 240.912 186.676 221.386C167.15 201.86 135.492 201.86 115.966 221.386L35.3553 301.996ZM60.2172 324.086L81.9961 345.865L89.2142 338.647C96.4635 331.398 95.9346 323.34 89.3076 316.713C81.5605 308.965 73.8135 310.49 66.7509 317.553L60.2172 324.086ZM86.4763 336.594L82.4317 340.638L65.413 323.62L69.3332 319.699C75.2758 313.757 80.9072 314.224 86.3519 319.668C92.45 325.766 91.7033 331.367 86.4763 336.594ZM95.4572 317.283C100.653 322.479 106.284 322.51 110.765 318.03C115.027 313.768 114.623 309.256 112.289 306.3L109.645 308.945C111.574 311.621 110.547 314.079 108.711 315.914C106.129 318.497 102.178 318.528 98.6929 315.168L110.08 303.78L109.551 303.251C104.729 298.429 99.1285 297.744 94.6483 302.225C90.5414 306.332 90.8525 312.679 95.4572 317.283ZM105.32 304.745L96.8884 313.176C94.5549 310.47 94.2438 306.86 96.7639 304.34C99.3774 301.727 102.644 302.069 105.32 304.745ZM105.757 292.111L120.754 307.107L123.429 304.432L114.625 295.627C112.136 293.138 111.482 289.622 113.816 287.289C116.025 285.08 118.545 285.857 121.407 288.72L130.274 297.587L132.95 294.911L124.021 285.982C121.625 283.586 120.909 280.195 123.274 277.83C125.576 275.528 128.003 276.275 130.834 279.106L139.795 288.066L142.47 285.391L132.981 275.901C128.874 271.795 124.736 272.137 121.718 275.155C119.571 277.301 119.074 280.226 119.789 282.995C116.927 281.875 114.282 282.591 112.322 284.551C110.362 286.511 109.895 289.093 110.455 291.458L109.615 290.618L108.433 289.435L105.757 292.111ZM138.39 274.413C143.181 279.204 149.435 279.36 153.759 275.035C158.053 270.742 157.929 264.457 153.137 259.665C148.47 254.999 142.092 254.781 137.799 259.074C133.474 263.399 133.723 269.746 138.39 274.413ZM151.675 272.951C148.813 275.813 144.675 275.16 141.159 271.644C137.643 268.128 137.114 263.99 139.914 261.19C142.714 258.39 146.852 258.919 150.368 262.434C153.884 265.95 154.537 270.088 151.675 272.951Z" fill="black"/>
</g>
<g opacity="0.1">
<path fill-rule="evenodd" clip-rule="evenodd" d="M35.3553 488.029C15.8291 507.556 15.8291 539.214 35.3553 558.74C54.8816 578.266 86.5398 578.266 106.066 558.74L186.676 478.13C206.202 458.604 206.202 426.945 186.676 407.419C167.15 387.893 135.492 387.893 115.966 407.419L35.3553 488.029ZM60.2172 510.119L81.9961 531.898L89.2142 524.68C96.4635 517.431 95.9346 509.373 89.3076 502.746C81.5605 494.999 73.8135 496.523 66.7509 503.586L60.2172 510.119ZM86.4763 522.627L82.4317 526.671L65.413 509.653L69.3332 505.733C75.2758 499.79 80.9072 500.257 86.3519 505.701C92.45 511.8 91.7033 517.4 86.4763 522.627ZM95.4572 503.316C100.653 508.512 106.284 508.543 110.765 504.063C115.027 499.801 114.623 495.289 112.289 492.334L109.645 494.978C111.574 497.654 110.547 500.112 108.711 501.947C106.129 504.53 102.178 504.561 98.6929 501.201L110.08 489.814L109.551 489.285C104.729 484.462 99.1285 483.778 94.6483 488.258C90.5414 492.365 90.8525 498.712 95.4572 503.316ZM105.32 490.778L96.8884 499.21C94.5549 496.503 94.2438 492.894 96.7639 490.374C99.3774 487.76 102.644 488.102 105.32 490.778ZM105.757 478.144L120.754 493.141L123.429 490.465L114.625 481.66C112.136 479.171 111.482 475.655 113.816 473.322C116.025 471.113 118.545 471.891 121.407 474.753L130.274 483.62L132.95 480.944L124.021 472.015C121.625 469.619 120.909 466.228 123.274 463.864C125.576 461.561 128.003 462.308 130.834 465.139L139.795 474.1L142.47 471.424L132.981 461.935C128.874 457.828 124.736 458.17 121.718 461.188C119.571 463.335 119.074 466.259 119.789 469.028C116.927 467.908 114.282 468.624 112.322 470.584C110.362 472.544 109.895 475.126 110.455 477.491L109.615 476.651L108.433 475.469L105.757 478.144ZM138.39 460.446C143.181 465.237 149.435 465.393 153.759 461.068C158.053 456.775 157.929 450.49 153.137 445.699C148.47 441.032 142.092 440.814 137.799 445.108C133.474 449.432 133.723 455.779 138.39 460.446ZM151.675 458.984C148.813 461.846 144.675 461.193 141.159 457.677C137.643 454.161 137.114 450.023 139.914 447.223C142.714 444.423 146.852 444.952 150.368 448.468C153.884 451.983 154.537 456.121 151.675 458.984Z" fill="black"/>
</g>
<g opacity="0.1">
<path fill-rule="evenodd" clip-rule="evenodd" d="M35.3553 674.061C15.8291 693.587 15.8291 725.245 35.3553 744.771C54.8816 764.298 86.5398 764.298 106.066 744.771L186.676 664.161C206.202 644.635 206.202 612.977 186.676 593.451C167.15 573.924 135.492 573.924 115.966 593.451L35.3553 674.061ZM60.2172 696.151L81.9961 717.93L89.2142 710.711C96.4635 703.462 95.9346 695.404 89.3076 688.777C81.5605 681.03 73.8135 682.554 66.7509 689.617L60.2172 696.151ZM86.4763 708.658L82.4317 712.703L65.413 695.684L69.3332 691.764C75.2758 685.821 80.9072 686.288 86.3519 691.733C92.45 697.831 91.7033 703.431 86.4763 708.658ZM95.4572 689.348C100.653 694.544 106.284 694.575 110.765 690.094C115.027 685.832 114.623 681.321 112.289 678.365L109.645 681.01C111.574 683.685 110.547 686.143 108.711 687.979C106.129 690.561 102.178 690.592 98.6929 687.232L110.08 675.845L109.551 675.316C104.729 670.493 99.1285 669.809 94.6483 674.289C90.5414 678.396 90.8525 684.743 95.4572 689.348ZM105.32 676.809L96.8884 685.241C94.5549 682.534 94.2438 678.925 96.7639 676.405C99.3774 673.791 102.644 674.134 105.32 676.809ZM105.757 664.176L120.754 679.172L123.429 676.496L114.625 667.691C112.136 665.202 111.482 661.687 113.816 659.353C116.025 657.144 118.545 657.922 121.407 660.784L130.274 669.651L132.95 666.976L124.021 658.046C121.625 655.651 120.909 652.259 123.274 649.895C125.576 647.593 128.003 648.339 130.834 651.17L139.795 660.131L142.47 657.455L132.981 647.966C128.874 643.859 124.736 644.201 121.718 647.219C119.571 649.366 119.074 652.291 119.789 655.06C116.927 653.94 114.282 654.655 112.322 656.615C110.362 658.575 109.895 661.158 110.455 663.522L109.615 662.682L108.433 661.5L105.757 664.176ZM138.39 646.477C143.181 651.269 149.435 651.424 153.759 647.1C158.053 642.806 157.929 636.521 153.137 631.73C148.47 627.063 142.092 626.845 137.799 631.139C133.474 635.463 133.723 641.81 138.39 646.477ZM151.675 645.015C148.813 647.877 144.675 647.224 141.159 643.708C137.643 640.193 137.114 636.055 139.914 633.254C142.714 630.454 146.852 630.983 150.368 634.499C153.884 638.015 154.537 642.153 151.675 645.015Z" fill="black"/>
</g>
<g opacity="0.1">
<path fill-rule="evenodd" clip-rule="evenodd" d="M35.3553 860.092C15.8291 879.618 15.8291 911.276 35.3553 930.803C54.8816 950.329 86.5398 950.329 106.066 930.803L186.676 850.192C206.202 830.666 206.202 799.008 186.676 779.482C167.15 759.956 135.492 759.956 115.966 779.482L35.3553 860.092ZM60.2172 882.182L81.9961 903.961L89.2142 896.743C96.4635 889.493 95.9346 881.435 89.3076 874.808C81.5605 867.061 73.8135 868.586 66.7509 875.648L60.2172 882.182ZM86.4763 894.689L82.4317 898.734L65.413 881.715L69.3332 877.795C75.2758 871.853 80.9072 872.319 86.3519 877.764C92.45 883.862 91.7033 889.462 86.4763 894.689ZM95.4572 875.379C100.653 880.575 106.284 880.606 110.765 876.126C115.027 871.863 114.623 867.352 112.289 864.396L109.645 867.041C111.574 869.716 110.547 872.174 108.711 874.01C106.129 876.592 102.178 876.623 98.6929 873.263L110.08 861.876L109.551 861.347C104.729 856.525 99.1285 855.84 94.6483 860.32C90.5414 864.427 90.8525 870.774 95.4572 875.379ZM105.32 862.841L96.8884 871.272C94.5549 868.565 94.2438 864.956 96.7639 862.436C99.3774 859.823 102.644 860.165 105.32 862.841ZM105.757 850.207L120.754 865.203L123.429 862.527L114.625 853.723C112.136 851.234 111.482 847.718 113.816 845.384C116.025 843.175 118.545 843.953 121.407 846.816L130.274 855.683L132.95 853.007L124.021 844.078C121.625 841.682 120.909 838.291 123.274 835.926C125.576 833.624 128.003 834.37 130.834 837.202L139.795 846.162L142.47 843.486L132.981 833.997C128.874 829.89 124.736 830.232 121.718 833.25C119.571 835.397 119.074 838.322 119.789 841.091C116.927 839.971 114.282 840.686 112.322 842.646C110.362 844.607 109.895 847.189 110.455 849.553L109.615 848.713L108.433 847.531L105.757 850.207ZM138.39 832.509C143.181 837.3 149.435 837.456 153.759 833.131C158.053 828.837 157.929 822.553 153.137 817.761C148.47 813.094 142.092 812.876 137.799 817.17C133.474 821.495 133.723 827.842 138.39 832.509ZM151.675 831.046C148.813 833.909 144.675 833.255 141.159 829.74C137.643 826.224 137.114 822.086 139.914 819.286C142.714 816.486 146.852 817.014 150.368 820.53C153.884 824.046 154.537 828.184 151.675 831.046Z" fill="black"/>
</g>
<g opacity="0.1">
<path fill-rule="evenodd" clip-rule="evenodd" d="M35.3553 1046.12C15.8291 1065.65 15.8291 1097.31 35.3553 1116.83C54.8816 1136.36 86.5398 1136.36 106.066 1116.83L186.676 1036.22C206.202 1016.7 206.202 985.039 186.676 965.513C167.15 945.987 135.492 945.987 115.966 965.513L35.3553 1046.12ZM60.2172 1068.21L81.9961 1089.99L89.2142 1082.77C96.4635 1075.52 95.9346 1067.47 89.3076 1060.84C81.5605 1053.09 73.8135 1054.62 66.7509 1061.68L60.2172 1068.21ZM86.4763 1080.72L82.4317 1084.77L65.413 1067.75L69.3332 1063.83C75.2758 1057.88 80.9072 1058.35 86.3519 1063.8C92.45 1069.89 91.7033 1075.49 86.4763 1080.72ZM95.4572 1061.41C100.653 1066.61 106.284 1066.64 110.765 1062.16C115.027 1057.89 114.623 1053.38 112.289 1050.43L109.645 1053.07C111.574 1055.75 110.547 1058.21 108.711 1060.04C106.129 1062.62 102.178 1062.65 98.6929 1059.29L110.08 1047.91L109.551 1047.38C104.729 1042.56 99.1285 1041.87 94.6483 1046.35C90.5414 1050.46 90.8525 1056.81 95.4572 1061.41ZM105.32 1048.87L96.8884 1057.3C94.5549 1054.6 94.2438 1050.99 96.7639 1048.47C99.3774 1045.85 102.644 1046.2 105.32 1048.87ZM105.757 1036.24L120.754 1051.23L123.429 1048.56L114.625 1039.75C112.136 1037.26 111.482 1033.75 113.816 1031.42C116.025 1029.21 118.545 1029.98 121.407 1032.85L130.274 1041.71L132.95 1039.04L124.021 1030.11C121.625 1027.71 120.909 1024.32 123.274 1021.96C125.576 1019.66 128.003 1020.4 130.834 1023.23L139.795 1032.19L142.47 1029.52L132.981 1020.03C128.874 1015.92 124.736 1016.26 121.718 1019.28C119.571 1021.43 119.074 1024.35 119.789 1027.12C116.927 1026 114.282 1026.72 112.322 1028.68C110.362 1030.64 109.895 1033.22 110.455 1035.58L109.615 1034.74L108.433 1033.56L105.757 1036.24ZM138.39 1018.54C143.181 1023.33 149.435 1023.49 153.759 1019.16C158.053 1014.87 157.929 1008.58 153.137 1003.79C148.47 999.126 142.092 998.908 137.799 1003.2C133.474 1007.53 133.723 1013.87 138.39 1018.54ZM151.675 1017.08C148.813 1019.94 144.675 1019.29 141.159 1015.77C137.643 1012.26 137.114 1008.12 139.914 1005.32C142.714 1002.52 146.852 1003.05 150.368 1006.56C153.884 1010.08 154.537 1014.22 151.675 1017.08Z" fill="black"/>
</g>
<g opacity="0.1">
<path fill-rule="evenodd" clip-rule="evenodd" d="M220.387 115.965C200.861 135.491 200.861 167.149 220.387 186.676C239.913 206.202 271.571 206.202 291.098 186.676L371.708 106.065C391.234 86.5393 391.234 54.881 371.708 35.3548C352.181 15.8286 320.523 15.8286 300.997 35.3548L220.387 115.965ZM245.249 138.055L267.028 159.834L274.246 152.616C281.495 145.366 280.966 137.308 274.339 130.681C266.592 122.934 258.845 124.459 251.782 131.521L245.249 138.055ZM271.508 150.562L267.463 154.607L250.445 137.588L254.365 133.668C260.307 127.726 265.939 128.192 271.383 133.637C277.481 139.735 276.735 145.335 271.508 150.562ZM280.489 131.252C285.685 136.448 291.316 136.479 295.796 131.999C300.059 127.736 299.654 123.225 297.321 120.269L294.676 122.914C296.605 125.589 295.578 128.047 293.743 129.883C291.16 132.465 287.209 132.497 283.724 129.136L295.112 117.749L294.583 117.22C289.76 112.398 284.16 111.713 279.68 116.193C275.573 120.3 275.884 126.647 280.489 131.252ZM290.351 118.714L281.92 127.145C279.586 124.438 279.275 120.829 281.795 118.309C284.409 115.696 287.676 116.038 290.351 118.714ZM290.789 106.08L305.785 121.076L308.461 118.401L299.656 109.596C297.167 107.107 296.514 103.591 298.847 101.257C301.056 99.0484 303.576 99.8262 306.439 102.689L315.306 111.556L317.981 108.88L309.052 99.9507C306.656 97.555 305.941 94.1637 308.305 91.7992C310.608 89.4968 313.035 90.2435 315.866 93.0748L324.826 102.035L327.502 99.3595L318.013 89.8702C313.906 85.7633 309.768 86.1055 306.75 89.1235C304.603 91.2702 304.105 94.1948 304.821 96.9639C301.958 95.8438 299.314 96.5594 297.354 98.5195C295.394 100.48 294.927 103.062 295.487 105.427L294.647 104.586L293.465 103.404L290.789 106.08ZM323.421 88.3816C328.213 93.173 334.466 93.3285 338.791 89.0039C343.085 84.7103 342.96 78.4256 338.169 73.6342C333.502 68.9673 327.124 68.7495 322.83 73.0431C318.505 77.3677 318.754 83.7147 323.421 88.3816ZM336.706 86.9193C333.844 89.7817 329.706 89.1283 326.19 85.6126C322.675 82.0969 322.146 77.9589 324.946 75.1587C327.746 72.3586 331.884 72.8875 335.4 76.4032C338.915 79.919 339.569 84.057 336.706 86.9193Z" fill="black"/>
</g>
<g opacity="0.1">
<path fill-rule="evenodd" clip-rule="evenodd" d="M220.387 301.996C200.861 321.522 200.861 353.181 220.387 372.707C239.913 392.233 271.571 392.233 291.098 372.707L371.708 292.097C391.234 272.571 391.234 240.912 371.708 221.386C352.181 201.86 320.523 201.86 300.997 221.386L220.387 301.996ZM245.249 324.086L267.028 345.865L274.246 338.647C281.495 331.398 280.966 323.34 274.339 316.713C266.592 308.965 258.845 310.49 251.782 317.553L245.249 324.086ZM271.508 336.594L267.463 340.638L250.445 323.62L254.365 319.699C260.307 313.757 265.939 314.224 271.383 319.668C277.481 325.766 276.735 331.367 271.508 336.594ZM280.489 317.283C285.685 322.479 291.316 322.51 295.796 318.03C300.059 313.768 299.654 309.256 297.321 306.3L294.676 308.945C296.605 311.621 295.578 314.079 293.743 315.914C291.16 318.497 287.209 318.528 283.724 315.168L295.112 303.78L294.583 303.251C289.76 298.429 284.16 297.744 279.68 302.225C275.573 306.332 275.884 312.679 280.489 317.283ZM290.351 304.745L281.92 313.176C279.586 310.47 279.275 306.86 281.795 304.34C284.409 301.727 287.676 302.069 290.351 304.745ZM290.789 292.111L305.785 307.107L308.461 304.432L299.656 295.627C297.167 293.138 296.514 289.622 298.847 287.289C301.056 285.08 303.576 285.857 306.439 288.72L315.306 297.587L317.981 294.911L309.052 285.982C306.656 283.586 305.941 280.195 308.305 277.83C310.608 275.528 313.035 276.275 315.866 279.106L324.826 288.066L327.502 285.391L318.013 275.901C313.906 271.795 309.768 272.137 306.75 275.155C304.603 277.301 304.105 280.226 304.821 282.995C301.958 281.875 299.314 282.591 297.354 284.551C295.394 286.511 294.927 289.093 295.487 291.458L294.647 290.618L293.465 289.435L290.789 292.111ZM323.421 274.413C328.213 279.204 334.466 279.36 338.791 275.035C343.085 270.742 342.96 264.457 338.169 259.665C333.502 254.999 327.124 254.781 322.83 259.074C318.505 263.399 318.754 269.746 323.421 274.413ZM336.706 272.951C333.844 275.813 329.706 275.16 326.19 271.644C322.675 268.128 322.146 263.99 324.946 261.19C327.746 258.39 331.884 258.919 335.4 262.434C338.915 265.95 339.569 270.088 336.706 272.951Z" fill="black"/>
</g>
<g opacity="0.1">
<path fill-rule="evenodd" clip-rule="evenodd" d="M220.387 488.029C200.861 507.556 200.861 539.214 220.387 558.74C239.913 578.266 271.571 578.266 291.098 558.74L371.708 478.13C391.234 458.604 391.234 426.945 371.708 407.419C352.181 387.893 320.523 387.893 300.997 407.419L220.387 488.029ZM245.249 510.119L267.028 531.898L274.246 524.68C281.495 517.431 280.966 509.373 274.339 502.746C266.592 494.999 258.845 496.523 251.782 503.586L245.249 510.119ZM271.508 522.627L267.463 526.671L250.445 509.653L254.365 505.733C260.307 499.79 265.939 500.257 271.383 505.701C277.481 511.8 276.735 517.4 271.508 522.627ZM280.489 503.316C285.685 508.512 291.316 508.543 295.796 504.063C300.059 499.801 299.654 495.289 297.321 492.334L294.676 494.978C296.605 497.654 295.578 500.112 293.743 501.947C291.16 504.53 287.209 504.561 283.724 501.201L295.112 489.814L294.583 489.285C289.76 484.462 284.16 483.778 279.68 488.258C275.573 492.365 275.884 498.712 280.489 503.316ZM290.351 490.778L281.92 499.21C279.586 496.503 279.275 492.894 281.795 490.374C284.409 487.76 287.676 488.102 290.351 490.778ZM290.789 478.144L305.785 493.141L308.461 490.465L299.656 481.66C297.167 479.171 296.514 475.655 298.847 473.322C301.056 471.113 303.576 471.891 306.439 474.753L315.306 483.62L317.981 480.944L309.052 472.015C306.656 469.619 305.941 466.228 308.305 463.864C310.608 461.561 313.035 462.308 315.866 465.139L324.826 474.1L327.502 471.424L318.013 461.935C313.906 457.828 309.768 458.17 306.75 461.188C304.603 463.335 304.105 466.259 304.821 469.028C301.958 467.908 299.314 468.624 297.354 470.584C295.394 472.544 294.927 475.126 295.487 477.491L294.647 476.651L293.465 475.469L290.789 478.144ZM323.421 460.446C328.213 465.237 334.466 465.393 338.791 461.068C343.085 456.775 342.96 450.49 338.169 445.699C333.502 441.032 327.124 440.814 322.83 445.108C318.505 449.432 318.754 455.779 323.421 460.446ZM336.706 458.984C333.844 461.846 329.706 461.193 326.19 457.677C322.675 454.161 322.146 450.023 324.946 447.223C327.746 444.423 331.884 444.952 335.4 448.468C338.915 451.983 339.569 456.121 336.706 458.984Z" fill="black"/>
</g>
<g opacity="0.1">
<path fill-rule="evenodd" clip-rule="evenodd" d="M220.387 674.061C200.861 693.587 200.861 725.245 220.387 744.771C239.913 764.298 271.571 764.298 291.098 744.771L371.708 664.161C391.234 644.635 391.234 612.977 371.708 593.451C352.181 573.924 320.523 573.924 300.997 593.451L220.387 674.061ZM245.249 696.151L267.028 717.93L274.246 710.711C281.495 703.462 280.966 695.404 274.339 688.777C266.592 681.03 258.845 682.554 251.782 689.617L245.249 696.151ZM271.508 708.658L267.463 712.703L250.445 695.684L254.365 691.764C260.307 685.821 265.939 686.288 271.383 691.733C277.481 697.831 276.735 703.431 271.508 708.658ZM280.489 689.348C285.685 694.544 291.316 694.575 295.796 690.094C300.059 685.832 299.654 681.321 297.321 678.365L294.676 681.01C296.605 683.685 295.578 686.143 293.743 687.979C291.16 690.561 287.209 690.592 283.724 687.232L295.112 675.845L294.583 675.316C289.76 670.493 284.16 669.809 279.68 674.289C275.573 678.396 275.884 684.743 280.489 689.348ZM290.351 676.809L281.92 685.241C279.586 682.534 279.275 678.925 281.795 676.405C284.409 673.791 287.676 674.134 290.351 676.809ZM290.789 664.176L305.785 679.172L308.461 676.496L299.656 667.691C297.167 665.202 296.514 661.687 298.847 659.353C301.056 657.144 303.576 657.922 306.439 660.784L315.306 669.651L317.981 666.976L309.052 658.046C306.656 655.651 305.941 652.259 308.305 649.895C310.608 647.593 313.035 648.339 315.866 651.17L324.826 660.131L327.502 657.455L318.013 647.966C313.906 643.859 309.768 644.201 306.75 647.219C304.603 649.366 304.105 652.291 304.821 655.06C301.958 653.94 299.314 654.655 297.354 656.615C295.394 658.575 294.927 661.158 295.487 663.522L294.647 662.682L293.465 661.5L290.789 664.176ZM323.421 646.477C328.213 651.269 334.466 651.424 338.791 647.1C343.085 642.806 342.96 636.521 338.169 631.73C333.502 627.063 327.124 626.845 322.83 631.139C318.505 635.463 318.754 641.81 323.421 646.477ZM336.706 645.015C333.844 647.877 329.706 647.224 326.19 643.708C322.675 640.193 322.146 636.055 324.946 633.254C327.746 630.454 331.884 630.983 335.4 634.499C338.915 638.015 339.569 642.153 336.706 645.015Z" fill="black"/>
</g>
<g opacity="0.1">
<path fill-rule="evenodd" clip-rule="evenodd" d="M220.387 860.092C200.861 879.618 200.861 911.276 220.387 930.803C239.913 950.329 271.571 950.329 291.098 930.803L371.708 850.192C391.234 830.666 391.234 799.008 371.708 779.482C352.181 759.956 320.523 759.956 300.997 779.482L220.387 860.092ZM245.249 882.182L267.028 903.961L274.246 896.743C281.495 889.493 280.966 881.435 274.339 874.808C266.592 867.061 258.845 868.586 251.782 875.648L245.249 882.182ZM271.508 894.689L267.463 898.734L250.445 881.715L254.365 877.795C260.307 871.853 265.939 872.319 271.383 877.764C277.481 883.862 276.735 889.462 271.508 894.689ZM280.489 875.379C285.685 880.575 291.316 880.606 295.796 876.126C300.059 871.863 299.654 867.352 297.321 864.396L294.676 867.041C296.605 869.716 295.578 872.174 293.743 874.01C291.16 876.592 287.209 876.623 283.724 873.263L295.112 861.876L294.583 861.347C289.76 856.525 284.16 855.84 279.68 860.32C275.573 864.427 275.884 870.774 280.489 875.379ZM290.351 862.841L281.92 871.272C279.586 868.565 279.275 864.956 281.795 862.436C284.409 859.823 287.676 860.165 290.351 862.841ZM290.789 850.207L305.785 865.203L308.461 862.527L299.656 853.723C297.167 851.234 296.514 847.718 298.847 845.384C301.056 843.175 303.576 843.953 306.439 846.816L315.306 855.683L317.981 853.007L309.052 844.078C306.656 841.682 305.941 838.291 308.305 835.926C310.608 833.624 313.035 834.37 315.866 837.202L324.826 846.162L327.502 843.486L318.013 833.997C313.906 829.89 309.768 830.232 306.75 833.25C304.603 835.397 304.105 838.322 304.821 841.091C301.958 839.971 299.314 840.686 297.354 842.646C295.394 844.607 294.927 847.189 295.487 849.553L294.647 848.713L293.465 847.531L290.789 850.207ZM323.421 832.509C328.213 837.3 334.466 837.456 338.791 833.131C343.085 828.837 342.96 822.553 338.169 817.761C333.502 813.094 327.124 812.876 322.83 817.17C318.505 821.495 318.754 827.842 323.421 832.509ZM336.706 831.046C333.844 833.909 329.706 833.255 326.19 829.74C322.675 826.224 322.146 822.086 324.946 819.286C327.746 816.486 331.884 817.014 335.4 820.53C338.915 824.046 339.569 828.184 336.706 831.046Z" fill="black"/>
</g>
<g opacity="0.1">
<path fill-rule="evenodd" clip-rule="evenodd" d="M220.387 1046.12C200.861 1065.65 200.861 1097.31 220.387 1116.83C239.913 1136.36 271.571 1136.36 291.098 1116.83L371.708 1036.22C391.234 1016.7 391.234 985.039 371.708 965.513C352.181 945.987 320.523 945.987 300.997 965.513L220.387 1046.12ZM245.249 1068.21L267.028 1089.99L274.246 1082.77C281.495 1075.52 280.966 1067.47 274.339 1060.84C266.592 1053.09 258.845 1054.62 251.782 1061.68L245.249 1068.21ZM271.508 1080.72L267.463 1084.77L250.445 1067.75L254.365 1063.83C260.307 1057.88 265.939 1058.35 271.383 1063.8C277.481 1069.89 276.735 1075.49 271.508 1080.72ZM280.489 1061.41C285.685 1066.61 291.316 1066.64 295.796 1062.16C300.059 1057.89 299.654 1053.38 297.321 1050.43L294.676 1053.07C296.605 1055.75 295.578 1058.21 293.743 1060.04C291.16 1062.62 287.209 1062.65 283.724 1059.29L295.112 1047.91L294.583 1047.38C289.76 1042.56 284.16 1041.87 279.68 1046.35C275.573 1050.46 275.884 1056.81 280.489 1061.41ZM290.351 1048.87L281.92 1057.3C279.586 1054.6 279.275 1050.99 281.795 1048.47C284.409 1045.85 287.676 1046.2 290.351 1048.87ZM290.789 1036.24L305.785 1051.23L308.461 1048.56L299.656 1039.75C297.167 1037.26 296.514 1033.75 298.847 1031.42C301.056 1029.21 303.576 1029.98 306.439 1032.85L315.306 1041.71L317.981 1039.04L309.052 1030.11C306.656 1027.71 305.941 1024.32 308.305 1021.96C310.608 1019.66 313.035 1020.4 315.866 1023.23L324.826 1032.19L327.502 1029.52L318.013 1020.03C313.906 1015.92 309.768 1016.26 306.75 1019.28C304.603 1021.43 304.105 1024.35 304.821 1027.12C301.958 1026 299.314 1026.72 297.354 1028.68C295.394 1030.64 294.927 1033.22 295.487 1035.58L294.647 1034.74L293.465 1033.56L290.789 1036.24ZM323.421 1018.54C328.213 1023.33 334.466 1023.49 338.791 1019.16C343.085 1014.87 342.96 1008.58 338.169 1003.79C333.502 999.126 327.124 998.908 322.83 1003.2C318.505 1007.53 318.754 1013.87 323.421 1018.54ZM336.706 1017.08C333.844 1019.94 329.706 1019.29 326.19 1015.77C322.675 1012.26 322.146 1008.12 324.946 1005.32C327.746 1002.52 331.884 1003.05 335.4 1006.56C338.915 1010.08 339.569 1014.22 336.706 1017.08Z" fill="black"/>
</g>
<g opacity="0.1">
<path fill-rule="evenodd" clip-rule="evenodd" d="M405.418 115.965C385.892 135.491 385.892 167.149 405.418 186.676C424.945 206.202 456.603 206.202 476.129 186.676L556.739 106.065C576.265 86.5393 576.265 54.881 556.739 35.3548C537.213 15.8286 505.555 15.8286 486.029 35.3548L405.418 115.965ZM430.28 138.055L452.059 159.834L459.277 152.616C466.527 145.366 465.998 137.308 459.371 130.681C451.624 122.934 443.877 124.459 436.814 131.521L430.28 138.055ZM456.539 150.562L452.495 154.607L435.476 137.588L439.396 133.668C445.339 127.726 450.97 128.192 456.415 133.637C462.513 139.735 461.766 145.335 456.539 150.562ZM465.52 131.252C470.716 136.448 476.347 136.479 480.828 131.999C485.09 127.736 484.686 123.225 482.352 120.269L479.708 122.914C481.637 125.589 480.61 128.047 478.774 129.883C476.192 132.465 472.241 132.497 468.756 129.136L480.143 117.749L479.614 117.22C474.792 112.398 469.192 111.713 464.711 116.193C460.604 120.3 460.916 126.647 465.52 131.252ZM475.383 118.714L466.951 127.145C464.618 124.438 464.307 120.829 466.827 118.309C469.44 115.696 472.707 116.038 475.383 118.714ZM475.82 106.08L490.817 121.076L493.493 118.401L484.688 109.596C482.199 107.107 481.545 103.591 483.879 101.257C486.088 99.0484 488.608 99.8262 491.47 102.689L500.337 111.556L503.013 108.88L494.084 99.9507C491.688 97.555 490.972 94.1637 493.337 91.7992C495.639 89.4968 498.066 90.2435 500.897 93.0748L509.858 102.035L512.533 99.3595L503.044 89.8702C498.937 85.7633 494.799 86.1055 491.781 89.1235C489.635 91.2702 489.137 94.1948 489.852 96.9639C486.99 95.8438 484.345 96.5594 482.385 98.5195C480.425 100.48 479.958 103.062 480.519 105.427L479.678 104.586L478.496 103.404L475.82 106.08ZM508.453 88.3816C513.244 93.173 519.498 93.3285 523.823 89.0039C528.116 84.7103 527.992 78.4256 523.2 73.6342C518.533 68.9673 512.155 68.7495 507.862 73.0431C503.537 77.3677 503.786 83.7147 508.453 88.3816ZM521.738 86.9193C518.876 89.7817 514.738 89.1283 511.222 85.6126C507.706 82.0969 507.177 77.9589 509.977 75.1587C512.778 72.3586 516.916 72.8875 520.431 76.4032C523.947 79.919 524.6 84.057 521.738 86.9193Z" fill="black"/>
</g>
<g opacity="0.1">
<path fill-rule="evenodd" clip-rule="evenodd" d="M405.418 301.996C385.892 321.522 385.892 353.181 405.418 372.707C424.945 392.233 456.603 392.233 476.129 372.707L556.739 292.097C576.265 272.571 576.265 240.912 556.739 221.386C537.213 201.86 505.555 201.86 486.029 221.386L405.418 301.996ZM430.28 324.086L452.059 345.865L459.277 338.647C466.527 331.398 465.998 323.34 459.371 316.713C451.624 308.965 443.877 310.49 436.814 317.553L430.28 324.086ZM456.539 336.594L452.495 340.638L435.476 323.62L439.396 319.699C445.339 313.757 450.97 314.224 456.415 319.668C462.513 325.766 461.766 331.367 456.539 336.594ZM465.52 317.283C470.716 322.479 476.347 322.51 480.828 318.03C485.09 313.768 484.686 309.256 482.352 306.3L479.708 308.945C481.637 311.621 480.61 314.079 478.774 315.914C476.192 318.497 472.241 318.528 468.756 315.168L480.143 303.78L479.614 303.251C474.792 298.429 469.192 297.744 464.711 302.225C460.604 306.332 460.916 312.679 465.52 317.283ZM475.383 304.745L466.951 313.176C464.618 310.47 464.307 306.86 466.827 304.34C469.44 301.727 472.707 302.069 475.383 304.745ZM475.82 292.111L490.817 307.107L493.493 304.432L484.688 295.627C482.199 293.138 481.545 289.622 483.879 287.289C486.088 285.08 488.608 285.857 491.47 288.72L500.337 297.587L503.013 294.911L494.084 285.982C491.688 283.586 490.972 280.195 493.337 277.83C495.639 275.528 498.066 276.275 500.897 279.106L509.858 288.066L512.533 285.391L503.044 275.901C498.937 271.795 494.799 272.137 491.781 275.155C489.635 277.301 489.137 280.226 489.852 282.995C486.99 281.875 484.345 282.591 482.385 284.551C480.425 286.511 479.958 289.093 480.519 291.458L479.678 290.618L478.496 289.435L475.82 292.111ZM508.453 274.413C513.244 279.204 519.498 279.36 523.823 275.035C528.116 270.742 527.992 264.457 523.2 259.665C518.533 254.999 512.155 254.781 507.862 259.074C503.537 263.399 503.786 269.746 508.453 274.413ZM521.738 272.951C518.876 275.813 514.738 275.16 511.222 271.644C507.706 268.128 507.177 263.99 509.977 261.19C512.778 258.39 516.916 258.919 520.431 262.434C523.947 265.95 524.6 270.088 521.738 272.951Z" fill="black"/>
</g>
<g opacity="0.1">
<path fill-rule="evenodd" clip-rule="evenodd" d="M405.418 488.029C385.892 507.556 385.892 539.214 405.418 558.74C424.945 578.266 456.603 578.266 476.129 558.74L556.739 478.13C576.265 458.604 576.265 426.945 556.739 407.419C537.213 387.893 505.555 387.893 486.029 407.419L405.418 488.029ZM430.28 510.119L452.059 531.898L459.277 524.68C466.527 517.431 465.998 509.373 459.371 502.746C451.624 494.999 443.877 496.523 436.814 503.586L430.28 510.119ZM456.539 522.627L452.495 526.671L435.476 509.653L439.396 505.733C445.339 499.79 450.97 500.257 456.415 505.701C462.513 511.8 461.766 517.4 456.539 522.627ZM465.52 503.316C470.716 508.512 476.347 508.543 480.828 504.063C485.09 499.801 484.686 495.289 482.352 492.334L479.708 494.978C481.637 497.654 480.61 500.112 478.774 501.947C476.192 504.53 472.241 504.561 468.756 501.201L480.143 489.814L479.614 489.285C474.792 484.462 469.192 483.778 464.711 488.258C460.604 492.365 460.916 498.712 465.52 503.316ZM475.383 490.778L466.951 499.21C464.618 496.503 464.307 492.894 466.827 490.374C469.44 487.76 472.707 488.102 475.383 490.778ZM475.82 478.144L490.817 493.141L493.493 490.465L484.688 481.66C482.199 479.171 481.545 475.655 483.879 473.322C486.088 471.113 488.608 471.891 491.47 474.753L500.337 483.62L503.013 480.944L494.084 472.015C491.688 469.619 490.972 466.228 493.337 463.864C495.639 461.561 498.066 462.308 500.897 465.139L509.858 474.1L512.533 471.424L503.044 461.935C498.937 457.828 494.799 458.17 491.781 461.188C489.635 463.335 489.137 466.259 489.852 469.028C486.99 467.908 484.345 468.624 482.385 470.584C480.425 472.544 479.958 475.126 480.519 477.491L479.678 476.651L478.496 475.469L475.82 478.144ZM508.453 460.446C513.244 465.237 519.498 465.393 523.823 461.068C528.116 456.775 527.992 450.49 523.2 445.699C518.533 441.032 512.155 440.814 507.862 445.108C503.537 449.432 503.786 455.779 508.453 460.446ZM521.738 458.984C518.876 461.846 514.738 461.193 511.222 457.677C507.706 454.161 507.177 450.023 509.977 447.223C512.778 444.423 516.916 444.952 520.431 448.468C523.947 451.983 524.6 456.121 521.738 458.984Z" fill="black"/>
</g>
<g opacity="0.1">
<path fill-rule="evenodd" clip-rule="evenodd" d="M405.418 674.061C385.892 693.587 385.892 725.245 405.418 744.771C424.945 764.298 456.603 764.298 476.129 744.771L556.739 664.161C576.265 644.635 576.265 612.977 556.739 593.451C537.213 573.924 505.555 573.924 486.029 593.451L405.418 674.061ZM430.28 696.151L452.059 717.93L459.277 710.711C466.527 703.462 465.998 695.404 459.371 688.777C451.624 681.03 443.877 682.554 436.814 689.617L430.28 696.151ZM456.539 708.658L452.495 712.703L435.476 695.684L439.396 691.764C445.339 685.821 450.97 686.288 456.415 691.733C462.513 697.831 461.766 703.431 456.539 708.658ZM465.52 689.348C470.716 694.544 476.347 694.575 480.828 690.094C485.09 685.832 484.686 681.321 482.352 678.365L479.708 681.01C481.637 683.685 480.61 686.143 478.774 687.979C476.192 690.561 472.241 690.592 468.756 687.232L480.143 675.845L479.614 675.316C474.792 670.493 469.192 669.809 464.711 674.289C460.604 678.396 460.916 684.743 465.52 689.348ZM475.383 676.809L466.951 685.241C464.618 682.534 464.307 678.925 466.827 676.405C469.44 673.791 472.707 674.134 475.383 676.809ZM475.82 664.176L490.817 679.172L493.493 676.496L484.688 667.691C482.199 665.202 481.545 661.687 483.879 659.353C486.088 657.144 488.608 657.922 491.47 660.784L500.337 669.651L503.013 666.976L494.084 658.046C491.688 655.651 490.972 652.259 493.337 649.895C495.639 647.593 498.066 648.339 500.897 651.17L509.858 660.131L512.533 657.455L503.044 647.966C498.937 643.859 494.799 644.201 491.781 647.219C489.635 649.366 489.137 652.291 489.852 655.06C486.99 653.94 484.345 654.655 482.385 656.615C480.425 658.575 479.958 661.158 480.519 663.522L479.678 662.682L478.496 661.5L475.82 664.176ZM508.453 646.477C513.244 651.269 519.498 651.424 523.823 647.1C528.116 642.806 527.992 636.521 523.2 631.73C518.533 627.063 512.155 626.845 507.862 631.139C503.537 635.463 503.786 641.81 508.453 646.477ZM521.738 645.015C518.876 647.877 514.738 647.224 511.222 643.708C507.706 640.193 507.177 636.055 509.977 633.254C512.778 630.454 516.916 630.983 520.431 634.499C523.947 638.015 524.6 642.153 521.738 645.015Z" fill="black"/>
</g>
<g opacity="0.1">
<path fill-rule="evenodd" clip-rule="evenodd" d="M405.418 860.092C385.892 879.618 385.892 911.276 405.418 930.803C424.945 950.329 456.603 950.329 476.129 930.803L556.739 850.192C576.265 830.666 576.265 799.008 556.739 779.482C537.213 759.956 505.555 759.956 486.029 779.482L405.418 860.092ZM430.28 882.182L452.059 903.961L459.277 896.743C466.527 889.493 465.998 881.435 459.371 874.808C451.624 867.061 443.877 868.586 436.814 875.648L430.28 882.182ZM456.539 894.689L452.495 898.734L435.476 881.715L439.396 877.795C445.339 871.853 450.97 872.319 456.415 877.764C462.513 883.862 461.766 889.462 456.539 894.689ZM465.52 875.379C470.716 880.575 476.347 880.606 480.828 876.126C485.09 871.863 484.686 867.352 482.352 864.396L479.708 867.041C481.637 869.716 480.61 872.174 478.774 874.01C476.192 876.592 472.241 876.623 468.756 873.263L480.143 861.876L479.614 861.347C474.792 856.525 469.192 855.84 464.711 860.32C460.604 864.427 460.916 870.774 465.52 875.379ZM475.383 862.841L466.951 871.272C464.618 868.565 464.307 864.956 466.827 862.436C469.44 859.823 472.707 860.165 475.383 862.841ZM475.82 850.207L490.817 865.203L493.493 862.527L484.688 853.723C482.199 851.234 481.545 847.718 483.879 845.384C486.088 843.175 488.608 843.953 491.47 846.816L500.337 855.683L503.013 853.007L494.084 844.078C491.688 841.682 490.972 838.291 493.337 835.926C495.639 833.624 498.066 834.37 500.897 837.202L509.858 846.162L512.533 843.486L503.044 833.997C498.937 829.89 494.799 830.232 491.781 833.25C489.635 835.397 489.137 838.322 489.852 841.091C486.99 839.971 484.345 840.686 482.385 842.646C480.425 844.607 479.958 847.189 480.519 849.553L479.678 848.713L478.496 847.531L475.82 850.207ZM508.453 832.509C513.244 837.3 519.498 837.456 523.823 833.131C528.116 828.837 527.992 822.553 523.2 817.761C518.533 813.094 512.155 812.876 507.862 817.17C503.537 821.495 503.786 827.842 508.453 832.509ZM521.738 831.046C518.876 833.909 514.738 833.255 511.222 829.74C507.706 826.224 507.177 822.086 509.977 819.286C512.778 816.486 516.916 817.014 520.431 820.53C523.947 824.046 524.6 828.184 521.738 831.046Z" fill="black"/>
</g>
<g opacity="0.1">
<path fill-rule="evenodd" clip-rule="evenodd" d="M405.418 1046.12C385.892 1065.65 385.892 1097.31 405.418 1116.83C424.945 1136.36 456.603 1136.36 476.129 1116.83L556.739 1036.22C576.265 1016.7 576.265 985.039 556.739 965.513C537.213 945.987 505.555 945.987 486.029 965.513L405.418 1046.12ZM430.28 1068.21L452.059 1089.99L459.277 1082.77C466.527 1075.52 465.998 1067.47 459.371 1060.84C451.624 1053.09 443.877 1054.62 436.814 1061.68L430.28 1068.21ZM456.539 1080.72L452.495 1084.77L435.476 1067.75L439.396 1063.83C445.339 1057.88 450.97 1058.35 456.415 1063.8C462.513 1069.89 461.766 1075.49 456.539 1080.72ZM465.52 1061.41C470.716 1066.61 476.347 1066.64 480.828 1062.16C485.09 1057.89 484.686 1053.38 482.352 1050.43L479.708 1053.07C481.637 1055.75 480.61 1058.21 478.774 1060.04C476.192 1062.62 472.241 1062.65 468.756 1059.29L480.143 1047.91L479.614 1047.38C474.792 1042.56 469.192 1041.87 464.711 1046.35C460.604 1050.46 460.916 1056.81 465.52 1061.41ZM475.383 1048.87L466.951 1057.3C464.618 1054.6 464.307 1050.99 466.827 1048.47C469.44 1045.85 472.707 1046.2 475.383 1048.87ZM475.82 1036.24L490.817 1051.23L493.493 1048.56L484.688 1039.75C482.199 1037.26 481.545 1033.75 483.879 1031.42C486.088 1029.21 488.608 1029.98 491.47 1032.85L500.337 1041.71L503.013 1039.04L494.084 1030.11C491.688 1027.71 490.972 1024.32 493.337 1021.96C495.639 1019.66 498.066 1020.4 500.897 1023.23L509.858 1032.19L512.533 1029.52L503.044 1020.03C498.937 1015.92 494.799 1016.26 491.781 1019.28C489.635 1021.43 489.137 1024.35 489.852 1027.12C486.99 1026 484.345 1026.72 482.385 1028.68C480.425 1030.64 479.958 1033.22 480.519 1035.58L479.678 1034.74L478.496 1033.56L475.82 1036.24ZM508.453 1018.54C513.244 1023.33 519.498 1023.49 523.823 1019.16C528.116 1014.87 527.992 1008.58 523.2 1003.79C518.533 999.126 512.155 998.908 507.862 1003.2C503.537 1007.53 503.786 1013.87 508.453 1018.54ZM521.738 1017.08C518.876 1019.94 514.738 1019.29 511.222 1015.77C507.706 1012.26 507.177 1008.12 509.977 1005.32C512.778 1002.52 516.916 1003.05 520.431 1006.56C523.947 1010.08 524.6 1014.22 521.738 1017.08Z" fill="black"/>
</g>
<g opacity="0.1">
<path fill-rule="evenodd" clip-rule="evenodd" d="M590.45 115.965C570.924 135.491 570.924 167.149 590.45 186.676C609.976 206.202 641.634 206.202 661.161 186.676L741.771 106.065C761.297 86.5393 761.297 54.881 741.771 35.3548C722.245 15.8286 690.586 15.8286 671.06 35.3548L590.45 115.965ZM615.312 138.055L637.091 159.834L644.309 152.616C651.558 145.366 651.029 137.308 644.402 130.681C636.655 122.934 628.908 124.459 621.845 131.521L615.312 138.055ZM641.571 150.562L637.526 154.607L620.508 137.588L624.428 133.668C630.37 127.726 636.002 128.192 641.446 133.637C647.545 139.735 646.798 145.335 641.571 150.562ZM650.552 131.252C655.748 136.448 661.379 136.479 665.859 131.999C670.122 127.736 669.717 123.225 667.384 120.269L664.739 122.914C666.668 125.589 665.641 128.047 663.806 129.883C661.223 132.465 657.272 132.497 653.788 129.136L665.175 117.749L664.646 117.22C659.823 112.398 654.223 111.713 649.743 116.193C645.636 120.3 645.947 126.647 650.552 131.252ZM660.415 118.714L651.983 127.145C649.65 124.438 649.338 120.829 651.859 118.309C654.472 115.696 657.739 116.038 660.415 118.714ZM660.852 106.08L675.848 121.076L678.524 118.401L669.719 109.596C667.23 107.107 666.577 103.591 668.91 101.257C671.119 99.0484 673.639 99.8262 676.502 102.689L685.369 111.556L688.045 108.88L679.115 99.9507C676.72 97.555 676.004 94.1637 678.369 91.7992C680.671 89.4968 683.098 90.2435 685.929 93.0748L694.889 102.035L697.565 99.3595L688.076 89.8702C683.969 85.7633 679.831 86.1055 676.813 89.1235C674.666 91.2702 674.168 94.1948 674.884 96.9639C672.022 95.8438 669.377 96.5594 667.417 98.5195C665.457 100.48 664.99 103.062 665.55 105.427L664.71 104.586L663.528 103.404L660.852 106.08ZM693.484 88.3816C698.276 93.173 704.529 93.3285 708.854 89.0039C713.148 84.7103 713.023 78.4256 708.232 73.6342C703.565 68.9673 697.187 68.7495 692.893 73.0431C688.569 77.3677 688.818 83.7147 693.484 88.3816ZM706.77 86.9193C703.907 89.7817 699.769 89.1283 696.253 85.6126C692.738 82.0969 692.209 77.9589 695.009 75.1587C697.809 72.3586 701.947 72.8875 705.463 76.4032C708.979 79.919 709.632 84.057 706.77 86.9193Z" fill="black"/>
</g>
<g opacity="0.1">
<path fill-rule="evenodd" clip-rule="evenodd" d="M590.45 301.996C570.924 321.522 570.924 353.181 590.45 372.707C609.976 392.233 641.634 392.233 661.161 372.707L741.771 292.097C761.297 272.571 761.297 240.912 741.771 221.386C722.245 201.86 690.586 201.86 671.06 221.386L590.45 301.996ZM615.312 324.086L637.091 345.865L644.309 338.647C651.558 331.398 651.029 323.34 644.402 316.713C636.655 308.965 628.908 310.49 621.845 317.553L615.312 324.086ZM641.571 336.594L637.526 340.638L620.508 323.62L624.428 319.699C630.37 313.757 636.002 314.224 641.446 319.668C647.545 325.766 646.798 331.367 641.571 336.594ZM650.552 317.283C655.748 322.479 661.379 322.51 665.859 318.03C670.122 313.768 669.717 309.256 667.384 306.3L664.739 308.945C666.668 311.621 665.641 314.079 663.806 315.914C661.223 318.497 657.272 318.528 653.788 315.168L665.175 303.78L664.646 303.251C659.823 298.429 654.223 297.744 649.743 302.225C645.636 306.332 645.947 312.679 650.552 317.283ZM660.415 304.745L651.983 313.176C649.65 310.47 649.338 306.86 651.859 304.34C654.472 301.727 657.739 302.069 660.415 304.745ZM660.852 292.111L675.848 307.107L678.524 304.432L669.719 295.627C667.23 293.138 666.577 289.622 668.91 287.289C671.119 285.08 673.639 285.857 676.502 288.72L685.369 297.587L688.045 294.911L679.115 285.982C676.72 283.586 676.004 280.195 678.369 277.83C680.671 275.528 683.098 276.275 685.929 279.106L694.889 288.066L697.565 285.391L688.076 275.901C683.969 271.795 679.831 272.137 676.813 275.155C674.666 277.301 674.168 280.226 674.884 282.995C672.022 281.875 669.377 282.591 667.417 284.551C665.457 286.511 664.99 289.093 665.55 291.458L664.71 290.618L663.528 289.435L660.852 292.111ZM693.484 274.413C698.276 279.204 704.529 279.36 708.854 275.035C713.148 270.742 713.023 264.457 708.232 259.665C703.565 254.999 697.187 254.781 692.893 259.074C688.569 263.399 688.818 269.746 693.484 274.413ZM706.77 272.951C703.907 275.813 699.769 275.16 696.253 271.644C692.738 268.128 692.209 263.99 695.009 261.19C697.809 258.39 701.947 258.919 705.463 262.434C708.979 265.95 709.632 270.088 706.77 272.951Z" fill="black"/>
</g>
<g opacity="0.1">
<path fill-rule="evenodd" clip-rule="evenodd" d="M590.45 488.029C570.924 507.556 570.924 539.214 590.45 558.74C609.976 578.266 641.634 578.266 661.161 558.74L741.771 478.13C761.297 458.604 761.297 426.945 741.771 407.419C722.245 387.893 690.586 387.893 671.06 407.419L590.45 488.029ZM615.312 510.119L637.091 531.898L644.309 524.68C651.558 517.431 651.029 509.373 644.402 502.746C636.655 494.999 628.908 496.523 621.845 503.586L615.312 510.119ZM641.571 522.627L637.526 526.671L620.508 509.653L624.428 505.733C630.37 499.79 636.002 500.257 641.446 505.701C647.545 511.8 646.798 517.4 641.571 522.627ZM650.552 503.316C655.748 508.512 661.379 508.543 665.859 504.063C670.122 499.801 669.717 495.289 667.384 492.334L664.739 494.978C666.668 497.654 665.641 500.112 663.806 501.947C661.223 504.53 657.272 504.561 653.788 501.201L665.175 489.814L664.646 489.285C659.823 484.462 654.223 483.778 649.743 488.258C645.636 492.365 645.947 498.712 650.552 503.316ZM660.415 490.778L651.983 499.21C649.65 496.503 649.338 492.894 651.859 490.374C654.472 487.76 657.739 488.102 660.415 490.778ZM660.852 478.144L675.848 493.141L678.524 490.465L669.719 481.66C667.23 479.171 666.577 475.655 668.91 473.322C671.119 471.113 673.639 471.891 676.502 474.753L685.369 483.62L688.045 480.944L679.115 472.015C676.72 469.619 676.004 466.228 678.369 463.864C680.671 461.561 683.098 462.308 685.929 465.139L694.889 474.1L697.565 471.424L688.076 461.935C683.969 457.828 679.831 458.17 676.813 461.188C674.666 463.335 674.168 466.259 674.884 469.028C672.022 467.908 669.377 468.624 667.417 470.584C665.457 472.544 664.99 475.126 665.55 477.491L664.71 476.651L663.528 475.469L660.852 478.144ZM693.484 460.446C698.276 465.237 704.529 465.393 708.854 461.068C713.148 456.775 713.023 450.49 708.232 445.699C703.565 441.032 697.187 440.814 692.893 445.108C688.569 449.432 688.818 455.779 693.484 460.446ZM706.77 458.984C703.907 461.846 699.769 461.193 696.253 457.677C692.738 454.161 692.209 450.023 695.009 447.223C697.809 444.423 701.947 444.952 705.463 448.468C708.979 451.983 709.632 456.121 706.77 458.984Z" fill="black"/>
</g>
<g opacity="0.1">
<path fill-rule="evenodd" clip-rule="evenodd" d="M590.45 674.061C570.924 693.587 570.924 725.245 590.45 744.771C609.976 764.298 641.634 764.298 661.161 744.771L741.771 664.161C761.297 644.635 761.297 612.977 741.771 593.451C722.245 573.924 690.586 573.924 671.06 593.451L590.45 674.061ZM615.312 696.151L637.091 717.93L644.309 710.711C651.558 703.462 651.029 695.404 644.402 688.777C636.655 681.03 628.908 682.554 621.845 689.617L615.312 696.151ZM641.571 708.658L637.526 712.703L620.508 695.684L624.428 691.764C630.37 685.821 636.002 686.288 641.446 691.733C647.545 697.831 646.798 703.431 641.571 708.658ZM650.552 689.348C655.748 694.544 661.379 694.575 665.859 690.094C670.122 685.832 669.717 681.321 667.384 678.365L664.739 681.01C666.668 683.685 665.641 686.143 663.806 687.979C661.223 690.561 657.272 690.592 653.788 687.232L665.175 675.845L664.646 675.316C659.823 670.493 654.223 669.809 649.743 674.289C645.636 678.396 645.947 684.743 650.552 689.348ZM660.415 676.809L651.983 685.241C649.65 682.534 649.338 678.925 651.859 676.405C654.472 673.791 657.739 674.134 660.415 676.809ZM660.852 664.176L675.848 679.172L678.524 676.496L669.719 667.691C667.23 665.202 666.577 661.687 668.91 659.353C671.119 657.144 673.639 657.922 676.502 660.784L685.369 669.651L688.045 666.976L679.115 658.046C676.72 655.651 676.004 652.259 678.369 649.895C680.671 647.593 683.098 648.339 685.929 651.17L694.889 660.131L697.565 657.455L688.076 647.966C683.969 643.859 679.831 644.201 676.813 647.219C674.666 649.366 674.168 652.291 674.884 655.06C672.022 653.94 669.377 654.655 667.417 656.615C665.457 658.575 664.99 661.158 665.55 663.522L664.71 662.682L663.528 661.5L660.852 664.176ZM693.484 646.477C698.276 651.269 704.529 651.424 708.854 647.1C713.148 642.806 713.023 636.521 708.232 631.73C703.565 627.063 697.187 626.845 692.893 631.139C688.569 635.463 688.818 641.81 693.484 646.477ZM706.77 645.015C703.907 647.877 699.769 647.224 696.253 643.708C692.738 640.193 692.209 636.055 695.009 633.254C697.809 630.454 701.947 630.983 705.463 634.499C708.979 638.015 709.632 642.153 706.77 645.015Z" fill="black"/>
</g>
<g opacity="0.1">
<path fill-rule="evenodd" clip-rule="evenodd" d="M590.45 860.092C570.924 879.618 570.924 911.276 590.45 930.803C609.976 950.329 641.634 950.329 661.161 930.803L741.771 850.192C761.297 830.666 761.297 799.008 741.771 779.482C722.245 759.956 690.586 759.956 671.06 779.482L590.45 860.092ZM615.312 882.182L637.091 903.961L644.309 896.743C651.558 889.493 651.029 881.435 644.402 874.808C636.655 867.061 628.908 868.586 621.845 875.648L615.312 882.182ZM641.571 894.689L637.526 898.734L620.508 881.715L624.428 877.795C630.37 871.853 636.002 872.319 641.446 877.764C647.545 883.862 646.798 889.462 641.571 894.689ZM650.552 875.379C655.748 880.575 661.379 880.606 665.859 876.126C670.122 871.863 669.717 867.352 667.384 864.396L664.739 867.041C666.668 869.716 665.641 872.174 663.806 874.01C661.223 876.592 657.272 876.623 653.788 873.263L665.175 861.876L664.646 861.347C659.823 856.525 654.223 855.84 649.743 860.32C645.636 864.427 645.947 870.774 650.552 875.379ZM660.415 862.841L651.983 871.272C649.65 868.565 649.338 864.956 651.859 862.436C654.472 859.823 657.739 860.165 660.415 862.841ZM660.852 850.207L675.848 865.203L678.524 862.527L669.719 853.723C667.23 851.234 666.577 847.718 668.91 845.384C671.119 843.175 673.639 843.953 676.502 846.816L685.369 855.683L688.045 853.007L679.115 844.078C676.72 841.682 676.004 838.291 678.369 835.926C680.671 833.624 683.098 834.37 685.929 837.202L694.889 846.162L697.565 843.486L688.076 833.997C683.969 829.89 679.831 830.232 676.813 833.25C674.666 835.397 674.168 838.322 674.884 841.091C672.022 839.971 669.377 840.686 667.417 842.646C665.457 844.607 664.99 847.189 665.55 849.553L664.71 848.713L663.528 847.531L660.852 850.207ZM693.484 832.509C698.276 837.3 704.529 837.456 708.854 833.131C713.148 828.837 713.023 822.553 708.232 817.761C703.565 813.094 697.187 812.876 692.893 817.17C688.569 821.495 688.818 827.842 693.484 832.509ZM706.77 831.046C703.907 833.909 699.769 833.255 696.253 829.74C692.738 826.224 692.209 822.086 695.009 819.286C697.809 816.486 701.947 817.014 705.463 820.53C708.979 824.046 709.632 828.184 706.77 831.046Z" fill="black"/>
</g>
<g opacity="0.1">
<path fill-rule="evenodd" clip-rule="evenodd" d="M590.45 1046.12C570.924 1065.65 570.924 1097.31 590.45 1116.83C609.976 1136.36 641.634 1136.36 661.161 1116.83L741.771 1036.22C761.297 1016.7 761.297 985.039 741.771 965.513C722.245 945.987 690.586 945.987 671.06 965.513L590.45 1046.12ZM615.312 1068.21L637.091 1089.99L644.309 1082.77C651.558 1075.52 651.029 1067.47 644.402 1060.84C636.655 1053.09 628.908 1054.62 621.845 1061.68L615.312 1068.21ZM641.571 1080.72L637.526 1084.77L620.508 1067.75L624.428 1063.83C630.37 1057.88 636.002 1058.35 641.446 1063.8C647.545 1069.89 646.798 1075.49 641.571 1080.72ZM650.552 1061.41C655.748 1066.61 661.379 1066.64 665.859 1062.16C670.122 1057.89 669.717 1053.38 667.384 1050.43L664.739 1053.07C666.668 1055.75 665.641 1058.21 663.806 1060.04C661.223 1062.62 657.272 1062.65 653.788 1059.29L665.175 1047.91L664.646 1047.38C659.823 1042.56 654.223 1041.87 649.743 1046.35C645.636 1050.46 645.947 1056.81 650.552 1061.41ZM660.415 1048.87L651.983 1057.3C649.65 1054.6 649.338 1050.99 651.859 1048.47C654.472 1045.85 657.739 1046.2 660.415 1048.87ZM660.852 1036.24L675.848 1051.23L678.524 1048.56L669.719 1039.75C667.23 1037.26 666.577 1033.75 668.91 1031.42C671.119 1029.21 673.639 1029.98 676.502 1032.85L685.369 1041.71L688.045 1039.04L679.115 1030.11C676.72 1027.71 676.004 1024.32 678.369 1021.96C680.671 1019.66 683.098 1020.4 685.929 1023.23L694.889 1032.19L697.565 1029.52L688.076 1020.03C683.969 1015.92 679.831 1016.26 676.813 1019.28C674.666 1021.43 674.168 1024.35 674.884 1027.12C672.022 1026 669.377 1026.72 667.417 1028.68C665.457 1030.64 664.99 1033.22 665.55 1035.58L664.71 1034.74L663.528 1033.56L660.852 1036.24ZM693.484 1018.54C698.276 1023.33 704.529 1023.49 708.854 1019.16C713.148 1014.87 713.023 1008.58 708.232 1003.79C703.565 999.126 697.187 998.908 692.893 1003.2C688.569 1007.53 688.818 1013.87 693.484 1018.54ZM706.77 1017.08C703.907 1019.94 699.769 1019.29 696.253 1015.77C692.738 1012.26 692.209 1008.12 695.009 1005.32C697.809 1002.52 701.947 1003.05 705.463 1006.56C708.979 1010.08 709.632 1014.22 706.77 1017.08Z" fill="black"/>
</g>
<g opacity="0.1">
<path fill-rule="evenodd" clip-rule="evenodd" d="M775.481 115.965C755.955 135.491 755.955 167.149 775.481 186.676C795.008 206.202 826.666 206.202 846.192 186.676L926.802 106.065C946.329 86.5393 946.328 54.881 926.802 35.3548C907.276 15.8286 875.618 15.8286 856.092 35.3548L775.481 115.965ZM800.343 138.055L822.122 159.834L829.34 152.616C836.59 145.366 836.061 137.308 829.434 130.681C821.687 122.934 813.94 124.459 806.877 131.521L800.343 138.055ZM826.602 150.562L822.558 154.607L805.539 137.588L809.459 133.668C815.402 127.726 821.033 128.192 826.478 133.637C832.576 139.735 831.829 145.335 826.602 150.562ZM835.583 131.252C840.779 136.448 846.411 136.479 850.891 131.999C855.153 127.736 854.749 123.225 852.415 120.269L849.771 122.914C851.7 125.589 850.673 128.047 848.837 129.883C846.255 132.465 842.304 132.497 838.819 129.136L850.206 117.749L849.677 117.22C844.855 112.398 839.255 111.713 834.774 116.193C830.667 120.3 830.979 126.647 835.583 131.252ZM845.446 118.714L837.014 127.145C834.681 124.438 834.37 120.829 836.89 118.309C839.504 115.696 842.77 116.038 845.446 118.714ZM845.884 106.08L860.88 121.076L863.556 118.401L854.751 109.596C852.262 107.107 851.608 103.591 853.942 101.257C856.151 99.0484 858.671 99.8262 861.533 102.689L870.4 111.556L873.076 108.88L864.147 99.9507C861.751 97.555 861.035 94.1637 863.4 91.7992C865.702 89.4968 868.129 90.2435 870.96 93.0748L879.921 102.035L882.597 99.3595L873.107 89.8702C869 85.7633 864.862 86.1055 861.844 89.1235C859.698 91.2702 859.2 94.1948 859.915 96.9639C857.053 95.8438 854.408 96.5594 852.448 98.5195C850.488 100.48 850.022 103.062 850.582 105.427L849.742 104.586L848.559 103.404L845.884 106.08ZM878.516 88.3816C883.307 93.173 889.561 93.3285 893.886 89.0039C898.179 84.7103 898.055 78.4256 893.263 73.6342C888.596 68.9673 882.218 68.7495 877.925 73.0431C873.6 77.3677 873.849 83.7147 878.516 88.3816ZM891.801 86.9193C888.939 89.7817 884.801 89.1283 881.285 85.6126C877.769 82.0969 877.24 77.9589 880.04 75.1587C882.841 72.3586 886.979 72.8875 890.494 76.4032C894.01 79.919 894.663 84.057 891.801 86.9193Z" fill="black"/>
</g>
<g opacity="0.1">
<path fill-rule="evenodd" clip-rule="evenodd" d="M775.481 301.996C755.955 321.522 755.955 353.181 775.481 372.707C795.008 392.233 826.666 392.233 846.192 372.707L926.802 292.097C946.329 272.571 946.328 240.912 926.802 221.386C907.276 201.86 875.618 201.86 856.092 221.386L775.481 301.996ZM800.343 324.086L822.122 345.865L829.34 338.647C836.59 331.398 836.061 323.34 829.434 316.713C821.687 308.965 813.94 310.49 806.877 317.553L800.343 324.086ZM826.602 336.594L822.558 340.638L805.539 323.62L809.459 319.699C815.402 313.757 821.033 314.224 826.478 319.668C832.576 325.766 831.829 331.367 826.602 336.594ZM835.583 317.283C840.779 322.479 846.411 322.51 850.891 318.03C855.153 313.768 854.749 309.256 852.415 306.3L849.771 308.945C851.7 311.621 850.673 314.079 848.837 315.914C846.255 318.497 842.304 318.528 838.819 315.168L850.206 303.78L849.677 303.251C844.855 298.429 839.255 297.744 834.774 302.225C830.667 306.332 830.979 312.679 835.583 317.283ZM845.446 304.745L837.014 313.176C834.681 310.47 834.37 306.86 836.89 304.34C839.504 301.727 842.77 302.069 845.446 304.745ZM845.884 292.111L860.88 307.107L863.556 304.432L854.751 295.627C852.262 293.138 851.608 289.622 853.942 287.289C856.151 285.08 858.671 285.857 861.533 288.72L870.4 297.587L873.076 294.911L864.147 285.982C861.751 283.586 861.035 280.195 863.4 277.83C865.702 275.528 868.129 276.275 870.96 279.106L879.921 288.066L882.597 285.391L873.107 275.901C869 271.795 864.862 272.137 861.844 275.155C859.698 277.301 859.2 280.226 859.915 282.995C857.053 281.875 854.408 282.591 852.448 284.551C850.488 286.511 850.022 289.093 850.582 291.458L849.742 290.618L848.559 289.435L845.884 292.111ZM878.516 274.413C883.307 279.204 889.561 279.36 893.886 275.035C898.179 270.742 898.055 264.457 893.263 259.665C888.596 254.999 882.218 254.781 877.925 259.074C873.6 263.399 873.849 269.746 878.516 274.413ZM891.801 272.951C888.939 275.813 884.801 275.16 881.285 271.644C877.769 268.128 877.24 263.99 880.04 261.19C882.841 258.39 886.979 258.919 890.494 262.434C894.01 265.95 894.663 270.088 891.801 272.951Z" fill="black"/>
</g>
<g opacity="0.1">
<path fill-rule="evenodd" clip-rule="evenodd" d="M775.481 488.029C755.955 507.556 755.955 539.214 775.481 558.74C795.008 578.266 826.666 578.266 846.192 558.74L926.802 478.13C946.329 458.604 946.328 426.945 926.802 407.419C907.276 387.893 875.618 387.893 856.092 407.419L775.481 488.029ZM800.343 510.119L822.122 531.898L829.34 524.68C836.59 517.431 836.061 509.373 829.434 502.746C821.687 494.999 813.94 496.523 806.877 503.586L800.343 510.119ZM826.602 522.627L822.558 526.671L805.539 509.653L809.459 505.733C815.402 499.79 821.033 500.257 826.478 505.701C832.576 511.8 831.829 517.4 826.602 522.627ZM835.583 503.316C840.779 508.512 846.411 508.543 850.891 504.063C855.153 499.801 854.749 495.289 852.415 492.334L849.771 494.978C851.7 497.654 850.673 500.112 848.837 501.947C846.255 504.53 842.304 504.561 838.819 501.201L850.206 489.814L849.677 489.285C844.855 484.462 839.255 483.778 834.774 488.258C830.667 492.365 830.979 498.712 835.583 503.316ZM845.446 490.778L837.014 499.21C834.681 496.503 834.37 492.894 836.89 490.374C839.504 487.76 842.77 488.102 845.446 490.778ZM845.884 478.144L860.88 493.141L863.556 490.465L854.751 481.66C852.262 479.171 851.608 475.655 853.942 473.322C856.151 471.113 858.671 471.891 861.533 474.753L870.4 483.62L873.076 480.944L864.147 472.015C861.751 469.619 861.035 466.228 863.4 463.864C865.702 461.561 868.129 462.308 870.96 465.139L879.921 474.1L882.597 471.424L873.107 461.935C869 457.828 864.862 458.17 861.844 461.188C859.698 463.335 859.2 466.259 859.915 469.028C857.053 467.908 854.408 468.624 852.448 470.584C850.488 472.544 850.022 475.126 850.582 477.491L849.742 476.651L848.559 475.469L845.884 478.144ZM878.516 460.446C883.307 465.237 889.561 465.393 893.886 461.068C898.179 456.775 898.055 450.49 893.263 445.699C888.596 441.032 882.218 440.814 877.925 445.108C873.6 449.432 873.849 455.779 878.516 460.446ZM891.801 458.984C888.939 461.846 884.801 461.193 881.285 457.677C877.769 454.161 877.24 450.023 880.04 447.223C882.841 444.423 886.979 444.952 890.494 448.468C894.01 451.983 894.663 456.121 891.801 458.984Z" fill="black"/>
</g>
<g opacity="0.1">
<path fill-rule="evenodd" clip-rule="evenodd" d="M775.481 674.061C755.955 693.587 755.955 725.245 775.481 744.771C795.008 764.298 826.666 764.298 846.192 744.771L926.802 664.161C946.329 644.635 946.328 612.977 926.802 593.451C907.276 573.924 875.618 573.924 856.092 593.451L775.481 674.061ZM800.343 696.151L822.122 717.93L829.34 710.711C836.59 703.462 836.061 695.404 829.434 688.777C821.687 681.03 813.94 682.554 806.877 689.617L800.343 696.151ZM826.602 708.658L822.558 712.703L805.539 695.684L809.459 691.764C815.402 685.821 821.033 686.288 826.478 691.733C832.576 697.831 831.829 703.431 826.602 708.658ZM835.583 689.348C840.779 694.544 846.411 694.575 850.891 690.094C855.153 685.832 854.749 681.321 852.415 678.365L849.771 681.01C851.7 683.685 850.673 686.143 848.837 687.979C846.255 690.561 842.304 690.592 838.819 687.232L850.206 675.845L849.677 675.316C844.855 670.493 839.255 669.809 834.774 674.289C830.667 678.396 830.979 684.743 835.583 689.348ZM845.446 676.809L837.014 685.241C834.681 682.534 834.37 678.925 836.89 676.405C839.504 673.791 842.77 674.134 845.446 676.809ZM845.884 664.176L860.88 679.172L863.556 676.496L854.751 667.691C852.262 665.202 851.608 661.687 853.942 659.353C856.151 657.144 858.671 657.922 861.533 660.784L870.4 669.651L873.076 666.976L864.147 658.046C861.751 655.651 861.035 652.259 863.4 649.895C865.702 647.593 868.129 648.339 870.96 651.17L879.921 660.131L882.597 657.455L873.107 647.966C869 643.859 864.862 644.201 861.844 647.219C859.698 649.366 859.2 652.291 859.915 655.06C857.053 653.94 854.408 654.655 852.448 656.615C850.488 658.575 850.022 661.158 850.582 663.522L849.742 662.682L848.559 661.5L845.884 664.176ZM878.516 646.477C883.307 651.269 889.561 651.424 893.886 647.1C898.179 642.806 898.055 636.521 893.263 631.73C888.596 627.063 882.218 626.845 877.925 631.139C873.6 635.463 873.849 641.81 878.516 646.477ZM891.801 645.015C888.939 647.877 884.801 647.224 881.285 643.708C877.769 640.193 877.24 636.055 880.04 633.254C882.841 630.454 886.979 630.983 890.494 634.499C894.01 638.015 894.663 642.153 891.801 645.015Z" fill="black"/>
</g>
<g opacity="0.1">
<path fill-rule="evenodd" clip-rule="evenodd" d="M775.481 860.092C755.955 879.618 755.955 911.276 775.481 930.803C795.008 950.329 826.666 950.329 846.192 930.803L926.802 850.192C946.329 830.666 946.328 799.008 926.802 779.482C907.276 759.956 875.618 759.956 856.092 779.482L775.481 860.092ZM800.343 882.182L822.122 903.961L829.34 896.743C836.59 889.493 836.061 881.435 829.434 874.808C821.687 867.061 813.94 868.586 806.877 875.648L800.343 882.182ZM826.602 894.689L822.558 898.734L805.539 881.715L809.459 877.795C815.402 871.853 821.033 872.319 826.478 877.764C832.576 883.862 831.829 889.462 826.602 894.689ZM835.583 875.379C840.779 880.575 846.411 880.606 850.891 876.126C855.153 871.863 854.749 867.352 852.415 864.396L849.771 867.041C851.7 869.716 850.673 872.174 848.837 874.01C846.255 876.592 842.304 876.623 838.819 873.263L850.206 861.876L849.677 861.347C844.855 856.525 839.255 855.84 834.774 860.32C830.667 864.427 830.979 870.774 835.583 875.379ZM845.446 862.841L837.014 871.272C834.681 868.565 834.37 864.956 836.89 862.436C839.504 859.823 842.77 860.165 845.446 862.841ZM845.884 850.207L860.88 865.203L863.556 862.527L854.751 853.723C852.262 851.234 851.608 847.718 853.942 845.384C856.151 843.175 858.671 843.953 861.533 846.816L870.4 855.683L873.076 853.007L864.147 844.078C861.751 841.682 861.035 838.291 863.4 835.926C865.702 833.624 868.129 834.37 870.96 837.202L879.921 846.162L882.597 843.486L873.107 833.997C869 829.89 864.862 830.232 861.844 833.25C859.698 835.397 859.2 838.322 859.915 841.091C857.053 839.971 854.408 840.686 852.448 842.646C850.488 844.607 850.022 847.189 850.582 849.553L849.742 848.713L848.559 847.531L845.884 850.207ZM878.516 832.509C883.307 837.3 889.561 837.456 893.886 833.131C898.179 828.837 898.055 822.553 893.263 817.761C888.596 813.094 882.218 812.876 877.925 817.17C873.6 821.495 873.849 827.842 878.516 832.509ZM891.801 831.046C888.939 833.909 884.801 833.255 881.285 829.74C877.769 826.224 877.24 822.086 880.04 819.286C882.841 816.486 886.979 817.014 890.494 820.53C894.01 824.046 894.663 828.184 891.801 831.046Z" fill="black"/>
</g>
<g opacity="0.1">
<path fill-rule="evenodd" clip-rule="evenodd" d="M775.481 1046.12C755.955 1065.65 755.955 1097.31 775.481 1116.83C795.008 1136.36 826.666 1136.36 846.192 1116.83L926.802 1036.22C946.329 1016.7 946.328 985.039 926.802 965.513C907.276 945.987 875.618 945.987 856.092 965.513L775.481 1046.12ZM800.343 1068.21L822.122 1089.99L829.34 1082.77C836.59 1075.52 836.061 1067.47 829.434 1060.84C821.687 1053.09 813.94 1054.62 806.877 1061.68L800.343 1068.21ZM826.602 1080.72L822.558 1084.77L805.539 1067.75L809.459 1063.83C815.402 1057.88 821.033 1058.35 826.478 1063.8C832.576 1069.89 831.829 1075.49 826.602 1080.72ZM835.583 1061.41C840.779 1066.61 846.411 1066.64 850.891 1062.16C855.153 1057.89 854.749 1053.38 852.415 1050.43L849.771 1053.07C851.7 1055.75 850.673 1058.21 848.837 1060.04C846.255 1062.62 842.304 1062.65 838.819 1059.29L850.206 1047.91L849.677 1047.38C844.855 1042.56 839.255 1041.87 834.774 1046.35C830.667 1050.46 830.979 1056.81 835.583 1061.41ZM845.446 1048.87L837.014 1057.3C834.681 1054.6 834.37 1050.99 836.89 1048.47C839.504 1045.85 842.77 1046.2 845.446 1048.87ZM845.884 1036.24L860.88 1051.23L863.556 1048.56L854.751 1039.75C852.262 1037.26 851.608 1033.75 853.942 1031.42C856.151 1029.21 858.671 1029.98 861.533 1032.85L870.4 1041.71L873.076 1039.04L864.147 1030.11C861.751 1027.71 861.035 1024.32 863.4 1021.96C865.702 1019.66 868.129 1020.4 870.96 1023.23L879.921 1032.19L882.597 1029.52L873.107 1020.03C869 1015.92 864.862 1016.26 861.844 1019.28C859.698 1021.43 859.2 1024.35 859.915 1027.12C857.053 1026 854.408 1026.72 852.448 1028.68C850.488 1030.64 850.022 1033.22 850.582 1035.58L849.742 1034.74L848.559 1033.56L845.884 1036.24ZM878.516 1018.54C883.307 1023.33 889.561 1023.49 893.886 1019.16C898.179 1014.87 898.055 1008.58 893.263 1003.79C888.596 999.126 882.218 998.908 877.925 1003.2C873.6 1007.53 873.849 1013.87 878.516 1018.54ZM891.801 1017.08C888.939 1019.94 884.801 1019.29 881.285 1015.77C877.769 1012.26 877.24 1008.12 880.04 1005.32C882.841 1002.52 886.979 1003.05 890.494 1006.56C894.01 1010.08 894.663 1014.22 891.801 1017.08Z" fill="black"/>
</g>
</svg>
