<svg width="57" height="56" viewBox="0 0 57 56" fill="none" xmlns="http://www.w3.org/2000/svg">
<path d="M25.1167 36.6333L39.5833 22.1667L38.4167 21L25.1167 34.3L18.4667 27.65L17.3 28.8167L25.1167 36.6333ZM28.5 48.3C25.7 48.3 23.0556 47.775 20.5667 46.725C18.1167 45.6361 15.9778 44.1778 14.15 42.35C12.3222 40.5222 10.8639 38.3833 9.775 35.9333C8.725 33.4444 8.2 30.8 8.2 28C8.2 25.2 8.725 22.575 9.775 20.125C10.8639 17.6361 12.3222 15.4778 14.15 13.65C15.9778 11.8222 18.1167 10.3833 20.5667 9.33333C23.0556 8.24444 25.7 7.7 28.5 7.7C31.3 7.7 33.925 8.24444 36.375 9.33333C38.8639 10.3833 41.0222 11.8222 42.85 13.65C44.6778 15.4778 46.1167 17.6361 47.1667 20.125C48.2556 22.575 48.8 25.2 48.8 28C48.8 30.8 48.2556 33.4444 47.1667 35.9333C46.1167 38.3833 44.6778 40.5222 42.85 42.35C41.0222 44.1778 38.8639 45.6361 36.375 46.725C33.925 47.775 31.3 48.3 28.5 48.3ZM28.5 46.6667C33.7111 46.6667 38.125 44.8583 41.7417 41.2417C45.3583 37.625 47.1667 33.2111 47.1667 28C47.1667 22.7889 45.3583 18.375 41.7417 14.7583C38.125 11.1417 33.7111 9.33333 28.5 9.33333C23.2889 9.33333 18.875 11.1417 15.2583 14.7583C11.6417 18.375 9.83333 22.7889 9.83333 28C9.83333 33.2111 11.6417 37.625 15.2583 41.2417C18.875 44.8583 23.2889 46.6667 28.5 46.6667Z" fill="#F7FAF9"/>
</svg>
