<svg width="48" height="48" viewBox="0 0 48 48" fill="none" xmlns="http://www.w3.org/2000/svg">
<rect width="48" height="48" rx="24" fill="#1C1C1E"/>
<path d="M23.65 25.225H24.35V20.225H23.65V25.225ZM24 27.225C24.15 27.225 24.2667 27.175 24.35 27.075C24.45 26.975 24.5 26.8583 24.5 26.725C24.5 26.575 24.45 26.4583 24.35 26.375C24.2667 26.275 24.15 26.225 24 26.225C23.8667 26.225 23.75 26.275 23.65 26.375C23.55 26.4583 23.5 26.575 23.5 26.725C23.5 26.8583 23.55 26.975 23.65 27.075C23.75 27.175 23.8667 27.225 24 27.225ZM24 32.95L15.05 24L24 15.05L32.95 24L24 32.95ZM24 32L32 24L24 16L16 24L24 32Z" fill="white"/>
</svg>
