<svg width="12" height="4" viewBox="0 0 12 4" fill="none" xmlns="http://www.w3.org/2000/svg">
<path d="M2 3.33333C1.63333 3.33333 1.31667 3.20556 1.05 2.95C0.794445 2.68333 0.666667 2.36667 0.666667 2C0.666667 1.63333 0.794445 1.32222 1.05 1.06667C1.31667 0.8 1.63333 0.666666 2 0.666666C2.36667 0.666666 2.67778 0.8 2.93333 1.06667C3.2 1.32222 3.33333 1.63333 3.33333 2C3.33333 2.36667 3.2 2.68333 2.93333 2.95C2.67778 3.20556 2.36667 3.33333 2 3.33333ZM6 3.33333C5.63333 3.33333 5.31667 3.20556 5.05 2.95C4.79444 2.68333 4.66667 2.36667 4.66667 2C4.66667 1.63333 4.79444 1.32222 5.05 1.06667C5.31667 0.8 5.63333 0.666666 6 0.666666C6.36667 0.666666 6.67778 0.8 6.93333 1.06667C7.2 1.32222 7.33333 1.63333 7.33333 2C7.33333 2.36667 7.2 2.68333 6.93333 2.95C6.67778 3.20556 6.36667 3.33333 6 3.33333ZM10 3.33333C9.63333 3.33333 9.31667 3.20556 9.05 2.95C8.79444 2.68333 8.66667 2.36667 8.66667 2C8.66667 1.63333 8.79444 1.32222 9.05 1.06667C9.31667 0.8 9.63333 0.666666 10 0.666666C10.3667 0.666666 10.6778 0.8 10.9333 1.06667C11.2 1.32222 11.3333 1.63333 11.3333 2C11.3333 2.36667 11.2 2.68333 10.9333 2.95C10.6778 3.20556 10.3667 3.33333 10 3.33333Z" fill="white"/>
</svg>
