<svg width="57" height="57" viewBox="0 0 57 57" fill="none" xmlns="http://www.w3.org/2000/svg">
<path d="M27.6833 31.3583H29.3167V19.6917H27.6833V31.3583ZM28.5 36.025C28.85 36.025 29.1222 35.9083 29.3167 35.675C29.55 35.4417 29.6667 35.1694 29.6667 34.8583C29.6667 34.5083 29.55 34.2361 29.3167 34.0417C29.1222 33.8083 28.85 33.6917 28.5 33.6917C28.1889 33.6917 27.9167 33.8083 27.6833 34.0417C27.45 34.2361 27.3333 34.5083 27.3333 34.8583C27.3333 35.1694 27.45 35.4417 27.6833 35.675C27.9167 35.9083 28.1889 36.025 28.5 36.025ZM28.5 49.3833L7.61667 28.5L28.5 7.61666L49.3833 28.5L28.5 49.3833ZM28.5 47.1667L47.1667 28.5L28.5 9.83333L9.83333 28.5L28.5 47.1667Z" fill="#0A2841"/>
</svg>
