<svg width="180" height="180" viewBox="0 0 180 180" fill="none" xmlns="http://www.w3.org/2000/svg">
<path d="M83.6932 84.4003C83.5113 84.4003 83.3798 84.4003 83.2489 84.4003C78.7816 84.4003 74.3148 84.4032 69.8475 84.3941C69.5624 84.3935 69.4842 84.4644 69.4854 84.7541C69.4956 88.5806 69.4922 92.4077 69.4922 96.2342C69.4922 96.4886 69.62 96.6159 69.8758 96.6163C74.3431 96.6163 78.8099 96.6163 83.2772 96.6163C83.4053 96.6163 83.5339 96.6163 83.6932 96.6163L83.6932 110.808L95.8897 110.808L95.8897 96.6191L110.084 96.6191L110.084 84.3981L95.8801 84.3981L95.8801 70.209L83.6937 70.209L83.6932 84.4003Z" fill="white"/>
<path d="M53.3512 140.668L61.9236 155.298C63.7729 158.454 68.4751 157.978 69.6536 154.515C70.0861 153.244 69.8959 151.843 69.1399 150.733L57.7931 134.078L36.345 128.929L38.4731 106.778L23.6681 90.0002L38.4731 72.9883L36.345 50.9983L57.7931 45.9227L69.9225 27.5045L90 35.6683L109.847 27.5045L122.207 45.9227L143.655 50.9983L141.527 72.9883L156.332 90.0002L141.527 106.778L143.655 128.695L122.207 134.078L110.077 152.496L95.4033 146.529C92.8239 145.48 90.0041 147.38 90.0078 150.165C90.0099 151.697 90.9047 153.088 92.2984 153.724L113.379 163.356L126.801 140.642L152.914 135.347L150.015 109.53L166.759 90.0002L150.015 70.5864L152.914 44.8277L126.836 39.4483L113.355 16.6445L89.9887 27.3208L66.6206 16.6445L53.3868 39.4727L27.1593 44.8408L29.985 70.5845L13.2412 90.0002L29.985 109.528L27.1593 135.36L53.3512 140.668Z" fill="white" fill-opacity="0.85"/>
</svg>
