<svg width="180" height="180" viewBox="0 0 180 180" fill="none" xmlns="http://www.w3.org/2000/svg">
<path d="M84.0802 77.6605C83.8924 77.6605 83.7567 77.6605 83.6216 77.6605C79.0101 77.6605 74.3993 77.6635 69.7879 77.6541C69.4936 77.6535 69.4129 77.7267 69.4141 78.0257C69.4246 81.9757 69.4211 85.9262 69.4211 89.8761C69.4211 90.1387 69.5531 90.2702 69.8171 90.2706C74.4286 90.2706 79.0394 90.2706 83.6508 90.2706C83.783 90.2706 83.9158 90.2706 84.0802 90.2706L84.0802 104.92L96.6702 104.92L96.6702 90.2735L111.322 90.2735L111.322 77.6582L96.6603 77.6582L96.6603 63.0115L84.0808 63.0115L84.0802 77.6605Z" fill="white"/>
<path d="M64.8856 156.445C71.3641 159.269 78.2347 160.91 85.4972 161.367C87.8427 161.515 89.75 159.595 89.75 157.245C89.75 154.895 87.8425 153.006 85.4977 152.849C71.9456 151.94 60.3099 146.622 50.5906 136.894C39.8706 126.163 34.5106 113.081 34.5106 97.6488V27.5106H144.989V93.3934C144.989 95.7436 146.895 97.6488 149.245 97.6488C151.595 97.6488 153.5 95.7436 153.5 93.3934V19H26V97.6488C26 106.466 27.6731 114.753 31.0194 122.508C34.3656 130.263 38.9137 137.015 44.6637 142.765C50.4137 148.515 57.1544 153.075 64.8856 156.445Z" fill="white" fill-opacity="0.85"/>
</svg>
