<svg width="16" height="16" viewBox="0 0 16 16" fill="none" xmlns="http://www.w3.org/2000/svg">
<path d="M6.95 11.45L12.2375 6.1625L11.1875 5.1125L6.95 9.35L4.8125 7.2125L3.7625 8.2625L6.95 11.45ZM8 15.5C6.9625 15.5 5.9875 15.3062 5.075 14.9187C4.1625 14.5187 3.36875 13.9812 2.69375 13.3062C2.01875 12.6312 1.48125 11.8375 1.08125 10.925C0.69375 10.0125 0.5 9.0375 0.5 8C0.5 6.9625 0.69375 5.9875 1.08125 5.075C1.48125 4.1625 2.01875 3.36875 2.69375 2.69375C3.36875 2.01875 4.1625 1.4875 5.075 1.1C5.9875 0.699999 6.9625 0.5 8 0.5C9.0375 0.5 10.0125 0.699999 10.925 1.1C11.8375 1.4875 12.6313 2.01875 13.3063 2.69375C13.9813 3.36875 14.5125 4.1625 14.9 5.075C15.3 5.9875 15.5 6.9625 15.5 8C15.5 9.0375 15.3 10.0125 14.9 10.925C14.5125 11.8375 13.9813 12.6312 13.3063 13.3062C12.6313 13.9812 11.8375 14.5187 10.925 14.9187C10.0125 15.3062 9.0375 15.5 8 15.5ZM8 14C9.675 14 11.0938 13.4187 12.2563 12.2562C13.4188 11.0937 14 9.675 14 8C14 6.325 13.4188 4.90625 12.2563 3.74375C11.0938 2.58125 9.675 2 8 2C6.325 2 4.90625 2.58125 3.74375 3.74375C2.58125 4.90625 2 6.325 2 8C2 9.675 2.58125 11.0937 3.74375 12.2562C4.90625 13.4187 6.325 14 8 14Z" fill="#0A2841" fill-opacity="0.68"/>
</svg>
