<?xml version="1.0" encoding="UTF-8"?>
<svg id="RZ" xmlns="http://www.w3.org/2000/svg" version="1.1" viewBox="0 0 500 120.9">
  <!-- Generator: Adobe Illustrator 29.0.0, SVG Export Plug-In . SVG Version: 2.1.0 Build 186)  -->
  <defs>
    <style>
      .st0 {
        fill: #fff;
      }
    </style>
  </defs>
  <path class="st0" d="M198.27,54.87l-9.98-1.86c-7.84-1.45-11.18-4.25-11.18-9.36,0-5.68,5.21-9.5,12.98-9.5s12.62,2.93,14.55,8.46c1.12,3.2,2.88,4.69,5.54,4.69,1.91,0,3.36-.72,4.19-2.07,1.2-1.97.96-5.11-.62-8.2-2.62-5.13-8.72-11.24-22.85-11.24s-24.55,7.79-24.55,18.53c0,9.18,6.85,15.53,19.29,17.87l9.71,1.86c7.7,1.46,11.45,4.78,11.45,10.16,0,6.58-5.93,10.83-15.1,10.83-8.57,0-14.2-3.67-16.29-10.6-.96-3.42-2.68-5.08-5.27-5.08-1.76,0-3.23.7-4.14,1.97-1.17,1.64-1.29,4.09-.34,6.89,3.3,9.42,12.98,15.05,25.9,15.05,15.24,0,25.88-8.33,25.88-20.26s-10.42-16.53-19.15-18.14Z"/>
  <path class="st0" d="M304.59,26.31c-2.69,0-4.37,1.52-5,4.52l-10.11,43.19-1.5,6.18-.34-1.25c-.14-.51-.3-1.04-.46-1.59-.3-1.02-.62-2.08-.88-3.21l-10.24-33.99c-1.36-4.43-3.68-6.41-7.53-6.41-4.07,0-6.43,1.97-7.66,6.4l-10.11,34.02c-.2.7-.4,1.36-.59,2-.32,1.05-.62,2.04-.87,3.03l-.38,1.5-.28-1.52c-.13-.71-.33-1.47-.54-2.27-.21-.82-.46-1.75-.66-2.77l-9.71-43.04c-.75-3.13-2.57-4.79-5.26-4.79-1.83,0-3.3.66-4.27,1.91-1.09,1.4-1.4,3.41-.86,5.51l13.84,53.15c1.12,3.98,3.56,5.99,7.26,5.99s6-1.97,7.26-6.01l10.64-36.13c.27-.8.5-1.61.73-2.39.23-.79.47-1.6.74-2.4l.33-.99.31,1c.2.63.37,1.23.55,1.81.3,1.01.58,1.96.92,2.96l10.52,36.15c1.25,3.98,3.74,6,7.4,6s6.14-2.02,7.26-6l13.97-53.8c.54-1.96.3-3.8-.66-5.06-.84-1.11-2.16-1.69-3.8-1.69Z"/>
  <path class="st0" d="M368.69,82.51h-17.27v-48.3c0-4.48-1.83-6.31-6.32-6.31h-14.84c-3.34,0-5.25,1.62-5.25,4.45s1.87,4.32,5.25,4.32h10.39v45.84h-19.62c-3.34,0-5.25,1.62-5.25,4.45s1.87,4.32,5.25,4.32h47.66c3.39,0,5.25-1.53,5.25-4.32s-1.92-4.45-5.25-4.45Z"/>
  <path class="st0" d="M344.97,16.74c4.44,0,8.05-3.6,8.05-8.04s-3.61-8.04-8.05-8.04-8.05,3.6-8.05,8.04,3.61,8.04,8.05,8.04Z"/>
  <path class="st0" d="M427.67,26.31c-2.65,0-4.52,1.49-5.54,4.43l-13.04,37.87-3.11,8.73-.31-.89c-.62-1.77-1.35-3.59-2.06-5.34-.35-.86-.68-1.7-.99-2.49l-14.64-37.87c-1.14-2.9-3.1-4.44-5.68-4.44-1.97,0-3.65.82-4.61,2.25-1.05,1.56-1.14,3.67-.27,5.79l22.94,54.99-5.1,13.81c-2.06,5.5-5.17,8.06-9.76,8.06-.8,0-1.62,0-2.45-.14-.54-.08-1.06-.12-1.55-.12-1.49,0-2.71.38-3.57,1.12-.92.79-1.41,1.98-1.41,3.45,0,5.38,6.36,5.38,9.78,5.38,8.79,0,15.04-4.84,18.58-14.4l27.15-72.15c.87-2.26.74-4.47-.36-6.06-.88-1.28-2.3-1.99-3.99-1.99Z"/>
  <path class="st0" d="M494.61,26.31c-3.37,0-5.39,2.36-5.39,6.31v32.15c0,13.27-5.44,20-16.17,20s-16.04-6.54-16.04-20v-32.15c0-3.95-2.01-6.31-5.39-6.31s-5.39,2.36-5.39,6.31v32.95c0,8.98,2.25,15.9,6.69,20.56,4.51,4.74,11.28,7.14,20.12,7.14,17.63,0,26.94-9.49,26.94-27.43v-33.22c0-3.95-2.01-6.31-5.39-6.31Z"/>
  <path class="st0" d="M113.29,42.97c-3.66,0-4.43,2.89-4.43,5.31v23.68c0,2.42.77,5.31,4.43,5.31s4.53-2.89,4.53-5.31v-23.68c0-2.42-.79-5.31-4.53-5.31Z"/>
  <path class="st0" d="M4.43,42.97c-3.66,0-4.43,2.89-4.43,5.31v23.68c0,2.42.77,5.31,4.43,5.31s4.53-2.89,4.53-5.31v-23.68c0-2.42-.79-5.31-4.53-5.31Z"/>
  <path class="st0" d="M58.86,42.97c-3.66,0-4.43,2.89-4.43,5.31v23.68c0,2.42.77,5.31,4.43,5.31s4.53-2.89,4.53-5.31v-23.68c0-2.42-.79-5.31-4.53-5.31Z"/>
  <path class="st0" d="M45.21,87.74c-3.66,0-4.43,2.89-4.43,5.31v21.89c0,2.42.77,5.31,4.43,5.31s4.53-2.89,4.53-5.31v-21.89c0-2.42-.79-5.31-4.53-5.31Z"/>
  <path class="st0" d="M72.42,87.74c-3.66,0-4.43,2.89-4.43,5.31v21.89c0,2.42.77,5.31,4.43,5.31s4.53-2.89,4.53-5.31v-21.89c0-2.42-.79-5.31-4.53-5.31Z"/>
  <path class="st0" d="M45.21,0c-3.66,0-4.43,2.89-4.43,5.31v21.89c0,2.42.77,5.31,4.43,5.31s4.53-2.89,4.53-5.31V5.31c0-2.42-.79-5.31-4.53-5.31Z"/>
  <path class="st0" d="M72.42,0c-3.66,0-4.43,2.89-4.43,5.31v21.89c0,2.42.77,5.31,4.43,5.31s4.53-2.89,4.53-5.31V5.31c0-2.42-.79-5.31-4.53-5.31Z"/>
  <path class="st0" d="M31.65,42.97c-3.66,0-4.43,2.89-4.43,5.31v23.68c0,2.42.77,5.31,4.43,5.31s4.53-2.89,4.53-5.31v-23.68c0-2.42-.79-5.31-4.53-5.31Z"/>
  <path class="st0" d="M86.08,42.97c-3.66,0-4.43,2.89-4.43,5.31v23.68c0,2.42.77,5.31,4.43,5.31s4.53-2.89,4.53-5.31v-23.68c0-2.42-.79-5.31-4.53-5.31Z"/>
</svg>