<svg width="64" height="65" viewBox="0 0 64 65" fill="none" xmlns="http://www.w3.org/2000/svg">
<rect y="0.5" width="64" height="64" rx="32" fill="#0A2841"/>
<path d="M25.25 31.75V25.75H31.25V31.75H25.25ZM26.75 30.25H29.75V27.25H26.75V30.25ZM25.25 39.25V33.25H31.25V39.25H25.25ZM26.75 37.75H29.75V34.75H26.75V37.75ZM32.75 31.75V25.75H38.75V31.75H32.75ZM34.25 30.25H37.25V27.25H34.25V30.25ZM37.25 39.25V37.75H38.75V39.25H37.25ZM32.75 34.75V33.25H34.25V34.75H32.75ZM34.25 36.25V34.75H35.75V36.25H34.25ZM32.75 37.75V36.25H34.25V37.75H32.75ZM34.25 39.25V37.75H35.75V39.25H34.25ZM35.75 37.75V36.25H37.25V37.75H35.75ZM35.75 34.75V33.25H37.25V34.75H35.75ZM37.25 36.25V34.75H38.75V36.25H37.25Z" fill="#F1F5F9"/>
</svg>
