<svg width="14" height="12" viewBox="0 0 14 12" fill="none" xmlns="http://www.w3.org/2000/svg">
<path d="M8.33333 6.66667H11.6667V5.33333H8.33333V6.66667ZM8.33333 4.66667H11.6667V3.33333L8.33333 3.33333V4.66667ZM2.33333 8.66667L7.66667 8.66667V8.3C7.66667 7.8 7.42222 7.40556 6.93333 7.11667C6.44444 6.81667 5.8 6.66667 5 6.66667C4.2 6.66667 3.55556 6.81667 3.06667 7.11667C2.57778 7.40556 2.33333 7.8 2.33333 8.3V8.66667ZM5 6C5.36667 6 5.67778 5.87222 5.93333 5.61667C6.2 5.35 6.33333 5.03333 6.33333 4.66667C6.33333 4.3 6.2 3.98889 5.93333 3.73333C5.67778 3.46667 5.36667 3.33333 5 3.33333C4.63333 3.33333 4.31667 3.46667 4.05 3.73333C3.79444 3.98889 3.66667 4.3 3.66667 4.66667C3.66667 5.03333 3.79444 5.35 4.05 5.61667C4.31667 5.87222 4.63333 6 5 6ZM0.333333 11.3333L0.333333 0.666666L13.6667 0.666666L13.6667 11.3333L0.333333 11.3333ZM1.66667 10L12.3333 10L12.3333 2L1.66667 2L1.66667 10ZM1.66667 10L1.66667 2L1.66667 10Z" fill="white"/>
</svg>
