<svg width="81" height="80" viewBox="0 0 81 80" fill="none" xmlns="http://www.w3.org/2000/svg">
<path d="M37.869 34.5158C37.7855 34.5158 37.7252 34.5158 37.6652 34.5158C35.6156 34.5158 33.5664 34.5171 31.5168 34.513C31.3861 34.5127 31.3502 34.5452 31.3507 34.6781C31.3554 36.4336 31.3538 38.1894 31.3538 39.945C31.3538 40.0617 31.4125 40.1201 31.5298 40.1203C33.5794 40.1203 35.6286 40.1203 37.6782 40.1203C37.7369 40.1203 37.7959 40.1203 37.869 40.1203L37.869 46.631L43.4646 46.631L43.4646 40.1216L49.9766 40.1216L49.9766 34.5148L43.4601 34.5148L43.4601 28.0051L37.8692 28.0051L37.869 34.5158Z" fill="white"/>
<path d="M29.338 69.5311C32.2174 70.7864 35.2709 71.5157 38.4988 71.7189C39.5412 71.7845 40.3889 70.931 40.3889 69.8865C40.3889 68.842 39.5411 68.0027 38.4989 67.9328C32.4758 67.5288 27.3044 65.1652 22.9847 60.842C18.2203 56.0725 15.838 50.2583 15.838 43.3995V12.227H64.9397V41.5082C64.9397 42.5527 65.7864 43.3995 66.831 43.3995C67.8755 43.3995 68.7222 42.5527 68.7222 41.5082V8.44446H12.0555V43.3995C12.0555 47.3183 12.7992 51.0011 14.2864 54.4478C15.7736 57.8945 17.795 60.8956 20.3505 63.4511C22.9061 66.0067 25.9019 68.0334 29.338 69.5311Z" fill="white" fill-opacity="0.85"/>
</svg>
