<svg width="180" height="180" viewBox="0 0 180 180" fill="none" xmlns="http://www.w3.org/2000/svg">
<path d="M43.9019 126.911C53.6457 140.247 65.6487 149.243 79.911 153.9C82.0082 154.584 84.2045 153.318 84.7959 151.193C85.4024 149.014 84.0889 146.776 81.9547 146.025C77.5057 144.461 73.0277 142.148 68.5206 139.085C62.6794 135.114 57.3575 130.112 52.555 124.081C47.7525 118.05 43.8294 111.066 40.7856 103.128C37.7431 95.1906 36.2219 86.4525 36.2219 76.9137V40.4675L83.7306 31.9644L131.239 40.5088V76.5434C131.239 78.8138 133.08 80.6544 135.35 80.6544C137.621 80.6544 139.461 78.8139 139.461 76.5434V34.8856L83.7306 24L28 34.9213V76.9081C28 95.7331 33.3006 112.401 43.9019 126.911Z" fill="white" fill-opacity="0.85"/>
<path fill-rule="evenodd" clip-rule="evenodd" d="M120.349 152.918C111.615 152.918 104.162 149.814 97.9892 143.605C91.8167 137.396 88.7305 129.983 88.7305 121.366C88.7305 112.523 91.8148 105.002 97.9836 98.8019C104.152 92.6006 111.636 89.5 120.435 89.5C129.106 89.5 136.548 92.5994 142.76 98.7981C148.972 104.996 152.077 112.515 152.077 121.356C152.077 129.975 148.973 137.39 142.764 143.601C136.554 149.812 129.082 152.918 120.349 152.918ZM120.067 120.942C123.315 120.942 126.048 119.787 128.267 117.479C130.487 115.169 131.597 112.431 131.597 109.264C131.597 106.098 130.47 103.383 128.218 101.119C125.967 98.8544 123.248 97.7219 120.063 97.7219C116.88 97.7219 114.135 98.825 111.83 101.031C109.527 103.237 108.375 105.96 108.375 109.199C108.375 112.436 109.522 115.203 111.817 117.499C114.111 119.794 116.861 120.942 120.067 120.942ZM119.91 143.976C124.053 143.976 127.793 143.137 131.128 141.458C134.464 139.781 137.291 137.301 139.608 134.018C136.392 132.378 133.185 131.099 129.988 130.18C126.792 129.263 123.467 128.804 120.013 128.804C116.59 128.804 113.242 129.263 109.968 130.18C106.695 131.099 103.555 132.378 100.55 134.018C102.782 137.306 105.542 139.788 108.83 141.464C112.119 143.139 115.812 143.976 119.91 143.976Z" fill="white"/>
</svg>
