<svg width="10" height="12" viewBox="0 0 10 12" fill="none" xmlns="http://www.w3.org/2000/svg">
<path d="M2.66667 10.6667H7.33333V8.91667C7.33333 8.275 7.10486 7.72569 6.64792 7.26875C6.19097 6.81181 5.64167 6.58333 5 6.58333C4.35833 6.58333 3.80903 6.81181 3.35208 7.26875C2.89514 7.72569 2.66667 8.275 2.66667 8.91667V10.6667ZM5 5.41667C5.64167 5.41667 6.19097 5.18819 6.64792 4.73125C7.10486 4.27431 7.33333 3.725 7.33333 3.08333V1.33333H2.66667V3.08333C2.66667 3.725 2.89514 4.27431 3.35208 4.73125C3.80903 5.18819 4.35833 5.41667 5 5.41667ZM0.333333 11.8333V10.6667H1.5V8.91667C1.5 8.32361 1.63611 7.76944 1.90833 7.25417C2.19028 6.72917 2.57917 6.31111 3.075 6C2.57917 5.68889 2.19028 5.27569 1.90833 4.76042C1.63611 4.23542 1.5 3.67639 1.5 3.08333V1.33333H0.333333V0.166666H9.66667V1.33333H8.5V3.08333C8.5 3.67639 8.35903 4.23542 8.07708 4.76042C7.80486 5.27569 7.42083 5.68889 6.925 6C7.42083 6.31111 7.80486 6.72917 8.07708 7.25417C8.35903 7.76944 8.5 8.32361 8.5 8.91667V10.6667H9.66667V11.8333H0.333333Z" fill="#C00012"/>
</svg>
