<svg width="11" height="14" viewBox="0 0 11 14" fill="none" xmlns="http://www.w3.org/2000/svg">
<path d="M5 7V0.583333H6.16667V7H5ZM2.66667 7V1.16667H3.83333V7H2.66667ZM5.29167 13.4167C3.91111 13.4167 2.73958 12.9354 1.77708 11.9729C0.814584 11.0104 0.333333 9.83889 0.333333 8.45833V2.33333H1.5V8.45833C1.5 9.51806 1.86458 10.4174 2.59375 11.1562C3.33264 11.8854 4.23194 12.25 5.29167 12.25C6.35139 12.25 7.24583 11.8854 7.975 11.1562C8.71389 10.4174 9.08333 9.51806 9.08333 8.45833V6.41667C8.91806 6.41667 8.77708 6.475 8.66042 6.59167C8.55347 6.69861 8.5 6.83472 8.5 7V9.33333H6.75C6.42917 9.33333 6.15208 9.45 5.91875 9.68333C5.69514 9.90694 5.58333 10.1792 5.58333 10.5V11.0833H4.41667V10.5C4.41667 9.85833 4.64514 9.30903 5.10208 8.85208C5.55903 8.39514 6.10833 8.16667 6.75 8.16667H7.33333V6.50417V1.75H8.5V5.35208C8.59722 5.32292 8.68958 5.29861 8.77708 5.27917C8.87431 5.25972 8.97639 5.25 9.08333 5.25H10.25V8.45833C10.25 9.83889 9.76875 11.0104 8.80625 11.9729C7.84375 12.9354 6.67222 13.4167 5.29167 13.4167Z" fill="#C00012"/>
</svg>
