<svg width="12" height="12" viewBox="0 0 12 12" fill="none" xmlns="http://www.w3.org/2000/svg">
<path d="M0 5.33333L0 -9.53674e-07L5.33333 -9.53674e-07V5.33333L0 5.33333ZM1.33333 4L4 4V1.33333L1.33333 1.33333L1.33333 4ZM0 12L0 6.66667L5.33333 6.66667L5.33333 12L0 12ZM1.33333 10.6667H4V8H1.33333L1.33333 10.6667ZM6.66667 5.33333L6.66667 -9.53674e-07L12 -9.53674e-07L12 5.33333H6.66667ZM8 4L10.6667 4L10.6667 1.33333L8 1.33333L8 4ZM10.6667 12V10.6667H12V12H10.6667ZM6.66667 8V6.66667H8V8H6.66667ZM8 9.33333V8H9.33333V9.33333H8ZM6.66667 10.6667V9.33333H8V10.6667H6.66667ZM8 12V10.6667H9.33333V12H8ZM9.33333 10.6667V9.33333H10.6667V10.6667H9.33333ZM9.33333 8V6.66667H10.6667V8H9.33333ZM10.6667 9.33333V8H12V9.33333H10.6667Z" fill="white"/>
</svg>
