<svg width="41" height="42" viewBox="0 0 41 42" fill="none" xmlns="http://www.w3.org/2000/svg">
<path d="M20.5 41.3C17.7 41.3 15.0556 40.775 12.5667 39.725C10.1167 38.6361 7.97778 37.1778 6.15 35.35C4.32222 33.5222 2.86389 31.3833 1.775 28.9333C0.725 26.4444 0.2 23.8 0.2 21C0.2 18.2 0.725 15.575 1.775 13.125C2.86389 10.6361 4.32222 8.47778 6.15 6.65C7.97778 4.82222 10.1167 3.38333 12.5667 2.33333C15.0556 1.24444 17.7 0.699996 20.5 0.699996C23.3 0.699996 25.925 1.24444 28.375 2.33333C30.8639 3.38333 33.0222 4.82222 34.85 6.65C36.6778 8.47778 38.1167 10.6361 39.1667 13.125C40.2556 15.575 40.8 18.2 40.8 21C40.8 23.8 40.2556 26.4444 39.1667 28.9333C38.1167 31.3833 36.6778 33.5222 34.85 35.35C33.0222 37.1778 30.8639 38.6361 28.375 39.725C25.925 40.775 23.3 41.3 20.5 41.3ZM20.5 39.6667C22.8333 39.6667 25.0694 39.2583 27.2083 38.4417C29.3861 37.5861 31.35 36.3611 33.1 34.7667L6.73333 8.4C5.17778 10.15 3.97222 12.1139 3.11667 14.2917C2.26111 16.4306 1.83333 18.6667 1.83333 21C1.83333 26.2111 3.64167 30.625 7.25833 34.2417C10.875 37.8583 15.2889 39.6667 20.5 39.6667ZM34.2667 33.6C35.8611 31.85 37.0667 29.9056 37.8833 27.7667C38.7389 25.5889 39.1667 23.3333 39.1667 21C39.1667 15.7889 37.3583 11.375 33.7417 7.75833C30.125 4.14166 25.7111 2.33333 20.5 2.33333C18.1667 2.33333 15.9111 2.74166 13.7333 3.55833C11.5556 4.375 9.61111 5.6 7.9 7.23333L34.2667 33.6Z" fill="#0A2841"/>
</svg>
