<svg width="41" height="41" viewBox="0 0 41 41" fill="none" xmlns="http://www.w3.org/2000/svg">
<path d="M20.5 40.8C17.7 40.8 15.0556 40.275 12.5667 39.225C10.1167 38.1361 7.97778 36.6778 6.15 34.85C4.32222 33.0222 2.86389 30.8833 1.775 28.4333C0.725 25.9444 0.2 23.3 0.2 20.5C0.2 17.7 0.725 15.075 1.775 12.625C2.86389 10.1361 4.32222 7.97778 6.15 6.15C7.97778 4.32222 10.1167 2.88333 12.5667 1.83333C15.0556 0.744441 17.7 0.199996 20.5 0.199996C23.3 0.199996 25.925 0.744441 28.375 1.83333C30.8639 2.88333 33.0222 4.32222 34.85 6.15C36.6778 7.97778 38.1167 10.1361 39.1667 12.625C40.2556 15.075 40.8 17.7 40.8 20.5C40.8 23.3 40.2556 25.9444 39.1667 28.4333C38.1167 30.8833 36.6778 33.0222 34.85 34.85C33.0222 36.6778 30.8639 38.1361 28.375 39.225C25.925 40.275 23.3 40.8 20.5 40.8ZM20.5 39.1667C22.8333 39.1667 25.0694 38.7583 27.2083 37.9417C29.3861 37.0861 31.35 35.8611 33.1 34.2667L6.73333 7.9C5.17778 9.65 3.97222 11.6139 3.11667 13.7917C2.26111 15.9306 1.83333 18.1667 1.83333 20.5C1.83333 25.7111 3.64167 30.125 7.25833 33.7417C10.875 37.3583 15.2889 39.1667 20.5 39.1667ZM34.2667 33.1C35.8611 31.35 37.0667 29.4056 37.8833 27.2667C38.7389 25.0889 39.1667 22.8333 39.1667 20.5C39.1667 15.2889 37.3583 10.875 33.7417 7.25833C30.125 3.64166 25.7111 1.83333 20.5 1.83333C18.1667 1.83333 15.9111 2.24166 13.7333 3.05833C11.5556 3.875 9.61111 5.1 7.9 6.73333L34.2667 33.1Z" fill="#DDE3EA"/>
</svg>
