<svg width="14" height="12" viewBox="0 0 14 12" fill="none" xmlns="http://www.w3.org/2000/svg">
<path d="M0.583333 11.25L7 0.166666L13.4167 11.25H0.583333ZM2.59583 10.0833H11.4042L7 2.5L2.59583 10.0833ZM7 9.5C7.16528 9.5 7.30139 9.44653 7.40833 9.33958C7.525 9.22292 7.58333 9.08194 7.58333 8.91667C7.58333 8.75139 7.525 8.61528 7.40833 8.50833C7.30139 8.39167 7.16528 8.33333 7 8.33333C6.83472 8.33333 6.69375 8.39167 6.57708 8.50833C6.47014 8.61528 6.41667 8.75139 6.41667 8.91667C6.41667 9.08194 6.47014 9.22292 6.57708 9.33958C6.69375 9.44653 6.83472 9.5 7 9.5ZM6.41667 7.75H7.58333V4.83333H6.41667V7.75Z" fill="white"/>
</svg>
