<svg width="18" height="17" viewBox="0 0 18 17" fill="none" xmlns="http://www.w3.org/2000/svg">
<path d="M8.25 9.54352H9.75V4.48102H8.25V9.54352ZM9 11.5123C9.2125 11.5123 9.3875 11.4435 9.525 11.306C9.675 11.156 9.75 10.9748 9.75 10.7623C9.75 10.5498 9.675 10.3748 9.525 10.2373C9.3875 10.0873 9.2125 10.0123 9 10.0123C8.7875 10.0123 8.60625 10.0873 8.45625 10.2373C8.31875 10.3748 8.25 10.5498 8.25 10.7623C8.25 10.9748 8.31875 11.156 8.45625 11.306C8.60625 11.4435 8.7875 11.5123 9 11.5123ZM9 16.6123L0.9 8.51227L9 0.412267L17.1 8.51227L9 16.6123ZM9 14.5123L15 8.51227L9 2.51227L3 8.51227L9 14.5123Z" fill="#0A2841"/>
</svg>
