<svg width="18" height="17" viewBox="0 0 18 17" fill="none" xmlns="http://www.w3.org/2000/svg">
<path d="M8.25 9.54297H9.75V4.48047H8.25V9.54297ZM9 11.5117C9.2125 11.5117 9.3875 11.443 9.525 11.3055C9.675 11.1555 9.75 10.9742 9.75 10.7617C9.75 10.5492 9.675 10.3742 9.525 10.2367C9.3875 10.0867 9.2125 10.0117 9 10.0117C8.7875 10.0117 8.60625 10.0867 8.45625 10.2367C8.31875 10.3742 8.25 10.5492 8.25 10.7617C8.25 10.9742 8.31875 11.1555 8.45625 11.3055C8.60625 11.443 8.7875 11.5117 9 11.5117ZM9 16.6117L0.9 8.51172L9 0.411718L17.1 8.51172L9 16.6117ZM9 14.5117L15 8.51172L9 2.51172L3 8.51172L9 14.5117Z" fill="white"/>
</svg>
